<?xml version="1.0" encoding="utf-8" standalone="no"?>
<!DOCTYPE svg PUBLIC "-//W3C//DTD SVG 1.1//EN"
  "http://www.w3.org/Graphics/SVG/1.1/DTD/svg11.dtd">
<svg height="345.6pt" version="1.1" viewBox="0 0 460.8 345.6" width="460.8pt" xmlns="http://www.w3.org/2000/svg" xmlns:xlink="http://www.w3.org/1999/xlink">
 <metadata>
  <rdf:RDF xmlns:cc="http://creativecommons.org/ns#" xmlns:dc="http://purl.org/dc/elements/1.1/" xmlns:rdf="http://www.w3.org/1999/02/22-rdf-syntax-ns#">
   <cc:Work>
    <dc:type rdf:resource="http://purl.org/dc/dcmitype/StillImage"/>
    <dc:date>2022-01-30T21:23:10.907131</dc:date>
    <dc:format>image/svg+xml</dc:format>
    <dc:creator>
     <cc:Agent>
      <dc:title>Matplotlib v3.4.1, https://matplotlib.org/</dc:title>
     </cc:Agent>
    </dc:creator>
   </cc:Work>
  </rdf:RDF>
 </metadata>
 <defs>
  <style type="text/css">*{stroke-linecap:butt;stroke-linejoin:round;}</style>
 </defs>
 <g id="figure_1">
  <g id="patch_1">
   <path d="M 0 345.6 
L 460.8 345.6 
L 460.8 0 
L 0 0 
z
" style="fill:#ffffff;"/>
  </g>
  <g id="axes_1">
   <g id="patch_2">
    <path d="M 57.6 307.584 
L 414.72 307.584 
L 414.72 41.472 
L 57.6 41.472 
z
" style="fill:#ffffff;"/>
   </g>
   <g id="matplotlib.axis_1">
    <g id="xtick_1">
     <g id="line2d_1">
      <defs>
       <path d="M 0 0 
L 0 3.5 
" id="ma57b843637" style="stroke:#000000;stroke-width:0.8;"/>
      </defs>
      <g>
       <use style="stroke:#000000;stroke-width:0.8;" x="82.419096" xlink:href="#ma57b843637" y="307.584"/>
      </g>
     </g>
     <g id="text_1">
      <!-- −1.0 -->
      <g transform="translate(70.27769 322.182437)scale(0.1 -0.1)">
       <defs>
        <path d="M 678 2272 
L 4684 2272 
L 4684 1741 
L 678 1741 
L 678 2272 
z
" id="DejaVuSans-2212" transform="scale(0.015625)"/>
        <path d="M 794 531 
L 1825 531 
L 1825 4091 
L 703 3866 
L 703 4441 
L 1819 4666 
L 2450 4666 
L 2450 531 
L 3481 531 
L 3481 0 
L 794 0 
L 794 531 
z
" id="DejaVuSans-31" transform="scale(0.015625)"/>
        <path d="M 684 794 
L 1344 794 
L 1344 0 
L 684 0 
L 684 794 
z
" id="DejaVuSans-2e" transform="scale(0.015625)"/>
        <path d="M 2034 4250 
Q 1547 4250 1301 3770 
Q 1056 3291 1056 2328 
Q 1056 1369 1301 889 
Q 1547 409 2034 409 
Q 2525 409 2770 889 
Q 3016 1369 3016 2328 
Q 3016 3291 2770 3770 
Q 2525 4250 2034 4250 
z
M 2034 4750 
Q 2819 4750 3233 4129 
Q 3647 3509 3647 2328 
Q 3647 1150 3233 529 
Q 2819 -91 2034 -91 
Q 1250 -91 836 529 
Q 422 1150 422 2328 
Q 422 3509 836 4129 
Q 1250 4750 2034 4750 
z
" id="DejaVuSans-30" transform="scale(0.015625)"/>
       </defs>
       <use xlink:href="#DejaVuSans-2212"/>
       <use x="83.789062" xlink:href="#DejaVuSans-31"/>
       <use x="147.412109" xlink:href="#DejaVuSans-2e"/>
       <use x="179.199219" xlink:href="#DejaVuSans-30"/>
      </g>
     </g>
    </g>
    <g id="xtick_2">
     <g id="line2d_2">
      <g>
       <use style="stroke:#000000;stroke-width:0.8;" x="136.132482" xlink:href="#ma57b843637" y="307.584"/>
      </g>
     </g>
     <g id="text_2">
      <!-- −0.5 -->
      <g transform="translate(123.991076 322.182437)scale(0.1 -0.1)">
       <defs>
        <path d="M 691 4666 
L 3169 4666 
L 3169 4134 
L 1269 4134 
L 1269 2991 
Q 1406 3038 1543 3061 
Q 1681 3084 1819 3084 
Q 2600 3084 3056 2656 
Q 3513 2228 3513 1497 
Q 3513 744 3044 326 
Q 2575 -91 1722 -91 
Q 1428 -91 1123 -41 
Q 819 9 494 109 
L 494 744 
Q 775 591 1075 516 
Q 1375 441 1709 441 
Q 2250 441 2565 725 
Q 2881 1009 2881 1497 
Q 2881 1984 2565 2268 
Q 2250 2553 1709 2553 
Q 1456 2553 1204 2497 
Q 953 2441 691 2322 
L 691 4666 
z
" id="DejaVuSans-35" transform="scale(0.015625)"/>
       </defs>
       <use xlink:href="#DejaVuSans-2212"/>
       <use x="83.789062" xlink:href="#DejaVuSans-30"/>
       <use x="147.412109" xlink:href="#DejaVuSans-2e"/>
       <use x="179.199219" xlink:href="#DejaVuSans-35"/>
      </g>
     </g>
    </g>
    <g id="xtick_3">
     <g id="line2d_3">
      <g>
       <use style="stroke:#000000;stroke-width:0.8;" x="189.845868" xlink:href="#ma57b843637" y="307.584"/>
      </g>
     </g>
     <g id="text_3">
      <!-- 0.0 -->
      <g transform="translate(181.894306 322.182437)scale(0.1 -0.1)">
       <use xlink:href="#DejaVuSans-30"/>
       <use x="63.623047" xlink:href="#DejaVuSans-2e"/>
       <use x="95.410156" xlink:href="#DejaVuSans-30"/>
      </g>
     </g>
    </g>
    <g id="xtick_4">
     <g id="line2d_4">
      <g>
       <use style="stroke:#000000;stroke-width:0.8;" x="243.559254" xlink:href="#ma57b843637" y="307.584"/>
      </g>
     </g>
     <g id="text_4">
      <!-- 0.5 -->
      <g transform="translate(235.607692 322.182437)scale(0.1 -0.1)">
       <use xlink:href="#DejaVuSans-30"/>
       <use x="63.623047" xlink:href="#DejaVuSans-2e"/>
       <use x="95.410156" xlink:href="#DejaVuSans-35"/>
      </g>
     </g>
    </g>
    <g id="xtick_5">
     <g id="line2d_5">
      <g>
       <use style="stroke:#000000;stroke-width:0.8;" x="297.27264" xlink:href="#ma57b843637" y="307.584"/>
      </g>
     </g>
     <g id="text_5">
      <!-- 1.0 -->
      <g transform="translate(289.321078 322.182437)scale(0.1 -0.1)">
       <use xlink:href="#DejaVuSans-31"/>
       <use x="63.623047" xlink:href="#DejaVuSans-2e"/>
       <use x="95.410156" xlink:href="#DejaVuSans-30"/>
      </g>
     </g>
    </g>
    <g id="xtick_6">
     <g id="line2d_6">
      <g>
       <use style="stroke:#000000;stroke-width:0.8;" x="350.986027" xlink:href="#ma57b843637" y="307.584"/>
      </g>
     </g>
     <g id="text_6">
      <!-- 1.5 -->
      <g transform="translate(343.034464 322.182437)scale(0.1 -0.1)">
       <use xlink:href="#DejaVuSans-31"/>
       <use x="63.623047" xlink:href="#DejaVuSans-2e"/>
       <use x="95.410156" xlink:href="#DejaVuSans-35"/>
      </g>
     </g>
    </g>
    <g id="xtick_7">
     <g id="line2d_7">
      <g>
       <use style="stroke:#000000;stroke-width:0.8;" x="404.699413" xlink:href="#ma57b843637" y="307.584"/>
      </g>
     </g>
     <g id="text_7">
      <!-- 2.0 -->
      <g transform="translate(396.74785 322.182437)scale(0.1 -0.1)">
       <defs>
        <path d="M 1228 531 
L 3431 531 
L 3431 0 
L 469 0 
L 469 531 
Q 828 903 1448 1529 
Q 2069 2156 2228 2338 
Q 2531 2678 2651 2914 
Q 2772 3150 2772 3378 
Q 2772 3750 2511 3984 
Q 2250 4219 1831 4219 
Q 1534 4219 1204 4116 
Q 875 4013 500 3803 
L 500 4441 
Q 881 4594 1212 4672 
Q 1544 4750 1819 4750 
Q 2544 4750 2975 4387 
Q 3406 4025 3406 3419 
Q 3406 3131 3298 2873 
Q 3191 2616 2906 2266 
Q 2828 2175 2409 1742 
Q 1991 1309 1228 531 
z
" id="DejaVuSans-32" transform="scale(0.015625)"/>
       </defs>
       <use xlink:href="#DejaVuSans-32"/>
       <use x="63.623047" xlink:href="#DejaVuSans-2e"/>
       <use x="95.410156" xlink:href="#DejaVuSans-30"/>
      </g>
     </g>
    </g>
    <g id="text_8">
     <!-- r_x% -->
     <g transform="translate(223.894375 335.684)scale(0.1 -0.1)">
      <defs>
       <path d="M 2631 2963 
Q 2534 3019 2420 3045 
Q 2306 3072 2169 3072 
Q 1681 3072 1420 2755 
Q 1159 2438 1159 1844 
L 1159 0 
L 581 0 
L 581 3500 
L 1159 3500 
L 1159 2956 
Q 1341 3275 1631 3429 
Q 1922 3584 2338 3584 
Q 2397 3584 2469 3576 
Q 2541 3569 2628 3553 
L 2631 2963 
z
" id="DejaVuSans-72" transform="scale(0.015625)"/>
       <path d="M 3263 -1063 
L 3263 -1509 
L -63 -1509 
L -63 -1063 
L 3263 -1063 
z
" id="DejaVuSans-5f" transform="scale(0.015625)"/>
       <path d="M 3513 3500 
L 2247 1797 
L 3578 0 
L 2900 0 
L 1881 1375 
L 863 0 
L 184 0 
L 1544 1831 
L 300 3500 
L 978 3500 
L 1906 2253 
L 2834 3500 
L 3513 3500 
z
" id="DejaVuSans-78" transform="scale(0.015625)"/>
       <path d="M 4653 2053 
Q 4381 2053 4226 1822 
Q 4072 1591 4072 1178 
Q 4072 772 4226 539 
Q 4381 306 4653 306 
Q 4919 306 5073 539 
Q 5228 772 5228 1178 
Q 5228 1588 5073 1820 
Q 4919 2053 4653 2053 
z
M 4653 2450 
Q 5147 2450 5437 2106 
Q 5728 1763 5728 1178 
Q 5728 594 5436 251 
Q 5144 -91 4653 -91 
Q 4153 -91 3862 251 
Q 3572 594 3572 1178 
Q 3572 1766 3864 2108 
Q 4156 2450 4653 2450 
z
M 1428 4353 
Q 1159 4353 1004 4120 
Q 850 3888 850 3481 
Q 850 3069 1003 2837 
Q 1156 2606 1428 2606 
Q 1700 2606 1854 2837 
Q 2009 3069 2009 3481 
Q 2009 3884 1853 4118 
Q 1697 4353 1428 4353 
z
M 4250 4750 
L 4750 4750 
L 1831 -91 
L 1331 -91 
L 4250 4750 
z
M 1428 4750 
Q 1922 4750 2215 4408 
Q 2509 4066 2509 3481 
Q 2509 2891 2217 2550 
Q 1925 2209 1428 2209 
Q 931 2209 642 2551 
Q 353 2894 353 3481 
Q 353 4063 643 4406 
Q 934 4750 1428 4750 
z
" id="DejaVuSans-25" transform="scale(0.015625)"/>
      </defs>
      <use xlink:href="#DejaVuSans-72"/>
      <use x="41.113281" xlink:href="#DejaVuSans-5f"/>
      <use x="91.113281" xlink:href="#DejaVuSans-78"/>
      <use x="150.292969" xlink:href="#DejaVuSans-25"/>
     </g>
    </g>
    <g id="text_9">
     <!-- 1e8 -->
     <g transform="translate(395.841875 334.860562)scale(0.1 -0.1)">
      <defs>
       <path d="M 3597 1894 
L 3597 1613 
L 953 1613 
Q 991 1019 1311 708 
Q 1631 397 2203 397 
Q 2534 397 2845 478 
Q 3156 559 3463 722 
L 3463 178 
Q 3153 47 2828 -22 
Q 2503 -91 2169 -91 
Q 1331 -91 842 396 
Q 353 884 353 1716 
Q 353 2575 817 3079 
Q 1281 3584 2069 3584 
Q 2775 3584 3186 3129 
Q 3597 2675 3597 1894 
z
M 3022 2063 
Q 3016 2534 2758 2815 
Q 2500 3097 2075 3097 
Q 1594 3097 1305 2825 
Q 1016 2553 972 2059 
L 3022 2063 
z
" id="DejaVuSans-65" transform="scale(0.015625)"/>
       <path d="M 2034 2216 
Q 1584 2216 1326 1975 
Q 1069 1734 1069 1313 
Q 1069 891 1326 650 
Q 1584 409 2034 409 
Q 2484 409 2743 651 
Q 3003 894 3003 1313 
Q 3003 1734 2745 1975 
Q 2488 2216 2034 2216 
z
M 1403 2484 
Q 997 2584 770 2862 
Q 544 3141 544 3541 
Q 544 4100 942 4425 
Q 1341 4750 2034 4750 
Q 2731 4750 3128 4425 
Q 3525 4100 3525 3541 
Q 3525 3141 3298 2862 
Q 3072 2584 2669 2484 
Q 3125 2378 3379 2068 
Q 3634 1759 3634 1313 
Q 3634 634 3220 271 
Q 2806 -91 2034 -91 
Q 1263 -91 848 271 
Q 434 634 434 1313 
Q 434 1759 690 2068 
Q 947 2378 1403 2484 
z
M 1172 3481 
Q 1172 3119 1398 2916 
Q 1625 2713 2034 2713 
Q 2441 2713 2670 2916 
Q 2900 3119 2900 3481 
Q 2900 3844 2670 4047 
Q 2441 4250 2034 4250 
Q 1625 4250 1398 4047 
Q 1172 3844 1172 3481 
z
" id="DejaVuSans-38" transform="scale(0.015625)"/>
      </defs>
      <use xlink:href="#DejaVuSans-31"/>
      <use x="63.623047" xlink:href="#DejaVuSans-65"/>
      <use x="125.146484" xlink:href="#DejaVuSans-38"/>
     </g>
    </g>
   </g>
   <g id="matplotlib.axis_2">
    <g id="ytick_1">
     <g id="line2d_8">
      <defs>
       <path d="M 0 0 
L -3.5 0 
" id="m9e6f839cf8" style="stroke:#000000;stroke-width:0.8;"/>
      </defs>
      <g>
       <use style="stroke:#000000;stroke-width:0.8;" x="57.6" xlink:href="#m9e6f839cf8" y="299.764112"/>
      </g>
     </g>
     <g id="text_10">
      <!-- −1.5 -->
      <g transform="translate(26.317187 303.563331)scale(0.1 -0.1)">
       <use xlink:href="#DejaVuSans-2212"/>
       <use x="83.789062" xlink:href="#DejaVuSans-31"/>
       <use x="147.412109" xlink:href="#DejaVuSans-2e"/>
       <use x="179.199219" xlink:href="#DejaVuSans-35"/>
      </g>
     </g>
    </g>
    <g id="ytick_2">
     <g id="line2d_9">
      <g>
       <use style="stroke:#000000;stroke-width:0.8;" x="57.6" xlink:href="#m9e6f839cf8" y="257.990927"/>
      </g>
     </g>
     <g id="text_11">
      <!-- −1.0 -->
      <g transform="translate(26.317187 261.790146)scale(0.1 -0.1)">
       <use xlink:href="#DejaVuSans-2212"/>
       <use x="83.789062" xlink:href="#DejaVuSans-31"/>
       <use x="147.412109" xlink:href="#DejaVuSans-2e"/>
       <use x="179.199219" xlink:href="#DejaVuSans-30"/>
      </g>
     </g>
    </g>
    <g id="ytick_3">
     <g id="line2d_10">
      <g>
       <use style="stroke:#000000;stroke-width:0.8;" x="57.6" xlink:href="#m9e6f839cf8" y="216.217743"/>
      </g>
     </g>
     <g id="text_12">
      <!-- −0.5 -->
      <g transform="translate(26.317187 220.016962)scale(0.1 -0.1)">
       <use xlink:href="#DejaVuSans-2212"/>
       <use x="83.789062" xlink:href="#DejaVuSans-30"/>
       <use x="147.412109" xlink:href="#DejaVuSans-2e"/>
       <use x="179.199219" xlink:href="#DejaVuSans-35"/>
      </g>
     </g>
    </g>
    <g id="ytick_4">
     <g id="line2d_11">
      <g>
       <use style="stroke:#000000;stroke-width:0.8;" x="57.6" xlink:href="#m9e6f839cf8" y="174.444559"/>
      </g>
     </g>
     <g id="text_13">
      <!-- 0.0 -->
      <g transform="translate(34.696875 178.243777)scale(0.1 -0.1)">
       <use xlink:href="#DejaVuSans-30"/>
       <use x="63.623047" xlink:href="#DejaVuSans-2e"/>
       <use x="95.410156" xlink:href="#DejaVuSans-30"/>
      </g>
     </g>
    </g>
    <g id="ytick_5">
     <g id="line2d_12">
      <g>
       <use style="stroke:#000000;stroke-width:0.8;" x="57.6" xlink:href="#m9e6f839cf8" y="132.671374"/>
      </g>
     </g>
     <g id="text_14">
      <!-- 0.5 -->
      <g transform="translate(34.696875 136.470593)scale(0.1 -0.1)">
       <use xlink:href="#DejaVuSans-30"/>
       <use x="63.623047" xlink:href="#DejaVuSans-2e"/>
       <use x="95.410156" xlink:href="#DejaVuSans-35"/>
      </g>
     </g>
    </g>
    <g id="ytick_6">
     <g id="line2d_13">
      <g>
       <use style="stroke:#000000;stroke-width:0.8;" x="57.6" xlink:href="#m9e6f839cf8" y="90.89819"/>
      </g>
     </g>
     <g id="text_15">
      <!-- 1.0 -->
      <g transform="translate(34.696875 94.697408)scale(0.1 -0.1)">
       <use xlink:href="#DejaVuSans-31"/>
       <use x="63.623047" xlink:href="#DejaVuSans-2e"/>
       <use x="95.410156" xlink:href="#DejaVuSans-30"/>
      </g>
     </g>
    </g>
    <g id="ytick_7">
     <g id="line2d_14">
      <g>
       <use style="stroke:#000000;stroke-width:0.8;" x="57.6" xlink:href="#m9e6f839cf8" y="49.125005"/>
      </g>
     </g>
     <g id="text_16">
      <!-- 1.5 -->
      <g transform="translate(34.696875 52.924224)scale(0.1 -0.1)">
       <use xlink:href="#DejaVuSans-31"/>
       <use x="63.623047" xlink:href="#DejaVuSans-2e"/>
       <use x="95.410156" xlink:href="#DejaVuSans-35"/>
      </g>
     </g>
    </g>
    <g id="text_17">
     <!-- r_y% -->
     <g transform="translate(19.959375 186.793625)rotate(-90)scale(0.1 -0.1)">
      <defs>
       <path d="M 2059 -325 
Q 1816 -950 1584 -1140 
Q 1353 -1331 966 -1331 
L 506 -1331 
L 506 -850 
L 844 -850 
Q 1081 -850 1212 -737 
Q 1344 -625 1503 -206 
L 1606 56 
L 191 3500 
L 800 3500 
L 1894 763 
L 2988 3500 
L 3597 3500 
L 2059 -325 
z
" id="DejaVuSans-79" transform="scale(0.015625)"/>
      </defs>
      <use xlink:href="#DejaVuSans-72"/>
      <use x="41.113281" xlink:href="#DejaVuSans-5f"/>
      <use x="91.113281" xlink:href="#DejaVuSans-79"/>
      <use x="150.292969" xlink:href="#DejaVuSans-25"/>
     </g>
    </g>
    <g id="text_18">
     <!-- 1e8 -->
     <g transform="translate(57.6 38.472)scale(0.1 -0.1)">
      <use xlink:href="#DejaVuSans-31"/>
      <use x="63.623047" xlink:href="#DejaVuSans-65"/>
      <use x="125.146484" xlink:href="#DejaVuSans-38"/>
     </g>
    </g>
   </g>
   <g id="line2d_15">
    <path clip-path="url(#p714901bfa0)" d="M 240.63724 174.444559 
L 240.554308 172.433631 
L 240.305835 170.430601 
L 239.892801 168.443356 
L 239.316829 166.479719 
L 238.580186 164.547421 
L 237.685772 162.654068 
L 236.637107 160.807115 
L 235.438317 159.013833 
L 234.094121 157.281281 
L 232.60981 155.61628 
L 230.991225 154.025385 
L 229.244737 152.514858 
L 227.377221 151.090646 
L 225.396025 149.758355 
L 223.308949 148.523231 
L 221.124205 147.390136 
L 218.850393 146.363529 
L 216.496462 145.447453 
L 214.071676 144.645515 
L 211.585578 143.96087 
L 209.047952 143.396216 
L 206.468785 142.953775 
L 203.858227 142.635288 
L 201.226553 142.442012 
L 198.584118 142.374708 
L 195.941321 142.433641 
L 193.308563 142.618581 
L 190.696204 142.928802 
L 188.114525 143.363083 
L 185.573684 143.919718 
L 183.08368 144.596517 
L 180.654311 145.390819 
L 178.295138 146.2995 
L 176.015443 147.318985 
L 173.824196 148.445265 
L 171.730021 149.67391 
L 169.741159 151.000087 
L 167.865434 152.41858 
L 166.110228 153.92381 
L 164.482448 155.509856 
L 162.988499 157.170481 
L 161.634261 158.899152 
L 160.425062 160.68907 
L 159.365662 162.533195 
L 158.46023 164.424275 
L 157.712329 166.354871 
L 157.124905 168.317391 
L 156.700271 170.304115 
L 156.440099 172.30723 
L 156.345415 174.318858 
L 156.416594 176.331088 
L 156.65336 178.336005 
L 157.054783 180.325724 
L 157.619288 182.292421 
L 158.344658 184.22836 
L 159.228042 186.125928 
L 160.265969 187.977663 
L 161.45436 189.776282 
L 162.788546 191.514712 
L 164.26328 193.186116 
L 165.872768 194.783921 
L 167.610683 196.301845 
L 169.470193 197.733917 
L 171.443989 199.074506 
L 173.524312 200.31834 
L 175.702986 201.460528 
L 177.971446 202.496577 
L 180.320775 203.422414 
L 182.741739 204.234398 
L 185.224821 204.929336 
L 187.760262 205.504493 
L 190.338094 205.957609 
L 192.948186 206.2869 
L 195.580278 206.491071 
L 198.224025 206.569319 
L 200.869035 206.521334 
L 203.504912 206.347304 
L 206.121297 206.047911 
L 208.707905 205.624332 
L 211.254572 205.078231 
L 213.751286 204.411751 
L 216.188237 203.627512 
L 218.555846 202.728595 
L 220.844808 201.718532 
L 223.046128 200.601291 
L 225.151153 199.381262 
L 227.151612 198.063239 
L 229.039643 196.6524 
L 230.807825 195.154289 
L 232.44921 193.574791 
L 233.957348 191.920114 
L 235.32631 190.196758 
L 236.550718 188.411495 
L 237.62576 186.571338 
L 238.547211 184.683518 
L 239.311448 182.755453 
L 239.915469 180.794716 
L 240.3569 178.809013 
L 240.634005 176.806144 
L 240.745694 174.793979 
" style="fill:none;stroke:#1f77b4;stroke-linecap:square;stroke-width:1.5;"/>
   </g>
   <g id="line2d_16">
    <path clip-path="url(#p714901bfa0)" d="M 279.882672 174.450083 
L 279.739041 170.993732 
L 279.30893 167.550967 
L 278.594029 164.135341 
L 277.597152 160.760304 
L 276.322224 157.439142 
L 274.774263 154.184933 
L 272.959362 151.010489 
L 270.884664 147.928308 
L 268.558338 144.950524 
L 265.989541 142.088863 
L 263.188384 139.354589 
L 260.165895 136.758469 
L 256.933971 134.310723 
L 253.505335 132.020988 
L 249.893483 129.898278 
L 246.112633 127.950953 
L 242.177668 126.186676 
L 238.104076 124.612396 
L 233.907895 123.23431 
L 229.605639 122.057844 
L 225.214245 121.087631 
L 220.750998 120.32749 
L 216.233465 119.780414 
L 211.679429 119.44856 
L 207.106814 119.333233 
L 202.533618 119.434891 
L 197.977843 119.753133 
L 193.457418 120.28671 
L 188.990137 121.033523 
L 184.593582 121.990633 
L 180.285058 123.154277 
L 176.081521 124.519876 
L 171.999517 126.082057 
L 168.055111 127.834674 
L 164.263828 129.770832 
L 160.640589 131.882913 
L 157.199655 134.162607 
L 153.954568 136.600945 
L 150.9181 139.188334 
L 148.102202 141.914593 
L 145.517957 144.768997 
L 143.175538 147.740315 
L 141.084163 150.816857 
L 139.252064 153.986519 
L 137.686455 157.236831 
L 136.393498 160.555005 
L 135.378283 163.927987 
L 134.64481 167.342506 
L 134.195967 170.785129 
L 134.033524 174.242313 
L 134.158125 177.700456 
L 134.569282 181.145953 
L 135.265382 184.56525 
L 136.243691 187.944895 
L 137.500363 191.271592 
L 139.030459 194.532254 
L 140.827963 197.714054 
L 142.885808 200.804473 
L 145.195903 203.791355 
L 147.749163 206.66295 
L 150.535549 209.40796 
L 153.544104 212.015588 
L 156.762996 214.475575 
L 160.179567 216.778244 
L 163.780382 218.914538 
L 167.551281 220.876051 
L 171.477434 222.655067 
L 175.543402 224.244589 
L 179.733196 225.638363 
L 184.030339 226.830907 
L 188.417933 227.817528 
L 192.878725 228.594345 
L 197.395173 229.158301 
L 201.949517 229.507178 
L 206.523848 229.639601 
L 211.100179 229.555048 
L 215.660513 229.253851 
L 220.18692 228.737192 
L 224.661601 228.007101 
L 229.066961 227.066448 
L 233.385678 225.918931 
L 237.600771 224.569059 
L 241.695665 223.022139 
L 245.65426 221.284253 
L 249.460991 219.362232 
L 253.100891 217.263632 
L 256.559647 214.996704 
L 259.823661 212.570358 
L 262.880099 209.994134 
L 265.716944 207.278159 
L 268.323042 204.433111 
L 270.688146 201.470173 
L 272.802957 198.400994 
L 274.65916 195.237639 
L 276.249457 191.992544 
L 277.567595 188.678464 
L 278.608391 185.30843 
L 279.367752 181.895687 
L 279.842693 178.453652 
L 280.031345 174.995855 
" style="fill:none;stroke:#ff7f0e;stroke-linecap:square;stroke-width:1.5;"/>
   </g>
   <g id="line2d_17">
    <path clip-path="url(#p714901bfa0)" d="M 332.135873 174.448329 
L 331.911958 169.129451 
L 331.243534 163.831584 
L 330.13324 158.575642 
L 328.585457 153.382375 
L 326.606293 148.272283 
L 324.203561 143.265541 
L 321.386745 138.381913 
L 318.166962 133.640678 
L 314.556921 129.060552 
L 310.570872 124.659616 
L 306.224548 120.455243 
L 301.535105 116.46403 
L 296.521052 112.701733 
L 291.202182 109.183204 
L 285.599487 105.922331 
L 279.735082 102.931988 
L 273.632115 100.22398 
L 267.314673 97.808996 
L 260.807692 95.696569 
L 254.136854 93.89504 
L 247.32849 92.411521 
L 240.40947 91.251867 
L 233.407104 90.420658 
L 226.349029 89.921176 
L 219.263102 89.755395 
L 212.177289 89.92397 
L 205.119557 90.426238 
L 198.117759 91.260218 
L 191.199531 92.422622 
L 184.392175 93.908863 
L 177.722559 95.713079 
L 171.217004 97.828151 
L 164.901185 100.245736 
L 158.800028 102.956293 
L 152.937611 105.94913 
L 147.337071 109.212438 
L 142.02051 112.733342 
L 137.00891 116.497951 
L 132.322051 120.491411 
L 127.978428 124.697967 
L 123.995186 129.101023 
L 120.388043 133.683206 
L 117.171239 138.426439 
L 114.357468 143.312008 
L 111.957837 148.320637 
L 109.981819 153.432567 
L 108.437215 158.62763 
L 107.330124 163.88533 
L 106.664918 169.184923 
L 106.444227 174.505503 
L 106.668928 179.826078 
L 107.338138 185.125658 
L 108.449223 190.383336 
L 109.997804 195.578368 
L 111.977777 200.69026 
L 114.381337 205.698846 
L 117.199006 210.584365 
L 120.419673 215.327544 
L 124.030639 219.909671 
L 128.017663 224.31267 
L 132.365022 228.51917 
L 137.05557 232.512577 
L 142.070811 236.277138 
L 147.390964 239.798001 
L 152.995048 243.061277 
L 158.860961 246.054092 
L 164.96557 248.764641 
L 171.284798 251.182229 
L 177.793725 253.29732 
L 184.46668 255.10157 
L 191.277347 256.58786 
L 198.198866 257.750327 
L 205.203942 258.584384 
L 212.264948 259.08674 
L 219.354038 259.255412 
L 226.443256 259.089733 
L 233.504644 258.590354 
L 240.510357 257.759243 
L 247.432766 256.599675 
L 254.244574 255.116223 
L 260.918919 253.314733 
L 267.42948 251.202309 
L 273.750585 248.787279 
L 279.857306 246.079165 
L 285.725563 243.088645 
L 291.332216 239.827508 
L 296.655156 236.308614 
L 301.673393 232.545837 
L 306.36714 228.554012 
L 310.717887 224.348879 
L 314.708478 219.947017 
L 318.323179 215.365781 
L 321.547735 210.623236 
L 324.369432 205.738078 
L 326.777142 200.72957 
L 328.761371 195.617457 
L 330.314295 190.421896 
L 331.42979 185.163371 
L 332.103456 179.862614 
L 332.332636 174.540524 
" style="fill:none;stroke:#2ca02c;stroke-linecap:square;stroke-width:1.5;"/>
   </g>
   <g id="line2d_18">
    <path clip-path="url(#p714901bfa0)" d="M 398.242845 174.450079 
L 397.92031 166.859094 
L 396.95901 159.298119 
L 395.362739 151.796995 
L 393.137794 144.385325 
L 390.292954 137.092357 
L 386.839445 129.946875 
L 382.790895 122.977078 
L 378.163279 116.21047 
L 372.974858 109.673757 
L 367.246105 103.392735 
L 360.999628 97.392191 
L 354.260074 91.695806 
L 347.054038 86.326059 
L 339.409956 81.304143 
L 331.357991 76.649875 
L 322.929916 72.381622 
L 314.158988 68.51623 
L 305.079817 65.068952 
L 295.728228 62.053392 
L 286.141122 59.481452 
L 276.356329 57.363283 
L 266.412458 55.707243 
L 256.348745 54.519869 
L 246.2049 53.805848 
L 236.020948 53.568 
L 225.837073 53.807265 
L 215.693457 54.522702 
L 205.630124 55.711489 
L 195.686779 57.368939 
L 185.902657 59.488514 
L 176.31636 62.061855 
L 166.965714 65.078811 
L 157.88761 68.527481 
L 149.117868 72.394262 
L 140.691088 76.663901 
L 132.640519 81.319557 
L 124.997924 86.342865 
L 117.793457 91.714009 
L 111.055545 97.411803 
L 104.810771 103.413773 
L 99.083776 109.696242 
L 93.897156 116.23443 
L 89.271377 123.002547 
L 85.224691 129.973896 
L 81.773067 137.12098 
L 78.930127 144.415607 
L 76.70709 151.829003 
L 75.112731 159.331929 
L 74.153347 166.894788 
L 73.832727 174.487751 
L 74.152143 182.080868 
L 75.110342 189.644189 
L 76.70355 197.147881 
L 78.92549 204.562349 
L 81.767405 211.858346 
L 85.218091 219.007095 
L 89.263946 225.9804 
L 93.889016 232.750756 
L 99.075068 239.291459 
L 104.801651 245.576711 
L 111.046187 251.581722 
L 117.784053 257.282806 
L 124.988679 262.657478 
L 132.631658 267.684539 
L 140.682851 272.344162 
L 149.110511 276.617968 
L 157.881406 280.489102 
L 166.960952 283.942294 
L 176.313344 286.963926 
L 185.901707 289.542078 
L 195.688231 291.666582 
L 205.634328 293.329059 
L 215.700779 294.522949 
L 225.847891 295.243544 
L 236.035654 295.488 
L 246.223897 295.25535 
L 256.37245 294.54651 
L 266.441295 293.364273 
L 276.390734 291.713297 
L 286.181536 289.600092 
L 295.775097 287.032987 
L 305.133592 284.022102 
L 314.220122 280.579307 
L 322.99886 276.718173 
L 331.435195 272.453924 
L 339.495863 267.80337 
L 347.149084 262.784844 
L 354.364684 257.418133 
L 361.114213 251.724393 
L 367.371061 245.72607 
L 373.110558 239.446813 
L 378.310076 232.911376 
L 382.949115 226.145523 
L 387.009385 219.175929 
L 390.474877 212.030067 
L 393.331929 204.736111 
L 395.569274 197.322813 
L 397.178092 189.819399 
L 398.152038 182.25545 
L 398.487273 174.660782 
" style="fill:none;stroke:#d62728;stroke-linecap:square;stroke-width:1.5;"/>
   </g>
   <g id="patch_3">
    <path d="M 57.6 307.584 
L 57.6 41.472 
" style="fill:none;stroke:#000000;stroke-linecap:square;stroke-linejoin:miter;stroke-width:0.8;"/>
   </g>
   <g id="patch_4">
    <path d="M 414.72 307.584 
L 414.72 41.472 
" style="fill:none;stroke:#000000;stroke-linecap:square;stroke-linejoin:miter;stroke-width:0.8;"/>
   </g>
   <g id="patch_5">
    <path d="M 57.6 307.584 
L 414.72 307.584 
" style="fill:none;stroke:#000000;stroke-linecap:square;stroke-linejoin:miter;stroke-width:0.8;"/>
   </g>
   <g id="patch_6">
    <path d="M 57.6 41.472 
L 414.72 41.472 
" style="fill:none;stroke:#000000;stroke-linecap:square;stroke-linejoin:miter;stroke-width:0.8;"/>
   </g>
   <g id="text_19">
    <!-- Retarded interaction - Sun-Mercury -->
    <g transform="translate(130.635938 8.59725)scale(0.12 -0.12)">
     <defs>
      <path d="M 2841 2188 
Q 3044 2119 3236 1894 
Q 3428 1669 3622 1275 
L 4263 0 
L 3584 0 
L 2988 1197 
Q 2756 1666 2539 1819 
Q 2322 1972 1947 1972 
L 1259 1972 
L 1259 0 
L 628 0 
L 628 4666 
L 2053 4666 
Q 2853 4666 3247 4331 
Q 3641 3997 3641 3322 
Q 3641 2881 3436 2590 
Q 3231 2300 2841 2188 
z
M 1259 4147 
L 1259 2491 
L 2053 2491 
Q 2509 2491 2742 2702 
Q 2975 2913 2975 3322 
Q 2975 3731 2742 3939 
Q 2509 4147 2053 4147 
L 1259 4147 
z
" id="DejaVuSans-52" transform="scale(0.015625)"/>
      <path d="M 1172 4494 
L 1172 3500 
L 2356 3500 
L 2356 3053 
L 1172 3053 
L 1172 1153 
Q 1172 725 1289 603 
Q 1406 481 1766 481 
L 2356 481 
L 2356 0 
L 1766 0 
Q 1100 0 847 248 
Q 594 497 594 1153 
L 594 3053 
L 172 3053 
L 172 3500 
L 594 3500 
L 594 4494 
L 1172 4494 
z
" id="DejaVuSans-74" transform="scale(0.015625)"/>
      <path d="M 2194 1759 
Q 1497 1759 1228 1600 
Q 959 1441 959 1056 
Q 959 750 1161 570 
Q 1363 391 1709 391 
Q 2188 391 2477 730 
Q 2766 1069 2766 1631 
L 2766 1759 
L 2194 1759 
z
M 3341 1997 
L 3341 0 
L 2766 0 
L 2766 531 
Q 2569 213 2275 61 
Q 1981 -91 1556 -91 
Q 1019 -91 701 211 
Q 384 513 384 1019 
Q 384 1609 779 1909 
Q 1175 2209 1959 2209 
L 2766 2209 
L 2766 2266 
Q 2766 2663 2505 2880 
Q 2244 3097 1772 3097 
Q 1472 3097 1187 3025 
Q 903 2953 641 2809 
L 641 3341 
Q 956 3463 1253 3523 
Q 1550 3584 1831 3584 
Q 2591 3584 2966 3190 
Q 3341 2797 3341 1997 
z
" id="DejaVuSans-61" transform="scale(0.015625)"/>
      <path d="M 2906 2969 
L 2906 4863 
L 3481 4863 
L 3481 0 
L 2906 0 
L 2906 525 
Q 2725 213 2448 61 
Q 2172 -91 1784 -91 
Q 1150 -91 751 415 
Q 353 922 353 1747 
Q 353 2572 751 3078 
Q 1150 3584 1784 3584 
Q 2172 3584 2448 3432 
Q 2725 3281 2906 2969 
z
M 947 1747 
Q 947 1113 1208 752 
Q 1469 391 1925 391 
Q 2381 391 2643 752 
Q 2906 1113 2906 1747 
Q 2906 2381 2643 2742 
Q 2381 3103 1925 3103 
Q 1469 3103 1208 2742 
Q 947 2381 947 1747 
z
" id="DejaVuSans-64" transform="scale(0.015625)"/>
      <path id="DejaVuSans-20" transform="scale(0.015625)"/>
      <path d="M 603 3500 
L 1178 3500 
L 1178 0 
L 603 0 
L 603 3500 
z
M 603 4863 
L 1178 4863 
L 1178 4134 
L 603 4134 
L 603 4863 
z
" id="DejaVuSans-69" transform="scale(0.015625)"/>
      <path d="M 3513 2113 
L 3513 0 
L 2938 0 
L 2938 2094 
Q 2938 2591 2744 2837 
Q 2550 3084 2163 3084 
Q 1697 3084 1428 2787 
Q 1159 2491 1159 1978 
L 1159 0 
L 581 0 
L 581 3500 
L 1159 3500 
L 1159 2956 
Q 1366 3272 1645 3428 
Q 1925 3584 2291 3584 
Q 2894 3584 3203 3211 
Q 3513 2838 3513 2113 
z
" id="DejaVuSans-6e" transform="scale(0.015625)"/>
      <path d="M 3122 3366 
L 3122 2828 
Q 2878 2963 2633 3030 
Q 2388 3097 2138 3097 
Q 1578 3097 1268 2742 
Q 959 2388 959 1747 
Q 959 1106 1268 751 
Q 1578 397 2138 397 
Q 2388 397 2633 464 
Q 2878 531 3122 666 
L 3122 134 
Q 2881 22 2623 -34 
Q 2366 -91 2075 -91 
Q 1284 -91 818 406 
Q 353 903 353 1747 
Q 353 2603 823 3093 
Q 1294 3584 2113 3584 
Q 2378 3584 2631 3529 
Q 2884 3475 3122 3366 
z
" id="DejaVuSans-63" transform="scale(0.015625)"/>
      <path d="M 1959 3097 
Q 1497 3097 1228 2736 
Q 959 2375 959 1747 
Q 959 1119 1226 758 
Q 1494 397 1959 397 
Q 2419 397 2687 759 
Q 2956 1122 2956 1747 
Q 2956 2369 2687 2733 
Q 2419 3097 1959 3097 
z
M 1959 3584 
Q 2709 3584 3137 3096 
Q 3566 2609 3566 1747 
Q 3566 888 3137 398 
Q 2709 -91 1959 -91 
Q 1206 -91 779 398 
Q 353 888 353 1747 
Q 353 2609 779 3096 
Q 1206 3584 1959 3584 
z
" id="DejaVuSans-6f" transform="scale(0.015625)"/>
      <path d="M 313 2009 
L 1997 2009 
L 1997 1497 
L 313 1497 
L 313 2009 
z
" id="DejaVuSans-2d" transform="scale(0.015625)"/>
      <path d="M 3425 4513 
L 3425 3897 
Q 3066 4069 2747 4153 
Q 2428 4238 2131 4238 
Q 1616 4238 1336 4038 
Q 1056 3838 1056 3469 
Q 1056 3159 1242 3001 
Q 1428 2844 1947 2747 
L 2328 2669 
Q 3034 2534 3370 2195 
Q 3706 1856 3706 1288 
Q 3706 609 3251 259 
Q 2797 -91 1919 -91 
Q 1588 -91 1214 -16 
Q 841 59 441 206 
L 441 856 
Q 825 641 1194 531 
Q 1563 422 1919 422 
Q 2459 422 2753 634 
Q 3047 847 3047 1241 
Q 3047 1584 2836 1778 
Q 2625 1972 2144 2069 
L 1759 2144 
Q 1053 2284 737 2584 
Q 422 2884 422 3419 
Q 422 4038 858 4394 
Q 1294 4750 2059 4750 
Q 2388 4750 2728 4690 
Q 3069 4631 3425 4513 
z
" id="DejaVuSans-53" transform="scale(0.015625)"/>
      <path d="M 544 1381 
L 544 3500 
L 1119 3500 
L 1119 1403 
Q 1119 906 1312 657 
Q 1506 409 1894 409 
Q 2359 409 2629 706 
Q 2900 1003 2900 1516 
L 2900 3500 
L 3475 3500 
L 3475 0 
L 2900 0 
L 2900 538 
Q 2691 219 2414 64 
Q 2138 -91 1772 -91 
Q 1169 -91 856 284 
Q 544 659 544 1381 
z
M 1991 3584 
L 1991 3584 
z
" id="DejaVuSans-75" transform="scale(0.015625)"/>
      <path d="M 628 4666 
L 1569 4666 
L 2759 1491 
L 3956 4666 
L 4897 4666 
L 4897 0 
L 4281 0 
L 4281 4097 
L 3078 897 
L 2444 897 
L 1241 4097 
L 1241 0 
L 628 0 
L 628 4666 
z
" id="DejaVuSans-4d" transform="scale(0.015625)"/>
     </defs>
     <use xlink:href="#DejaVuSans-52"/>
     <use x="64.982422" xlink:href="#DejaVuSans-65"/>
     <use x="126.505859" xlink:href="#DejaVuSans-74"/>
     <use x="165.714844" xlink:href="#DejaVuSans-61"/>
     <use x="226.994141" xlink:href="#DejaVuSans-72"/>
     <use x="266.357422" xlink:href="#DejaVuSans-64"/>
     <use x="329.833984" xlink:href="#DejaVuSans-65"/>
     <use x="391.357422" xlink:href="#DejaVuSans-64"/>
     <use x="454.833984" xlink:href="#DejaVuSans-20"/>
     <use x="486.621094" xlink:href="#DejaVuSans-69"/>
     <use x="514.404297" xlink:href="#DejaVuSans-6e"/>
     <use x="577.783203" xlink:href="#DejaVuSans-74"/>
     <use x="616.992188" xlink:href="#DejaVuSans-65"/>
     <use x="678.515625" xlink:href="#DejaVuSans-72"/>
     <use x="719.628906" xlink:href="#DejaVuSans-61"/>
     <use x="780.908203" xlink:href="#DejaVuSans-63"/>
     <use x="835.888672" xlink:href="#DejaVuSans-74"/>
     <use x="875.097656" xlink:href="#DejaVuSans-69"/>
     <use x="902.880859" xlink:href="#DejaVuSans-6f"/>
     <use x="964.0625" xlink:href="#DejaVuSans-6e"/>
     <use x="1027.441406" xlink:href="#DejaVuSans-20"/>
     <use x="1059.228516" xlink:href="#DejaVuSans-2d"/>
     <use x="1095.3125" xlink:href="#DejaVuSans-20"/>
     <use x="1127.099609" xlink:href="#DejaVuSans-53"/>
     <use x="1190.576172" xlink:href="#DejaVuSans-75"/>
     <use x="1253.955078" xlink:href="#DejaVuSans-6e"/>
     <use x="1317.333984" xlink:href="#DejaVuSans-2d"/>
     <use x="1353.417969" xlink:href="#DejaVuSans-4d"/>
     <use x="1439.697266" xlink:href="#DejaVuSans-65"/>
     <use x="1501.220703" xlink:href="#DejaVuSans-72"/>
     <use x="1540.083984" xlink:href="#DejaVuSans-63"/>
     <use x="1595.064453" xlink:href="#DejaVuSans-75"/>
     <use x="1658.443359" xlink:href="#DejaVuSans-72"/>
     <use x="1699.556641" xlink:href="#DejaVuSans-79"/>
    </g>
    <!-- Changes of orbit after many orbital period -->
    <g transform="translate(109.377188 22.034625)scale(0.12 -0.12)">
     <defs>
      <path d="M 4122 4306 
L 4122 3641 
Q 3803 3938 3442 4084 
Q 3081 4231 2675 4231 
Q 1875 4231 1450 3742 
Q 1025 3253 1025 2328 
Q 1025 1406 1450 917 
Q 1875 428 2675 428 
Q 3081 428 3442 575 
Q 3803 722 4122 1019 
L 4122 359 
Q 3791 134 3420 21 
Q 3050 -91 2638 -91 
Q 1578 -91 968 557 
Q 359 1206 359 2328 
Q 359 3453 968 4101 
Q 1578 4750 2638 4750 
Q 3056 4750 3426 4639 
Q 3797 4528 4122 4306 
z
" id="DejaVuSans-43" transform="scale(0.015625)"/>
      <path d="M 3513 2113 
L 3513 0 
L 2938 0 
L 2938 2094 
Q 2938 2591 2744 2837 
Q 2550 3084 2163 3084 
Q 1697 3084 1428 2787 
Q 1159 2491 1159 1978 
L 1159 0 
L 581 0 
L 581 4863 
L 1159 4863 
L 1159 2956 
Q 1366 3272 1645 3428 
Q 1925 3584 2291 3584 
Q 2894 3584 3203 3211 
Q 3513 2838 3513 2113 
z
" id="DejaVuSans-68" transform="scale(0.015625)"/>
      <path d="M 2906 1791 
Q 2906 2416 2648 2759 
Q 2391 3103 1925 3103 
Q 1463 3103 1205 2759 
Q 947 2416 947 1791 
Q 947 1169 1205 825 
Q 1463 481 1925 481 
Q 2391 481 2648 825 
Q 2906 1169 2906 1791 
z
M 3481 434 
Q 3481 -459 3084 -895 
Q 2688 -1331 1869 -1331 
Q 1566 -1331 1297 -1286 
Q 1028 -1241 775 -1147 
L 775 -588 
Q 1028 -725 1275 -790 
Q 1522 -856 1778 -856 
Q 2344 -856 2625 -561 
Q 2906 -266 2906 331 
L 2906 616 
Q 2728 306 2450 153 
Q 2172 0 1784 0 
Q 1141 0 747 490 
Q 353 981 353 1791 
Q 353 2603 747 3093 
Q 1141 3584 1784 3584 
Q 2172 3584 2450 3431 
Q 2728 3278 2906 2969 
L 2906 3500 
L 3481 3500 
L 3481 434 
z
" id="DejaVuSans-67" transform="scale(0.015625)"/>
      <path d="M 2834 3397 
L 2834 2853 
Q 2591 2978 2328 3040 
Q 2066 3103 1784 3103 
Q 1356 3103 1142 2972 
Q 928 2841 928 2578 
Q 928 2378 1081 2264 
Q 1234 2150 1697 2047 
L 1894 2003 
Q 2506 1872 2764 1633 
Q 3022 1394 3022 966 
Q 3022 478 2636 193 
Q 2250 -91 1575 -91 
Q 1294 -91 989 -36 
Q 684 19 347 128 
L 347 722 
Q 666 556 975 473 
Q 1284 391 1588 391 
Q 1994 391 2212 530 
Q 2431 669 2431 922 
Q 2431 1156 2273 1281 
Q 2116 1406 1581 1522 
L 1381 1569 
Q 847 1681 609 1914 
Q 372 2147 372 2553 
Q 372 3047 722 3315 
Q 1072 3584 1716 3584 
Q 2034 3584 2315 3537 
Q 2597 3491 2834 3397 
z
" id="DejaVuSans-73" transform="scale(0.015625)"/>
      <path d="M 2375 4863 
L 2375 4384 
L 1825 4384 
Q 1516 4384 1395 4259 
Q 1275 4134 1275 3809 
L 1275 3500 
L 2222 3500 
L 2222 3053 
L 1275 3053 
L 1275 0 
L 697 0 
L 697 3053 
L 147 3053 
L 147 3500 
L 697 3500 
L 697 3744 
Q 697 4328 969 4595 
Q 1241 4863 1831 4863 
L 2375 4863 
z
" id="DejaVuSans-66" transform="scale(0.015625)"/>
      <path d="M 3116 1747 
Q 3116 2381 2855 2742 
Q 2594 3103 2138 3103 
Q 1681 3103 1420 2742 
Q 1159 2381 1159 1747 
Q 1159 1113 1420 752 
Q 1681 391 2138 391 
Q 2594 391 2855 752 
Q 3116 1113 3116 1747 
z
M 1159 2969 
Q 1341 3281 1617 3432 
Q 1894 3584 2278 3584 
Q 2916 3584 3314 3078 
Q 3713 2572 3713 1747 
Q 3713 922 3314 415 
Q 2916 -91 2278 -91 
Q 1894 -91 1617 61 
Q 1341 213 1159 525 
L 1159 0 
L 581 0 
L 581 4863 
L 1159 4863 
L 1159 2969 
z
" id="DejaVuSans-62" transform="scale(0.015625)"/>
      <path d="M 3328 2828 
Q 3544 3216 3844 3400 
Q 4144 3584 4550 3584 
Q 5097 3584 5394 3201 
Q 5691 2819 5691 2113 
L 5691 0 
L 5113 0 
L 5113 2094 
Q 5113 2597 4934 2840 
Q 4756 3084 4391 3084 
Q 3944 3084 3684 2787 
Q 3425 2491 3425 1978 
L 3425 0 
L 2847 0 
L 2847 2094 
Q 2847 2600 2669 2842 
Q 2491 3084 2119 3084 
Q 1678 3084 1418 2786 
Q 1159 2488 1159 1978 
L 1159 0 
L 581 0 
L 581 3500 
L 1159 3500 
L 1159 2956 
Q 1356 3278 1631 3431 
Q 1906 3584 2284 3584 
Q 2666 3584 2933 3390 
Q 3200 3197 3328 2828 
z
" id="DejaVuSans-6d" transform="scale(0.015625)"/>
      <path d="M 603 4863 
L 1178 4863 
L 1178 0 
L 603 0 
L 603 4863 
z
" id="DejaVuSans-6c" transform="scale(0.015625)"/>
      <path d="M 1159 525 
L 1159 -1331 
L 581 -1331 
L 581 3500 
L 1159 3500 
L 1159 2969 
Q 1341 3281 1617 3432 
Q 1894 3584 2278 3584 
Q 2916 3584 3314 3078 
Q 3713 2572 3713 1747 
Q 3713 922 3314 415 
Q 2916 -91 2278 -91 
Q 1894 -91 1617 61 
Q 1341 213 1159 525 
z
M 3116 1747 
Q 3116 2381 2855 2742 
Q 2594 3103 2138 3103 
Q 1681 3103 1420 2742 
Q 1159 2381 1159 1747 
Q 1159 1113 1420 752 
Q 1681 391 2138 391 
Q 2594 391 2855 752 
Q 3116 1113 3116 1747 
z
" id="DejaVuSans-70" transform="scale(0.015625)"/>
     </defs>
     <use xlink:href="#DejaVuSans-43"/>
     <use x="69.824219" xlink:href="#DejaVuSans-68"/>
     <use x="133.203125" xlink:href="#DejaVuSans-61"/>
     <use x="194.482422" xlink:href="#DejaVuSans-6e"/>
     <use x="257.861328" xlink:href="#DejaVuSans-67"/>
     <use x="321.337891" xlink:href="#DejaVuSans-65"/>
     <use x="382.861328" xlink:href="#DejaVuSans-73"/>
     <use x="434.960938" xlink:href="#DejaVuSans-20"/>
     <use x="466.748047" xlink:href="#DejaVuSans-6f"/>
     <use x="527.929688" xlink:href="#DejaVuSans-66"/>
     <use x="563.134766" xlink:href="#DejaVuSans-20"/>
     <use x="594.921875" xlink:href="#DejaVuSans-6f"/>
     <use x="656.103516" xlink:href="#DejaVuSans-72"/>
     <use x="697.216797" xlink:href="#DejaVuSans-62"/>
     <use x="760.693359" xlink:href="#DejaVuSans-69"/>
     <use x="788.476562" xlink:href="#DejaVuSans-74"/>
     <use x="827.685547" xlink:href="#DejaVuSans-20"/>
     <use x="859.472656" xlink:href="#DejaVuSans-61"/>
     <use x="920.751953" xlink:href="#DejaVuSans-66"/>
     <use x="954.207031" xlink:href="#DejaVuSans-74"/>
     <use x="993.416016" xlink:href="#DejaVuSans-65"/>
     <use x="1054.939453" xlink:href="#DejaVuSans-72"/>
     <use x="1096.052734" xlink:href="#DejaVuSans-20"/>
     <use x="1127.839844" xlink:href="#DejaVuSans-6d"/>
     <use x="1225.251953" xlink:href="#DejaVuSans-61"/>
     <use x="1286.53125" xlink:href="#DejaVuSans-6e"/>
     <use x="1349.910156" xlink:href="#DejaVuSans-79"/>
     <use x="1409.089844" xlink:href="#DejaVuSans-20"/>
     <use x="1440.876953" xlink:href="#DejaVuSans-6f"/>
     <use x="1502.058594" xlink:href="#DejaVuSans-72"/>
     <use x="1543.171875" xlink:href="#DejaVuSans-62"/>
     <use x="1606.648438" xlink:href="#DejaVuSans-69"/>
     <use x="1634.431641" xlink:href="#DejaVuSans-74"/>
     <use x="1673.640625" xlink:href="#DejaVuSans-61"/>
     <use x="1734.919922" xlink:href="#DejaVuSans-6c"/>
     <use x="1762.703125" xlink:href="#DejaVuSans-20"/>
     <use x="1794.490234" xlink:href="#DejaVuSans-70"/>
     <use x="1857.966797" xlink:href="#DejaVuSans-65"/>
     <use x="1919.490234" xlink:href="#DejaVuSans-72"/>
     <use x="1960.603516" xlink:href="#DejaVuSans-69"/>
     <use x="1988.386719" xlink:href="#DejaVuSans-6f"/>
     <use x="2049.568359" xlink:href="#DejaVuSans-64"/>
    </g>
    <!-- u[0] = 1.296e-04  r%[0] = 4.728e+07 -->
    <g transform="translate(121.494375 35.472)scale(0.12 -0.12)">
     <defs>
      <path d="M 550 4863 
L 1875 4863 
L 1875 4416 
L 1125 4416 
L 1125 -397 
L 1875 -397 
L 1875 -844 
L 550 -844 
L 550 4863 
z
" id="DejaVuSans-5b" transform="scale(0.015625)"/>
      <path d="M 1947 4863 
L 1947 -844 
L 622 -844 
L 622 -397 
L 1369 -397 
L 1369 4416 
L 622 4416 
L 622 4863 
L 1947 4863 
z
" id="DejaVuSans-5d" transform="scale(0.015625)"/>
      <path d="M 678 2906 
L 4684 2906 
L 4684 2381 
L 678 2381 
L 678 2906 
z
M 678 1631 
L 4684 1631 
L 4684 1100 
L 678 1100 
L 678 1631 
z
" id="DejaVuSans-3d" transform="scale(0.015625)"/>
      <path d="M 703 97 
L 703 672 
Q 941 559 1184 500 
Q 1428 441 1663 441 
Q 2288 441 2617 861 
Q 2947 1281 2994 2138 
Q 2813 1869 2534 1725 
Q 2256 1581 1919 1581 
Q 1219 1581 811 2004 
Q 403 2428 403 3163 
Q 403 3881 828 4315 
Q 1253 4750 1959 4750 
Q 2769 4750 3195 4129 
Q 3622 3509 3622 2328 
Q 3622 1225 3098 567 
Q 2575 -91 1691 -91 
Q 1453 -91 1209 -44 
Q 966 3 703 97 
z
M 1959 2075 
Q 2384 2075 2632 2365 
Q 2881 2656 2881 3163 
Q 2881 3666 2632 3958 
Q 2384 4250 1959 4250 
Q 1534 4250 1286 3958 
Q 1038 3666 1038 3163 
Q 1038 2656 1286 2365 
Q 1534 2075 1959 2075 
z
" id="DejaVuSans-39" transform="scale(0.015625)"/>
      <path d="M 2113 2584 
Q 1688 2584 1439 2293 
Q 1191 2003 1191 1497 
Q 1191 994 1439 701 
Q 1688 409 2113 409 
Q 2538 409 2786 701 
Q 3034 994 3034 1497 
Q 3034 2003 2786 2293 
Q 2538 2584 2113 2584 
z
M 3366 4563 
L 3366 3988 
Q 3128 4100 2886 4159 
Q 2644 4219 2406 4219 
Q 1781 4219 1451 3797 
Q 1122 3375 1075 2522 
Q 1259 2794 1537 2939 
Q 1816 3084 2150 3084 
Q 2853 3084 3261 2657 
Q 3669 2231 3669 1497 
Q 3669 778 3244 343 
Q 2819 -91 2113 -91 
Q 1303 -91 875 529 
Q 447 1150 447 2328 
Q 447 3434 972 4092 
Q 1497 4750 2381 4750 
Q 2619 4750 2861 4703 
Q 3103 4656 3366 4563 
z
" id="DejaVuSans-36" transform="scale(0.015625)"/>
      <path d="M 2419 4116 
L 825 1625 
L 2419 1625 
L 2419 4116 
z
M 2253 4666 
L 3047 4666 
L 3047 1625 
L 3713 1625 
L 3713 1100 
L 3047 1100 
L 3047 0 
L 2419 0 
L 2419 1100 
L 313 1100 
L 313 1709 
L 2253 4666 
z
" id="DejaVuSans-34" transform="scale(0.015625)"/>
      <path d="M 525 4666 
L 3525 4666 
L 3525 4397 
L 1831 0 
L 1172 0 
L 2766 4134 
L 525 4134 
L 525 4666 
z
" id="DejaVuSans-37" transform="scale(0.015625)"/>
      <path d="M 2944 4013 
L 2944 2272 
L 4684 2272 
L 4684 1741 
L 2944 1741 
L 2944 0 
L 2419 0 
L 2419 1741 
L 678 1741 
L 678 2272 
L 2419 2272 
L 2419 4013 
L 2944 4013 
z
" id="DejaVuSans-2b" transform="scale(0.015625)"/>
     </defs>
     <use xlink:href="#DejaVuSans-75"/>
     <use x="63.378906" xlink:href="#DejaVuSans-5b"/>
     <use x="102.392578" xlink:href="#DejaVuSans-30"/>
     <use x="166.015625" xlink:href="#DejaVuSans-5d"/>
     <use x="205.029297" xlink:href="#DejaVuSans-20"/>
     <use x="236.816406" xlink:href="#DejaVuSans-3d"/>
     <use x="320.605469" xlink:href="#DejaVuSans-20"/>
     <use x="352.392578" xlink:href="#DejaVuSans-31"/>
     <use x="416.015625" xlink:href="#DejaVuSans-2e"/>
     <use x="447.802734" xlink:href="#DejaVuSans-32"/>
     <use x="511.425781" xlink:href="#DejaVuSans-39"/>
     <use x="575.048828" xlink:href="#DejaVuSans-36"/>
     <use x="638.671875" xlink:href="#DejaVuSans-65"/>
     <use x="700.195312" xlink:href="#DejaVuSans-2d"/>
     <use x="736.279297" xlink:href="#DejaVuSans-30"/>
     <use x="799.902344" xlink:href="#DejaVuSans-34"/>
     <use x="863.525391" xlink:href="#DejaVuSans-20"/>
     <use x="895.3125" xlink:href="#DejaVuSans-20"/>
     <use x="927.099609" xlink:href="#DejaVuSans-72"/>
     <use x="968.212891" xlink:href="#DejaVuSans-25"/>
     <use x="1063.232422" xlink:href="#DejaVuSans-5b"/>
     <use x="1102.246094" xlink:href="#DejaVuSans-30"/>
     <use x="1165.869141" xlink:href="#DejaVuSans-5d"/>
     <use x="1204.882812" xlink:href="#DejaVuSans-20"/>
     <use x="1236.669922" xlink:href="#DejaVuSans-3d"/>
     <use x="1320.458984" xlink:href="#DejaVuSans-20"/>
     <use x="1352.246094" xlink:href="#DejaVuSans-34"/>
     <use x="1415.869141" xlink:href="#DejaVuSans-2e"/>
     <use x="1447.65625" xlink:href="#DejaVuSans-37"/>
     <use x="1511.279297" xlink:href="#DejaVuSans-32"/>
     <use x="1574.902344" xlink:href="#DejaVuSans-38"/>
     <use x="1638.525391" xlink:href="#DejaVuSans-65"/>
     <use x="1700.048828" xlink:href="#DejaVuSans-2b"/>
     <use x="1783.837891" xlink:href="#DejaVuSans-30"/>
     <use x="1847.460938" xlink:href="#DejaVuSans-37"/>
    </g>
   </g>
   <g id="legend_1">
    <g id="patch_7">
     <path d="M 239.827812 123.14075 
L 407.72 123.14075 
Q 409.72 123.14075 409.72 121.14075 
L 409.72 48.472 
Q 409.72 46.472 407.72 46.472 
L 239.827812 46.472 
Q 237.827812 46.472 237.827812 48.472 
L 237.827812 121.14075 
Q 237.827812 123.14075 239.827812 123.14075 
z
" style="fill:#ffffff;opacity:0.8;stroke:#cccccc;stroke-linejoin:miter;"/>
    </g>
    <g id="text_20">
     <!-- period, r_max / r[0], u_min / u[0] -->
     <g transform="translate(241.827812 58.070437)scale(0.1 -0.1)">
      <defs>
       <path d="M 750 794 
L 1409 794 
L 1409 256 
L 897 -744 
L 494 -744 
L 750 256 
L 750 794 
z
" id="DejaVuSans-2c" transform="scale(0.015625)"/>
       <path d="M 1625 4666 
L 2156 4666 
L 531 -594 
L 0 -594 
L 1625 4666 
z
" id="DejaVuSans-2f" transform="scale(0.015625)"/>
      </defs>
      <use xlink:href="#DejaVuSans-70"/>
      <use x="63.476562" xlink:href="#DejaVuSans-65"/>
      <use x="125" xlink:href="#DejaVuSans-72"/>
      <use x="166.113281" xlink:href="#DejaVuSans-69"/>
      <use x="193.896484" xlink:href="#DejaVuSans-6f"/>
      <use x="255.078125" xlink:href="#DejaVuSans-64"/>
      <use x="318.554688" xlink:href="#DejaVuSans-2c"/>
      <use x="350.341797" xlink:href="#DejaVuSans-20"/>
      <use x="382.128906" xlink:href="#DejaVuSans-72"/>
      <use x="423.242188" xlink:href="#DejaVuSans-5f"/>
      <use x="473.242188" xlink:href="#DejaVuSans-6d"/>
      <use x="570.654297" xlink:href="#DejaVuSans-61"/>
      <use x="631.933594" xlink:href="#DejaVuSans-78"/>
      <use x="691.113281" xlink:href="#DejaVuSans-20"/>
      <use x="722.900391" xlink:href="#DejaVuSans-2f"/>
      <use x="756.591797" xlink:href="#DejaVuSans-20"/>
      <use x="788.378906" xlink:href="#DejaVuSans-72"/>
      <use x="829.492188" xlink:href="#DejaVuSans-5b"/>
      <use x="868.505859" xlink:href="#DejaVuSans-30"/>
      <use x="932.128906" xlink:href="#DejaVuSans-5d"/>
      <use x="971.142578" xlink:href="#DejaVuSans-2c"/>
      <use x="1002.929688" xlink:href="#DejaVuSans-20"/>
      <use x="1034.716797" xlink:href="#DejaVuSans-75"/>
      <use x="1098.095703" xlink:href="#DejaVuSans-5f"/>
      <use x="1148.095703" xlink:href="#DejaVuSans-6d"/>
      <use x="1245.507812" xlink:href="#DejaVuSans-69"/>
      <use x="1273.291016" xlink:href="#DejaVuSans-6e"/>
      <use x="1336.669922" xlink:href="#DejaVuSans-20"/>
      <use x="1368.457031" xlink:href="#DejaVuSans-2f"/>
      <use x="1402.148438" xlink:href="#DejaVuSans-20"/>
      <use x="1433.935547" xlink:href="#DejaVuSans-75"/>
      <use x="1497.314453" xlink:href="#DejaVuSans-5b"/>
      <use x="1536.328125" xlink:href="#DejaVuSans-30"/>
      <use x="1599.951172" xlink:href="#DejaVuSans-5d"/>
     </g>
    </g>
    <g id="line2d_19">
     <path d="M 265.245781 69.526687 
L 285.245781 69.526687 
" style="fill:none;stroke:#1f77b4;stroke-linecap:square;stroke-width:1.5;"/>
    </g>
    <g id="line2d_20"/>
    <g id="text_21">
     <!-- 1, 1.002, 0.999 -->
     <g transform="translate(293.245781 73.026687)scale(0.1 -0.1)">
      <use xlink:href="#DejaVuSans-31"/>
      <use x="63.623047" xlink:href="#DejaVuSans-2c"/>
      <use x="95.410156" xlink:href="#DejaVuSans-20"/>
      <use x="127.197266" xlink:href="#DejaVuSans-31"/>
      <use x="190.820312" xlink:href="#DejaVuSans-2e"/>
      <use x="222.607422" xlink:href="#DejaVuSans-30"/>
      <use x="286.230469" xlink:href="#DejaVuSans-30"/>
      <use x="349.853516" xlink:href="#DejaVuSans-32"/>
      <use x="413.476562" xlink:href="#DejaVuSans-2c"/>
      <use x="445.263672" xlink:href="#DejaVuSans-20"/>
      <use x="477.050781" xlink:href="#DejaVuSans-30"/>
      <use x="540.673828" xlink:href="#DejaVuSans-2e"/>
      <use x="572.460938" xlink:href="#DejaVuSans-39"/>
      <use x="636.083984" xlink:href="#DejaVuSans-39"/>
      <use x="699.707031" xlink:href="#DejaVuSans-39"/>
     </g>
    </g>
    <g id="line2d_21">
     <path d="M 265.245781 84.204813 
L 285.245781 84.204813 
" style="fill:none;stroke:#ff7f0e;stroke-linecap:square;stroke-width:1.5;"/>
    </g>
    <g id="line2d_22"/>
    <g id="text_22">
     <!-- 300, 1.776, 0.736 -->
     <g transform="translate(293.245781 87.704813)scale(0.1 -0.1)">
      <defs>
       <path d="M 2597 2516 
Q 3050 2419 3304 2112 
Q 3559 1806 3559 1356 
Q 3559 666 3084 287 
Q 2609 -91 1734 -91 
Q 1441 -91 1130 -33 
Q 819 25 488 141 
L 488 750 
Q 750 597 1062 519 
Q 1375 441 1716 441 
Q 2309 441 2620 675 
Q 2931 909 2931 1356 
Q 2931 1769 2642 2001 
Q 2353 2234 1838 2234 
L 1294 2234 
L 1294 2753 
L 1863 2753 
Q 2328 2753 2575 2939 
Q 2822 3125 2822 3475 
Q 2822 3834 2567 4026 
Q 2313 4219 1838 4219 
Q 1578 4219 1281 4162 
Q 984 4106 628 3988 
L 628 4550 
Q 988 4650 1302 4700 
Q 1616 4750 1894 4750 
Q 2613 4750 3031 4423 
Q 3450 4097 3450 3541 
Q 3450 3153 3228 2886 
Q 3006 2619 2597 2516 
z
" id="DejaVuSans-33" transform="scale(0.015625)"/>
      </defs>
      <use xlink:href="#DejaVuSans-33"/>
      <use x="63.623047" xlink:href="#DejaVuSans-30"/>
      <use x="127.246094" xlink:href="#DejaVuSans-30"/>
      <use x="190.869141" xlink:href="#DejaVuSans-2c"/>
      <use x="222.65625" xlink:href="#DejaVuSans-20"/>
      <use x="254.443359" xlink:href="#DejaVuSans-31"/>
      <use x="318.066406" xlink:href="#DejaVuSans-2e"/>
      <use x="349.853516" xlink:href="#DejaVuSans-37"/>
      <use x="413.476562" xlink:href="#DejaVuSans-37"/>
      <use x="477.099609" xlink:href="#DejaVuSans-36"/>
      <use x="540.722656" xlink:href="#DejaVuSans-2c"/>
      <use x="572.509766" xlink:href="#DejaVuSans-20"/>
      <use x="604.296875" xlink:href="#DejaVuSans-30"/>
      <use x="667.919922" xlink:href="#DejaVuSans-2e"/>
      <use x="699.707031" xlink:href="#DejaVuSans-37"/>
      <use x="763.330078" xlink:href="#DejaVuSans-33"/>
      <use x="826.953125" xlink:href="#DejaVuSans-36"/>
     </g>
    </g>
    <g id="line2d_23">
     <path d="M 265.245781 98.882937 
L 285.245781 98.882937 
" style="fill:none;stroke:#2ca02c;stroke-linecap:square;stroke-width:1.5;"/>
    </g>
    <g id="line2d_24"/>
    <g id="text_23">
     <!-- 600, 2.805, 0.576 -->
     <g transform="translate(293.245781 102.382937)scale(0.1 -0.1)">
      <use xlink:href="#DejaVuSans-36"/>
      <use x="63.623047" xlink:href="#DejaVuSans-30"/>
      <use x="127.246094" xlink:href="#DejaVuSans-30"/>
      <use x="190.869141" xlink:href="#DejaVuSans-2c"/>
      <use x="222.65625" xlink:href="#DejaVuSans-20"/>
      <use x="254.443359" xlink:href="#DejaVuSans-32"/>
      <use x="318.066406" xlink:href="#DejaVuSans-2e"/>
      <use x="349.853516" xlink:href="#DejaVuSans-38"/>
      <use x="413.476562" xlink:href="#DejaVuSans-30"/>
      <use x="477.099609" xlink:href="#DejaVuSans-35"/>
      <use x="540.722656" xlink:href="#DejaVuSans-2c"/>
      <use x="572.509766" xlink:href="#DejaVuSans-20"/>
      <use x="604.296875" xlink:href="#DejaVuSans-30"/>
      <use x="667.919922" xlink:href="#DejaVuSans-2e"/>
      <use x="699.707031" xlink:href="#DejaVuSans-35"/>
      <use x="763.330078" xlink:href="#DejaVuSans-37"/>
      <use x="826.953125" xlink:href="#DejaVuSans-36"/>
     </g>
    </g>
    <g id="line2d_25">
     <path d="M 265.245781 113.561062 
L 285.245781 113.561062 
" style="fill:none;stroke:#d62728;stroke-linecap:square;stroke-width:1.5;"/>
    </g>
    <g id="line2d_26"/>
    <g id="text_24">
     <!-- 900, 4.108, 0.468 -->
     <g transform="translate(293.245781 117.061062)scale(0.1 -0.1)">
      <use xlink:href="#DejaVuSans-39"/>
      <use x="63.623047" xlink:href="#DejaVuSans-30"/>
      <use x="127.246094" xlink:href="#DejaVuSans-30"/>
      <use x="190.869141" xlink:href="#DejaVuSans-2c"/>
      <use x="222.65625" xlink:href="#DejaVuSans-20"/>
      <use x="254.443359" xlink:href="#DejaVuSans-34"/>
      <use x="318.066406" xlink:href="#DejaVuSans-2e"/>
      <use x="349.853516" xlink:href="#DejaVuSans-31"/>
      <use x="413.476562" xlink:href="#DejaVuSans-30"/>
      <use x="477.099609" xlink:href="#DejaVuSans-38"/>
      <use x="540.722656" xlink:href="#DejaVuSans-2c"/>
      <use x="572.509766" xlink:href="#DejaVuSans-20"/>
      <use x="604.296875" xlink:href="#DejaVuSans-30"/>
      <use x="667.919922" xlink:href="#DejaVuSans-2e"/>
      <use x="699.707031" xlink:href="#DejaVuSans-34"/>
      <use x="763.330078" xlink:href="#DejaVuSans-36"/>
      <use x="826.953125" xlink:href="#DejaVuSans-38"/>
     </g>
    </g>
   </g>
  </g>
 </g>
 <defs>
  <clipPath id="p714901bfa0">
   <rect height="266.112" width="357.12" x="57.6" y="41.472"/>
  </clipPath>
 </defs>
</svg>
