<?xml version="1.0" encoding="utf-8" standalone="no"?>
<!DOCTYPE svg PUBLIC "-//W3C//DTD SVG 1.1//EN"
  "http://www.w3.org/Graphics/SVG/1.1/DTD/svg11.dtd">
<svg xmlns:xlink="http://www.w3.org/1999/xlink" width="460.8pt" height="345.6pt" viewBox="0 0 460.8 345.6" xmlns="http://www.w3.org/2000/svg" version="1.1">
 <metadata>
  <rdf:RDF xmlns:dc="http://purl.org/dc/elements/1.1/" xmlns:cc="http://creativecommons.org/ns#" xmlns:rdf="http://www.w3.org/1999/02/22-rdf-syntax-ns#">
   <cc:Work>
    <dc:type rdf:resource="http://purl.org/dc/dcmitype/StillImage"/>
    <dc:date>2022-11-06T01:46:38.030344</dc:date>
    <dc:format>image/svg+xml</dc:format>
    <dc:creator>
     <cc:Agent>
      <dc:title>Matplotlib v3.6.2, https://matplotlib.org/</dc:title>
     </cc:Agent>
    </dc:creator>
   </cc:Work>
  </rdf:RDF>
 </metadata>
 <defs>
  <style type="text/css">*{stroke-linejoin: round; stroke-linecap: butt}</style>
 </defs>
 <g id="figure_1">
  <g id="patch_1">
   <path d="M 0 345.6 
L 460.8 345.6 
L 460.8 0 
L 0 0 
z
" style="fill: #ffffff"/>
  </g>
  <g id="axes_1">
   <g id="patch_2">
    <path d="M 57.6 307.584 
L 414.72 307.584 
L 414.72 41.472 
L 57.6 41.472 
z
" style="fill: #ffffff"/>
   </g>
   <g id="matplotlib.axis_1">
    <g id="xtick_1">
     <g id="line2d_1">
      <defs>
       <path id="m560da5e81a" d="M 0 0 
L 0 3.5 
" style="stroke: #000000; stroke-width: 0.8"/>
      </defs>
      <g>
       <use xlink:href="#m560da5e81a" x="79.203699" y="307.584" style="stroke: #000000; stroke-width: 0.8"/>
      </g>
     </g>
     <g id="text_1">
      <!-- −3 -->
      <g transform="translate(71.832605 322.182437) scale(0.1 -0.1)">
       <defs>
        <path id="DejaVuSans-2212" d="M 678 2272 
L 4684 2272 
L 4684 1741 
L 678 1741 
L 678 2272 
z
" transform="scale(0.015625)"/>
        <path id="DejaVuSans-33" d="M 2597 2516 
Q 3050 2419 3304 2112 
Q 3559 1806 3559 1356 
Q 3559 666 3084 287 
Q 2609 -91 1734 -91 
Q 1441 -91 1130 -33 
Q 819 25 488 141 
L 488 750 
Q 750 597 1062 519 
Q 1375 441 1716 441 
Q 2309 441 2620 675 
Q 2931 909 2931 1356 
Q 2931 1769 2642 2001 
Q 2353 2234 1838 2234 
L 1294 2234 
L 1294 2753 
L 1863 2753 
Q 2328 2753 2575 2939 
Q 2822 3125 2822 3475 
Q 2822 3834 2567 4026 
Q 2313 4219 1838 4219 
Q 1578 4219 1281 4162 
Q 984 4106 628 3988 
L 628 4550 
Q 988 4650 1302 4700 
Q 1616 4750 1894 4750 
Q 2613 4750 3031 4423 
Q 3450 4097 3450 3541 
Q 3450 3153 3228 2886 
Q 3006 2619 2597 2516 
z
" transform="scale(0.015625)"/>
       </defs>
       <use xlink:href="#DejaVuSans-2212"/>
       <use xlink:href="#DejaVuSans-33" x="83.789062"/>
      </g>
     </g>
    </g>
    <g id="xtick_2">
     <g id="line2d_2">
      <g>
       <use xlink:href="#m560da5e81a" x="120.518864" y="307.584" style="stroke: #000000; stroke-width: 0.8"/>
      </g>
     </g>
     <g id="text_2">
      <!-- −2 -->
      <g transform="translate(113.14777 322.182437) scale(0.1 -0.1)">
       <defs>
        <path id="DejaVuSans-32" d="M 1228 531 
L 3431 531 
L 3431 0 
L 469 0 
L 469 531 
Q 828 903 1448 1529 
Q 2069 2156 2228 2338 
Q 2531 2678 2651 2914 
Q 2772 3150 2772 3378 
Q 2772 3750 2511 3984 
Q 2250 4219 1831 4219 
Q 1534 4219 1204 4116 
Q 875 4013 500 3803 
L 500 4441 
Q 881 4594 1212 4672 
Q 1544 4750 1819 4750 
Q 2544 4750 2975 4387 
Q 3406 4025 3406 3419 
Q 3406 3131 3298 2873 
Q 3191 2616 2906 2266 
Q 2828 2175 2409 1742 
Q 1991 1309 1228 531 
z
" transform="scale(0.015625)"/>
       </defs>
       <use xlink:href="#DejaVuSans-2212"/>
       <use xlink:href="#DejaVuSans-32" x="83.789062"/>
      </g>
     </g>
    </g>
    <g id="xtick_3">
     <g id="line2d_3">
      <g>
       <use xlink:href="#m560da5e81a" x="161.834029" y="307.584" style="stroke: #000000; stroke-width: 0.8"/>
      </g>
     </g>
     <g id="text_3">
      <!-- −1 -->
      <g transform="translate(154.462935 322.182437) scale(0.1 -0.1)">
       <defs>
        <path id="DejaVuSans-31" d="M 794 531 
L 1825 531 
L 1825 4091 
L 703 3866 
L 703 4441 
L 1819 4666 
L 2450 4666 
L 2450 531 
L 3481 531 
L 3481 0 
L 794 0 
L 794 531 
z
" transform="scale(0.015625)"/>
       </defs>
       <use xlink:href="#DejaVuSans-2212"/>
       <use xlink:href="#DejaVuSans-31" x="83.789062"/>
      </g>
     </g>
    </g>
    <g id="xtick_4">
     <g id="line2d_4">
      <g>
       <use xlink:href="#m560da5e81a" x="203.149194" y="307.584" style="stroke: #000000; stroke-width: 0.8"/>
      </g>
     </g>
     <g id="text_4">
      <!-- 0 -->
      <g transform="translate(199.967944 322.182437) scale(0.1 -0.1)">
       <defs>
        <path id="DejaVuSans-30" d="M 2034 4250 
Q 1547 4250 1301 3770 
Q 1056 3291 1056 2328 
Q 1056 1369 1301 889 
Q 1547 409 2034 409 
Q 2525 409 2770 889 
Q 3016 1369 3016 2328 
Q 3016 3291 2770 3770 
Q 2525 4250 2034 4250 
z
M 2034 4750 
Q 2819 4750 3233 4129 
Q 3647 3509 3647 2328 
Q 3647 1150 3233 529 
Q 2819 -91 2034 -91 
Q 1250 -91 836 529 
Q 422 1150 422 2328 
Q 422 3509 836 4129 
Q 1250 4750 2034 4750 
z
" transform="scale(0.015625)"/>
       </defs>
       <use xlink:href="#DejaVuSans-30"/>
      </g>
     </g>
    </g>
    <g id="xtick_5">
     <g id="line2d_5">
      <g>
       <use xlink:href="#m560da5e81a" x="244.464359" y="307.584" style="stroke: #000000; stroke-width: 0.8"/>
      </g>
     </g>
     <g id="text_5">
      <!-- 1 -->
      <g transform="translate(241.283109 322.182437) scale(0.1 -0.1)">
       <use xlink:href="#DejaVuSans-31"/>
      </g>
     </g>
    </g>
    <g id="xtick_6">
     <g id="line2d_6">
      <g>
       <use xlink:href="#m560da5e81a" x="285.779524" y="307.584" style="stroke: #000000; stroke-width: 0.8"/>
      </g>
     </g>
     <g id="text_6">
      <!-- 2 -->
      <g transform="translate(282.598274 322.182437) scale(0.1 -0.1)">
       <use xlink:href="#DejaVuSans-32"/>
      </g>
     </g>
    </g>
    <g id="xtick_7">
     <g id="line2d_7">
      <g>
       <use xlink:href="#m560da5e81a" x="327.09469" y="307.584" style="stroke: #000000; stroke-width: 0.8"/>
      </g>
     </g>
     <g id="text_7">
      <!-- 3 -->
      <g transform="translate(323.91344 322.182437) scale(0.1 -0.1)">
       <use xlink:href="#DejaVuSans-33"/>
      </g>
     </g>
    </g>
    <g id="xtick_8">
     <g id="line2d_8">
      <g>
       <use xlink:href="#m560da5e81a" x="368.409855" y="307.584" style="stroke: #000000; stroke-width: 0.8"/>
      </g>
     </g>
     <g id="text_8">
      <!-- 4 -->
      <g transform="translate(365.228605 322.182437) scale(0.1 -0.1)">
       <defs>
        <path id="DejaVuSans-34" d="M 2419 4116 
L 825 1625 
L 2419 1625 
L 2419 4116 
z
M 2253 4666 
L 3047 4666 
L 3047 1625 
L 3713 1625 
L 3713 1100 
L 3047 1100 
L 3047 0 
L 2419 0 
L 2419 1100 
L 313 1100 
L 313 1709 
L 2253 4666 
z
" transform="scale(0.015625)"/>
       </defs>
       <use xlink:href="#DejaVuSans-34"/>
      </g>
     </g>
    </g>
    <g id="xtick_9">
     <g id="line2d_9">
      <g>
       <use xlink:href="#m560da5e81a" x="409.72502" y="307.584" style="stroke: #000000; stroke-width: 0.8"/>
      </g>
     </g>
     <g id="text_9">
      <!-- 5 -->
      <g transform="translate(406.54377 322.182437) scale(0.1 -0.1)">
       <defs>
        <path id="DejaVuSans-35" d="M 691 4666 
L 3169 4666 
L 3169 4134 
L 1269 4134 
L 1269 2991 
Q 1406 3038 1543 3061 
Q 1681 3084 1819 3084 
Q 2600 3084 3056 2656 
Q 3513 2228 3513 1497 
Q 3513 744 3044 326 
Q 2575 -91 1722 -91 
Q 1428 -91 1123 -41 
Q 819 9 494 109 
L 494 744 
Q 775 591 1075 516 
Q 1375 441 1709 441 
Q 2250 441 2565 725 
Q 2881 1009 2881 1497 
Q 2881 1984 2565 2268 
Q 2250 2553 1709 2553 
Q 1456 2553 1204 2497 
Q 953 2441 691 2322 
L 691 4666 
z
" transform="scale(0.015625)"/>
       </defs>
       <use xlink:href="#DejaVuSans-35"/>
      </g>
     </g>
    </g>
    <g id="text_10">
     <!-- r_x% -->
     <g transform="translate(223.894375 335.684) scale(0.1 -0.1)">
      <defs>
       <path id="DejaVuSans-72" d="M 2631 2963 
Q 2534 3019 2420 3045 
Q 2306 3072 2169 3072 
Q 1681 3072 1420 2755 
Q 1159 2438 1159 1844 
L 1159 0 
L 581 0 
L 581 3500 
L 1159 3500 
L 1159 2956 
Q 1341 3275 1631 3429 
Q 1922 3584 2338 3584 
Q 2397 3584 2469 3576 
Q 2541 3569 2628 3553 
L 2631 2963 
z
" transform="scale(0.015625)"/>
       <path id="DejaVuSans-5f" d="M 3263 -1063 
L 3263 -1509 
L -63 -1509 
L -63 -1063 
L 3263 -1063 
z
" transform="scale(0.015625)"/>
       <path id="DejaVuSans-78" d="M 3513 3500 
L 2247 1797 
L 3578 0 
L 2900 0 
L 1881 1375 
L 863 0 
L 184 0 
L 1544 1831 
L 300 3500 
L 978 3500 
L 1906 2253 
L 2834 3500 
L 3513 3500 
z
" transform="scale(0.015625)"/>
       <path id="DejaVuSans-25" d="M 4653 2053 
Q 4381 2053 4226 1822 
Q 4072 1591 4072 1178 
Q 4072 772 4226 539 
Q 4381 306 4653 306 
Q 4919 306 5073 539 
Q 5228 772 5228 1178 
Q 5228 1588 5073 1820 
Q 4919 2053 4653 2053 
z
M 4653 2450 
Q 5147 2450 5437 2106 
Q 5728 1763 5728 1178 
Q 5728 594 5436 251 
Q 5144 -91 4653 -91 
Q 4153 -91 3862 251 
Q 3572 594 3572 1178 
Q 3572 1766 3864 2108 
Q 4156 2450 4653 2450 
z
M 1428 4353 
Q 1159 4353 1004 4120 
Q 850 3888 850 3481 
Q 850 3069 1003 2837 
Q 1156 2606 1428 2606 
Q 1700 2606 1854 2837 
Q 2009 3069 2009 3481 
Q 2009 3884 1853 4118 
Q 1697 4353 1428 4353 
z
M 4250 4750 
L 4750 4750 
L 1831 -91 
L 1331 -91 
L 4250 4750 
z
M 1428 4750 
Q 1922 4750 2215 4408 
Q 2509 4066 2509 3481 
Q 2509 2891 2217 2550 
Q 1925 2209 1428 2209 
Q 931 2209 642 2551 
Q 353 2894 353 3481 
Q 353 4063 643 4406 
Q 934 4750 1428 4750 
z
" transform="scale(0.015625)"/>
      </defs>
      <use xlink:href="#DejaVuSans-72"/>
      <use xlink:href="#DejaVuSans-5f" x="41.113281"/>
      <use xlink:href="#DejaVuSans-78" x="91.113281"/>
      <use xlink:href="#DejaVuSans-25" x="150.292969"/>
     </g>
    </g>
    <g id="text_11">
     <!-- 1e7 -->
     <g transform="translate(395.841875 334.860562) scale(0.1 -0.1)">
      <defs>
       <path id="DejaVuSans-65" d="M 3597 1894 
L 3597 1613 
L 953 1613 
Q 991 1019 1311 708 
Q 1631 397 2203 397 
Q 2534 397 2845 478 
Q 3156 559 3463 722 
L 3463 178 
Q 3153 47 2828 -22 
Q 2503 -91 2169 -91 
Q 1331 -91 842 396 
Q 353 884 353 1716 
Q 353 2575 817 3079 
Q 1281 3584 2069 3584 
Q 2775 3584 3186 3129 
Q 3597 2675 3597 1894 
z
M 3022 2063 
Q 3016 2534 2758 2815 
Q 2500 3097 2075 3097 
Q 1594 3097 1305 2825 
Q 1016 2553 972 2059 
L 3022 2063 
z
" transform="scale(0.015625)"/>
       <path id="DejaVuSans-37" d="M 525 4666 
L 3525 4666 
L 3525 4397 
L 1831 0 
L 1172 0 
L 2766 4134 
L 525 4134 
L 525 4666 
z
" transform="scale(0.015625)"/>
      </defs>
      <use xlink:href="#DejaVuSans-31"/>
      <use xlink:href="#DejaVuSans-65" x="63.623047"/>
      <use xlink:href="#DejaVuSans-37" x="125.146484"/>
     </g>
    </g>
   </g>
   <g id="matplotlib.axis_2">
    <g id="ytick_1">
     <g id="line2d_10">
      <defs>
       <path id="mbb29c17a9c" d="M 0 0 
L -3.5 0 
" style="stroke: #000000; stroke-width: 0.8"/>
      </defs>
      <g>
       <use xlink:href="#mbb29c17a9c" x="57.6" y="300.597858" style="stroke: #000000; stroke-width: 0.8"/>
      </g>
     </g>
     <g id="text_12">
      <!-- −4 -->
      <g transform="translate(35.857813 304.397077) scale(0.1 -0.1)">
       <use xlink:href="#DejaVuSans-2212"/>
       <use xlink:href="#DejaVuSans-34" x="83.789062"/>
      </g>
     </g>
    </g>
    <g id="ytick_2">
     <g id="line2d_11">
      <g>
       <use xlink:href="#mbb29c17a9c" x="57.6" y="269.080611" style="stroke: #000000; stroke-width: 0.8"/>
      </g>
     </g>
     <g id="text_13">
      <!-- −3 -->
      <g transform="translate(35.857813 272.87983) scale(0.1 -0.1)">
       <use xlink:href="#DejaVuSans-2212"/>
       <use xlink:href="#DejaVuSans-33" x="83.789062"/>
      </g>
     </g>
    </g>
    <g id="ytick_3">
     <g id="line2d_12">
      <g>
       <use xlink:href="#mbb29c17a9c" x="57.6" y="237.563363" style="stroke: #000000; stroke-width: 0.8"/>
      </g>
     </g>
     <g id="text_14">
      <!-- −2 -->
      <g transform="translate(35.857813 241.362582) scale(0.1 -0.1)">
       <use xlink:href="#DejaVuSans-2212"/>
       <use xlink:href="#DejaVuSans-32" x="83.789062"/>
      </g>
     </g>
    </g>
    <g id="ytick_4">
     <g id="line2d_13">
      <g>
       <use xlink:href="#mbb29c17a9c" x="57.6" y="206.046116" style="stroke: #000000; stroke-width: 0.8"/>
      </g>
     </g>
     <g id="text_15">
      <!-- −1 -->
      <g transform="translate(35.857813 209.845335) scale(0.1 -0.1)">
       <use xlink:href="#DejaVuSans-2212"/>
       <use xlink:href="#DejaVuSans-31" x="83.789062"/>
      </g>
     </g>
    </g>
    <g id="ytick_5">
     <g id="line2d_14">
      <g>
       <use xlink:href="#mbb29c17a9c" x="57.6" y="174.528868" style="stroke: #000000; stroke-width: 0.8"/>
      </g>
     </g>
     <g id="text_16">
      <!-- 0 -->
      <g transform="translate(44.2375 178.328087) scale(0.1 -0.1)">
       <use xlink:href="#DejaVuSans-30"/>
      </g>
     </g>
    </g>
    <g id="ytick_6">
     <g id="line2d_15">
      <g>
       <use xlink:href="#mbb29c17a9c" x="57.6" y="143.011621" style="stroke: #000000; stroke-width: 0.8"/>
      </g>
     </g>
     <g id="text_17">
      <!-- 1 -->
      <g transform="translate(44.2375 146.81084) scale(0.1 -0.1)">
       <use xlink:href="#DejaVuSans-31"/>
      </g>
     </g>
    </g>
    <g id="ytick_7">
     <g id="line2d_16">
      <g>
       <use xlink:href="#mbb29c17a9c" x="57.6" y="111.494373" style="stroke: #000000; stroke-width: 0.8"/>
      </g>
     </g>
     <g id="text_18">
      <!-- 2 -->
      <g transform="translate(44.2375 115.293592) scale(0.1 -0.1)">
       <use xlink:href="#DejaVuSans-32"/>
      </g>
     </g>
    </g>
    <g id="ytick_8">
     <g id="line2d_17">
      <g>
       <use xlink:href="#mbb29c17a9c" x="57.6" y="79.977126" style="stroke: #000000; stroke-width: 0.8"/>
      </g>
     </g>
     <g id="text_19">
      <!-- 3 -->
      <g transform="translate(44.2375 83.776345) scale(0.1 -0.1)">
       <use xlink:href="#DejaVuSans-33"/>
      </g>
     </g>
    </g>
    <g id="ytick_9">
     <g id="line2d_18">
      <g>
       <use xlink:href="#mbb29c17a9c" x="57.6" y="48.459879" style="stroke: #000000; stroke-width: 0.8"/>
      </g>
     </g>
     <g id="text_20">
      <!-- 4 -->
      <g transform="translate(44.2375 52.259097) scale(0.1 -0.1)">
       <use xlink:href="#DejaVuSans-34"/>
      </g>
     </g>
    </g>
    <g id="text_21">
     <!-- r_y% -->
     <g transform="translate(29.5 186.793625) rotate(-90) scale(0.1 -0.1)">
      <defs>
       <path id="DejaVuSans-79" d="M 2059 -325 
Q 1816 -950 1584 -1140 
Q 1353 -1331 966 -1331 
L 506 -1331 
L 506 -850 
L 844 -850 
Q 1081 -850 1212 -737 
Q 1344 -625 1503 -206 
L 1606 56 
L 191 3500 
L 800 3500 
L 1894 763 
L 2988 3500 
L 3597 3500 
L 2059 -325 
z
" transform="scale(0.015625)"/>
      </defs>
      <use xlink:href="#DejaVuSans-72"/>
      <use xlink:href="#DejaVuSans-5f" x="41.113281"/>
      <use xlink:href="#DejaVuSans-79" x="91.113281"/>
      <use xlink:href="#DejaVuSans-25" x="150.292969"/>
     </g>
    </g>
    <g id="text_22">
     <!-- 1e7 -->
     <g transform="translate(57.6 38.472) scale(0.1 -0.1)">
      <use xlink:href="#DejaVuSans-31"/>
      <use xlink:href="#DejaVuSans-65" x="63.623047"/>
      <use xlink:href="#DejaVuSans-37" x="125.146484"/>
     </g>
    </g>
   </g>
   <g id="line2d_19">
    <path d="M 398.487273 174.528868 
L 398.168323 166.942823 
L 397.212728 159.386638 
L 395.624248 151.890062 
L 393.409137 144.482609 
L 390.576112 137.193443 
L 387.136327 130.051262 
L 383.103322 123.084187 
L 378.492975 116.319646 
L 373.323435 109.784274 
L 367.615053 103.503801 
L 361.390304 97.502954 
L 354.673693 91.805361 
L 347.491663 86.433453 
L 339.87249 81.408382 
L 331.846171 76.749932 
L 323.444305 72.476445 
L 314.699971 68.604747 
L 305.647597 65.150083 
L 296.322821 62.126054 
L 286.762358 59.544568 
L 277.003848 57.415789 
L 267.085711 55.748098 
L 257.046997 54.548063 
L 246.92723 53.820409 
L 236.766254 53.568 
L 226.604074 53.791832 
L 216.480701 54.491022 
L 206.435993 55.662819 
L 196.509498 57.302609 
L 186.740298 59.403935 
L 177.166857 61.958525 
L 167.826868 64.95632 
L 158.757104 68.385516 
L 149.993274 72.232612 
L 141.569884 76.482461 
L 133.520096 81.118329 
L 125.875605 86.121963 
L 118.666508 91.473663 
L 111.921186 97.152357 
L 105.666198 103.135685 
L 99.926167 109.400091 
L 94.723694 115.920909 
L 90.079257 122.672465 
L 86.011143 129.628177 
L 82.535365 136.760657 
L 79.665606 144.041825 
L 77.413163 151.443013 
L 75.7869 158.935082 
L 74.793219 166.488535 
L 74.436028 174.073632 
L 74.716733 181.660512 
L 75.634225 189.219305 
L 77.184889 196.720253 
L 79.362619 204.133823 
L 82.158838 211.430831 
L 85.562536 218.582549 
L 89.56031 225.560821 
L 94.13642 232.338176 
L 99.272848 238.887932 
L 104.949371 245.184305 
L 111.143641 251.202507 
L 117.831269 256.918847 
L 124.985927 262.310821 
L 132.579447 267.357202 
L 140.581933 272.038125 
L 148.961882 276.335162 
L 157.686301 280.231396 
L 166.720845 283.711491 
L 176.029945 286.761745 
L 185.576954 289.370151 
L 195.324286 291.526439 
L 205.233569 293.222123 
L 215.26579 294.450525 
L 225.381456 295.20681 
L 235.540743 295.488 
L 245.703654 295.292988 
L 255.830182 294.622542 
L 265.880458 293.4793 
L 275.814918 291.867762 
L 285.594449 289.794273 
L 295.180553 287.266996 
L 304.535488 284.295877 
L 313.622426 280.892615 
L 322.405591 277.070607 
L 330.850406 272.844897 
L 338.923623 268.232123 
L 346.593458 263.250443 
L 353.829715 257.919469 
L 360.603904 252.260187 
L 366.889355 246.294877 
L 372.661322 240.047024 
L 377.897079 233.541224 
L 382.576012 226.803089 
L 386.679699 219.859147 
L 390.191982 212.736735 
L 393.099033 205.463894 
L 395.389405 198.069256 
L 397.054079 190.581933 
L 398.0865 183.031402 
L 398.482601 175.447391 
" clip-path="url(#pba03ec3bd0)" style="fill: none; stroke: #1f77b4; stroke-width: 1.5; stroke-linecap: square"/>
   </g>
   <g id="line2d_20">
    <path d="M 398.487272 174.548147 
L 398.169941 166.962064 
L 397.21596 159.405765 
L 395.62908 151.909 
L 393.41555 144.501283 
L 390.584082 137.21178 
L 387.145821 130.069191 
L 383.114304 123.101635 
L 378.505401 116.336546 
L 373.337256 109.800559 
L 367.630216 103.519407 
L 361.406748 97.51782 
L 354.691353 91.819427 
L 347.51047 86.446665 
L 339.89237 81.420687 
L 331.867046 76.761282 
L 323.466092 72.486795 
L 314.722585 68.614057 
L 305.670948 65.158316 
L 296.346819 62.133178 
L 286.786907 59.550554 
L 277.028851 57.420614 
L 267.11107 55.751743 
L 257.072613 54.550513 
L 246.953001 53.821655 
L 236.792079 53.568037 
L 226.629852 53.790659 
L 216.50633 54.488645 
L 206.461371 55.659247 
L 196.534526 57.297856 
L 186.764878 59.39802 
L 177.190892 61.95147 
L 167.850262 64.948154 
L 158.779766 68.376271 
L 150.015115 72.222324 
L 141.590817 76.47117 
L 133.540041 81.10608 
L 125.894481 86.108805 
L 118.684241 91.459647 
L 111.937708 97.137538 
L 105.681442 103.120123 
L 99.940074 109.383845 
L 94.736208 115.904044 
L 90.090331 122.655047 
L 86.020731 129.610275 
L 82.543431 136.742342 
L 79.672117 144.023168 
L 77.418093 151.424088 
L 75.790231 158.915963 
L 74.794937 166.469297 
L 74.436128 174.054353 
L 74.715212 181.641266 
L 75.63109 189.200168 
L 77.180153 196.7013 
L 79.3563 204.11513 
L 82.150961 211.41247 
L 85.553132 218.564593 
L 89.549417 225.543341 
L 94.12408 232.32124 
L 99.259109 238.871607 
L 104.934289 245.168655 
L 111.127273 251.187595 
L 117.813681 256.90473 
L 124.967187 262.297556 
L 132.55963 267.34484 
L 140.561117 272.026715 
L 148.940148 276.324749 
L 157.663735 280.222022 
L 166.697536 283.703191 
L 176.005985 286.754553 
L 185.552437 289.364094 
L 195.299309 291.521543 
L 205.208229 293.218405 
L 215.240189 294.448001 
L 225.355693 295.20549 
L 235.514919 295.487889 
L 245.677872 295.294086 
L 255.804543 294.624845 
L 265.855063 293.482799 
L 275.789867 291.872443 
L 285.569841 289.800118 
L 295.156483 287.273981 
L 304.512053 284.303976 
L 313.599717 280.901795 
L 322.383699 277.080832 
L 330.829415 272.856127 
L 338.903617 268.244314 
L 346.574516 263.263546 
L 353.811911 257.933433 
L 360.587308 252.274958 
L 366.874033 246.310396 
L 372.647333 240.06323 
L 377.884479 233.558053 
L 382.56485 226.820475 
L 386.67002 219.877021 
L 390.183824 212.755027 
L 393.092428 205.482532 
L 395.384378 198.088166 
L 397.050651 190.601041 
L 398.084684 183.050634 
L 398.482404 175.46667 
" clip-path="url(#pba03ec3bd0)" style="fill: none; stroke: #ff7f0e; stroke-width: 1.5; stroke-linecap: square"/>
   </g>
   <g id="patch_3">
    <path d="M 57.6 307.584 
L 57.6 41.472 
" style="fill: none; stroke: #000000; stroke-width: 0.8; stroke-linejoin: miter; stroke-linecap: square"/>
   </g>
   <g id="patch_4">
    <path d="M 414.72 307.584 
L 414.72 41.472 
" style="fill: none; stroke: #000000; stroke-width: 0.8; stroke-linejoin: miter; stroke-linecap: square"/>
   </g>
   <g id="patch_5">
    <path d="M 57.6 307.584 
L 414.72 307.584 
" style="fill: none; stroke: #000000; stroke-width: 0.8; stroke-linejoin: miter; stroke-linecap: square"/>
   </g>
   <g id="patch_6">
    <path d="M 57.6 41.472 
L 414.72 41.472 
" style="fill: none; stroke: #000000; stroke-width: 0.8; stroke-linejoin: miter; stroke-linecap: square"/>
   </g>
   <g id="text_23">
    <!-- Classical interaction - Sun-Mercury -->
    <g transform="translate(131.833125 8.59725) scale(0.12 -0.12)">
     <defs>
      <path id="DejaVuSans-43" d="M 4122 4306 
L 4122 3641 
Q 3803 3938 3442 4084 
Q 3081 4231 2675 4231 
Q 1875 4231 1450 3742 
Q 1025 3253 1025 2328 
Q 1025 1406 1450 917 
Q 1875 428 2675 428 
Q 3081 428 3442 575 
Q 3803 722 4122 1019 
L 4122 359 
Q 3791 134 3420 21 
Q 3050 -91 2638 -91 
Q 1578 -91 968 557 
Q 359 1206 359 2328 
Q 359 3453 968 4101 
Q 1578 4750 2638 4750 
Q 3056 4750 3426 4639 
Q 3797 4528 4122 4306 
z
" transform="scale(0.015625)"/>
      <path id="DejaVuSans-6c" d="M 603 4863 
L 1178 4863 
L 1178 0 
L 603 0 
L 603 4863 
z
" transform="scale(0.015625)"/>
      <path id="DejaVuSans-61" d="M 2194 1759 
Q 1497 1759 1228 1600 
Q 959 1441 959 1056 
Q 959 750 1161 570 
Q 1363 391 1709 391 
Q 2188 391 2477 730 
Q 2766 1069 2766 1631 
L 2766 1759 
L 2194 1759 
z
M 3341 1997 
L 3341 0 
L 2766 0 
L 2766 531 
Q 2569 213 2275 61 
Q 1981 -91 1556 -91 
Q 1019 -91 701 211 
Q 384 513 384 1019 
Q 384 1609 779 1909 
Q 1175 2209 1959 2209 
L 2766 2209 
L 2766 2266 
Q 2766 2663 2505 2880 
Q 2244 3097 1772 3097 
Q 1472 3097 1187 3025 
Q 903 2953 641 2809 
L 641 3341 
Q 956 3463 1253 3523 
Q 1550 3584 1831 3584 
Q 2591 3584 2966 3190 
Q 3341 2797 3341 1997 
z
" transform="scale(0.015625)"/>
      <path id="DejaVuSans-73" d="M 2834 3397 
L 2834 2853 
Q 2591 2978 2328 3040 
Q 2066 3103 1784 3103 
Q 1356 3103 1142 2972 
Q 928 2841 928 2578 
Q 928 2378 1081 2264 
Q 1234 2150 1697 2047 
L 1894 2003 
Q 2506 1872 2764 1633 
Q 3022 1394 3022 966 
Q 3022 478 2636 193 
Q 2250 -91 1575 -91 
Q 1294 -91 989 -36 
Q 684 19 347 128 
L 347 722 
Q 666 556 975 473 
Q 1284 391 1588 391 
Q 1994 391 2212 530 
Q 2431 669 2431 922 
Q 2431 1156 2273 1281 
Q 2116 1406 1581 1522 
L 1381 1569 
Q 847 1681 609 1914 
Q 372 2147 372 2553 
Q 372 3047 722 3315 
Q 1072 3584 1716 3584 
Q 2034 3584 2315 3537 
Q 2597 3491 2834 3397 
z
" transform="scale(0.015625)"/>
      <path id="DejaVuSans-69" d="M 603 3500 
L 1178 3500 
L 1178 0 
L 603 0 
L 603 3500 
z
M 603 4863 
L 1178 4863 
L 1178 4134 
L 603 4134 
L 603 4863 
z
" transform="scale(0.015625)"/>
      <path id="DejaVuSans-63" d="M 3122 3366 
L 3122 2828 
Q 2878 2963 2633 3030 
Q 2388 3097 2138 3097 
Q 1578 3097 1268 2742 
Q 959 2388 959 1747 
Q 959 1106 1268 751 
Q 1578 397 2138 397 
Q 2388 397 2633 464 
Q 2878 531 3122 666 
L 3122 134 
Q 2881 22 2623 -34 
Q 2366 -91 2075 -91 
Q 1284 -91 818 406 
Q 353 903 353 1747 
Q 353 2603 823 3093 
Q 1294 3584 2113 3584 
Q 2378 3584 2631 3529 
Q 2884 3475 3122 3366 
z
" transform="scale(0.015625)"/>
      <path id="DejaVuSans-20" transform="scale(0.015625)"/>
      <path id="DejaVuSans-6e" d="M 3513 2113 
L 3513 0 
L 2938 0 
L 2938 2094 
Q 2938 2591 2744 2837 
Q 2550 3084 2163 3084 
Q 1697 3084 1428 2787 
Q 1159 2491 1159 1978 
L 1159 0 
L 581 0 
L 581 3500 
L 1159 3500 
L 1159 2956 
Q 1366 3272 1645 3428 
Q 1925 3584 2291 3584 
Q 2894 3584 3203 3211 
Q 3513 2838 3513 2113 
z
" transform="scale(0.015625)"/>
      <path id="DejaVuSans-74" d="M 1172 4494 
L 1172 3500 
L 2356 3500 
L 2356 3053 
L 1172 3053 
L 1172 1153 
Q 1172 725 1289 603 
Q 1406 481 1766 481 
L 2356 481 
L 2356 0 
L 1766 0 
Q 1100 0 847 248 
Q 594 497 594 1153 
L 594 3053 
L 172 3053 
L 172 3500 
L 594 3500 
L 594 4494 
L 1172 4494 
z
" transform="scale(0.015625)"/>
      <path id="DejaVuSans-6f" d="M 1959 3097 
Q 1497 3097 1228 2736 
Q 959 2375 959 1747 
Q 959 1119 1226 758 
Q 1494 397 1959 397 
Q 2419 397 2687 759 
Q 2956 1122 2956 1747 
Q 2956 2369 2687 2733 
Q 2419 3097 1959 3097 
z
M 1959 3584 
Q 2709 3584 3137 3096 
Q 3566 2609 3566 1747 
Q 3566 888 3137 398 
Q 2709 -91 1959 -91 
Q 1206 -91 779 398 
Q 353 888 353 1747 
Q 353 2609 779 3096 
Q 1206 3584 1959 3584 
z
" transform="scale(0.015625)"/>
      <path id="DejaVuSans-2d" d="M 313 2009 
L 1997 2009 
L 1997 1497 
L 313 1497 
L 313 2009 
z
" transform="scale(0.015625)"/>
      <path id="DejaVuSans-53" d="M 3425 4513 
L 3425 3897 
Q 3066 4069 2747 4153 
Q 2428 4238 2131 4238 
Q 1616 4238 1336 4038 
Q 1056 3838 1056 3469 
Q 1056 3159 1242 3001 
Q 1428 2844 1947 2747 
L 2328 2669 
Q 3034 2534 3370 2195 
Q 3706 1856 3706 1288 
Q 3706 609 3251 259 
Q 2797 -91 1919 -91 
Q 1588 -91 1214 -16 
Q 841 59 441 206 
L 441 856 
Q 825 641 1194 531 
Q 1563 422 1919 422 
Q 2459 422 2753 634 
Q 3047 847 3047 1241 
Q 3047 1584 2836 1778 
Q 2625 1972 2144 2069 
L 1759 2144 
Q 1053 2284 737 2584 
Q 422 2884 422 3419 
Q 422 4038 858 4394 
Q 1294 4750 2059 4750 
Q 2388 4750 2728 4690 
Q 3069 4631 3425 4513 
z
" transform="scale(0.015625)"/>
      <path id="DejaVuSans-75" d="M 544 1381 
L 544 3500 
L 1119 3500 
L 1119 1403 
Q 1119 906 1312 657 
Q 1506 409 1894 409 
Q 2359 409 2629 706 
Q 2900 1003 2900 1516 
L 2900 3500 
L 3475 3500 
L 3475 0 
L 2900 0 
L 2900 538 
Q 2691 219 2414 64 
Q 2138 -91 1772 -91 
Q 1169 -91 856 284 
Q 544 659 544 1381 
z
M 1991 3584 
L 1991 3584 
z
" transform="scale(0.015625)"/>
      <path id="DejaVuSans-4d" d="M 628 4666 
L 1569 4666 
L 2759 1491 
L 3956 4666 
L 4897 4666 
L 4897 0 
L 4281 0 
L 4281 4097 
L 3078 897 
L 2444 897 
L 1241 4097 
L 1241 0 
L 628 0 
L 628 4666 
z
" transform="scale(0.015625)"/>
     </defs>
     <use xlink:href="#DejaVuSans-43"/>
     <use xlink:href="#DejaVuSans-6c" x="69.824219"/>
     <use xlink:href="#DejaVuSans-61" x="97.607422"/>
     <use xlink:href="#DejaVuSans-73" x="158.886719"/>
     <use xlink:href="#DejaVuSans-73" x="210.986328"/>
     <use xlink:href="#DejaVuSans-69" x="263.085938"/>
     <use xlink:href="#DejaVuSans-63" x="290.869141"/>
     <use xlink:href="#DejaVuSans-61" x="345.849609"/>
     <use xlink:href="#DejaVuSans-6c" x="407.128906"/>
     <use xlink:href="#DejaVuSans-20" x="434.912109"/>
     <use xlink:href="#DejaVuSans-69" x="466.699219"/>
     <use xlink:href="#DejaVuSans-6e" x="494.482422"/>
     <use xlink:href="#DejaVuSans-74" x="557.861328"/>
     <use xlink:href="#DejaVuSans-65" x="597.070312"/>
     <use xlink:href="#DejaVuSans-72" x="658.59375"/>
     <use xlink:href="#DejaVuSans-61" x="699.707031"/>
     <use xlink:href="#DejaVuSans-63" x="760.986328"/>
     <use xlink:href="#DejaVuSans-74" x="815.966797"/>
     <use xlink:href="#DejaVuSans-69" x="855.175781"/>
     <use xlink:href="#DejaVuSans-6f" x="882.958984"/>
     <use xlink:href="#DejaVuSans-6e" x="944.140625"/>
     <use xlink:href="#DejaVuSans-20" x="1007.519531"/>
     <use xlink:href="#DejaVuSans-2d" x="1039.306641"/>
     <use xlink:href="#DejaVuSans-20" x="1075.390625"/>
     <use xlink:href="#DejaVuSans-53" x="1107.177734"/>
     <use xlink:href="#DejaVuSans-75" x="1170.654297"/>
     <use xlink:href="#DejaVuSans-6e" x="1234.033203"/>
     <use xlink:href="#DejaVuSans-2d" x="1297.412109"/>
     <use xlink:href="#DejaVuSans-4d" x="1333.496094"/>
     <use xlink:href="#DejaVuSans-65" x="1419.775391"/>
     <use xlink:href="#DejaVuSans-72" x="1481.298828"/>
     <use xlink:href="#DejaVuSans-63" x="1520.162109"/>
     <use xlink:href="#DejaVuSans-75" x="1575.142578"/>
     <use xlink:href="#DejaVuSans-72" x="1638.521484"/>
     <use xlink:href="#DejaVuSans-79" x="1679.634766"/>
    </g>
    <!-- Numerical stability of the Verlet integration -->
    <g transform="translate(106.056563 22.034625) scale(0.12 -0.12)">
     <defs>
      <path id="DejaVuSans-4e" d="M 628 4666 
L 1478 4666 
L 3547 763 
L 3547 4666 
L 4159 4666 
L 4159 0 
L 3309 0 
L 1241 3903 
L 1241 0 
L 628 0 
L 628 4666 
z
" transform="scale(0.015625)"/>
      <path id="DejaVuSans-6d" d="M 3328 2828 
Q 3544 3216 3844 3400 
Q 4144 3584 4550 3584 
Q 5097 3584 5394 3201 
Q 5691 2819 5691 2113 
L 5691 0 
L 5113 0 
L 5113 2094 
Q 5113 2597 4934 2840 
Q 4756 3084 4391 3084 
Q 3944 3084 3684 2787 
Q 3425 2491 3425 1978 
L 3425 0 
L 2847 0 
L 2847 2094 
Q 2847 2600 2669 2842 
Q 2491 3084 2119 3084 
Q 1678 3084 1418 2786 
Q 1159 2488 1159 1978 
L 1159 0 
L 581 0 
L 581 3500 
L 1159 3500 
L 1159 2956 
Q 1356 3278 1631 3431 
Q 1906 3584 2284 3584 
Q 2666 3584 2933 3390 
Q 3200 3197 3328 2828 
z
" transform="scale(0.015625)"/>
      <path id="DejaVuSans-62" d="M 3116 1747 
Q 3116 2381 2855 2742 
Q 2594 3103 2138 3103 
Q 1681 3103 1420 2742 
Q 1159 2381 1159 1747 
Q 1159 1113 1420 752 
Q 1681 391 2138 391 
Q 2594 391 2855 752 
Q 3116 1113 3116 1747 
z
M 1159 2969 
Q 1341 3281 1617 3432 
Q 1894 3584 2278 3584 
Q 2916 3584 3314 3078 
Q 3713 2572 3713 1747 
Q 3713 922 3314 415 
Q 2916 -91 2278 -91 
Q 1894 -91 1617 61 
Q 1341 213 1159 525 
L 1159 0 
L 581 0 
L 581 4863 
L 1159 4863 
L 1159 2969 
z
" transform="scale(0.015625)"/>
      <path id="DejaVuSans-66" d="M 2375 4863 
L 2375 4384 
L 1825 4384 
Q 1516 4384 1395 4259 
Q 1275 4134 1275 3809 
L 1275 3500 
L 2222 3500 
L 2222 3053 
L 1275 3053 
L 1275 0 
L 697 0 
L 697 3053 
L 147 3053 
L 147 3500 
L 697 3500 
L 697 3744 
Q 697 4328 969 4595 
Q 1241 4863 1831 4863 
L 2375 4863 
z
" transform="scale(0.015625)"/>
      <path id="DejaVuSans-68" d="M 3513 2113 
L 3513 0 
L 2938 0 
L 2938 2094 
Q 2938 2591 2744 2837 
Q 2550 3084 2163 3084 
Q 1697 3084 1428 2787 
Q 1159 2491 1159 1978 
L 1159 0 
L 581 0 
L 581 4863 
L 1159 4863 
L 1159 2956 
Q 1366 3272 1645 3428 
Q 1925 3584 2291 3584 
Q 2894 3584 3203 3211 
Q 3513 2838 3513 2113 
z
" transform="scale(0.015625)"/>
      <path id="DejaVuSans-56" d="M 1831 0 
L 50 4666 
L 709 4666 
L 2188 738 
L 3669 4666 
L 4325 4666 
L 2547 0 
L 1831 0 
z
" transform="scale(0.015625)"/>
      <path id="DejaVuSans-67" d="M 2906 1791 
Q 2906 2416 2648 2759 
Q 2391 3103 1925 3103 
Q 1463 3103 1205 2759 
Q 947 2416 947 1791 
Q 947 1169 1205 825 
Q 1463 481 1925 481 
Q 2391 481 2648 825 
Q 2906 1169 2906 1791 
z
M 3481 434 
Q 3481 -459 3084 -895 
Q 2688 -1331 1869 -1331 
Q 1566 -1331 1297 -1286 
Q 1028 -1241 775 -1147 
L 775 -588 
Q 1028 -725 1275 -790 
Q 1522 -856 1778 -856 
Q 2344 -856 2625 -561 
Q 2906 -266 2906 331 
L 2906 616 
Q 2728 306 2450 153 
Q 2172 0 1784 0 
Q 1141 0 747 490 
Q 353 981 353 1791 
Q 353 2603 747 3093 
Q 1141 3584 1784 3584 
Q 2172 3584 2450 3431 
Q 2728 3278 2906 2969 
L 2906 3500 
L 3481 3500 
L 3481 434 
z
" transform="scale(0.015625)"/>
     </defs>
     <use xlink:href="#DejaVuSans-4e"/>
     <use xlink:href="#DejaVuSans-75" x="74.804688"/>
     <use xlink:href="#DejaVuSans-6d" x="138.183594"/>
     <use xlink:href="#DejaVuSans-65" x="235.595703"/>
     <use xlink:href="#DejaVuSans-72" x="297.119141"/>
     <use xlink:href="#DejaVuSans-69" x="338.232422"/>
     <use xlink:href="#DejaVuSans-63" x="366.015625"/>
     <use xlink:href="#DejaVuSans-61" x="420.996094"/>
     <use xlink:href="#DejaVuSans-6c" x="482.275391"/>
     <use xlink:href="#DejaVuSans-20" x="510.058594"/>
     <use xlink:href="#DejaVuSans-73" x="541.845703"/>
     <use xlink:href="#DejaVuSans-74" x="593.945312"/>
     <use xlink:href="#DejaVuSans-61" x="633.154297"/>
     <use xlink:href="#DejaVuSans-62" x="694.433594"/>
     <use xlink:href="#DejaVuSans-69" x="757.910156"/>
     <use xlink:href="#DejaVuSans-6c" x="785.693359"/>
     <use xlink:href="#DejaVuSans-69" x="813.476562"/>
     <use xlink:href="#DejaVuSans-74" x="841.259766"/>
     <use xlink:href="#DejaVuSans-79" x="880.46875"/>
     <use xlink:href="#DejaVuSans-20" x="939.648438"/>
     <use xlink:href="#DejaVuSans-6f" x="971.435547"/>
     <use xlink:href="#DejaVuSans-66" x="1032.617188"/>
     <use xlink:href="#DejaVuSans-20" x="1067.822266"/>
     <use xlink:href="#DejaVuSans-74" x="1099.609375"/>
     <use xlink:href="#DejaVuSans-68" x="1138.818359"/>
     <use xlink:href="#DejaVuSans-65" x="1202.197266"/>
     <use xlink:href="#DejaVuSans-20" x="1263.720703"/>
     <use xlink:href="#DejaVuSans-56" x="1295.507812"/>
     <use xlink:href="#DejaVuSans-65" x="1356.166016"/>
     <use xlink:href="#DejaVuSans-72" x="1417.689453"/>
     <use xlink:href="#DejaVuSans-6c" x="1458.802734"/>
     <use xlink:href="#DejaVuSans-65" x="1486.585938"/>
     <use xlink:href="#DejaVuSans-74" x="1548.109375"/>
     <use xlink:href="#DejaVuSans-20" x="1587.318359"/>
     <use xlink:href="#DejaVuSans-69" x="1619.105469"/>
     <use xlink:href="#DejaVuSans-6e" x="1646.888672"/>
     <use xlink:href="#DejaVuSans-74" x="1710.267578"/>
     <use xlink:href="#DejaVuSans-65" x="1749.476562"/>
     <use xlink:href="#DejaVuSans-67" x="1811"/>
     <use xlink:href="#DejaVuSans-72" x="1874.476562"/>
     <use xlink:href="#DejaVuSans-61" x="1915.589844"/>
     <use xlink:href="#DejaVuSans-74" x="1976.869141"/>
     <use xlink:href="#DejaVuSans-69" x="2016.078125"/>
     <use xlink:href="#DejaVuSans-6f" x="2043.861328"/>
     <use xlink:href="#DejaVuSans-6e" x="2105.042969"/>
    </g>
    <!-- u[0] = 1.296e-04  r%[0] = 4.728e+07 -->
    <g transform="translate(121.494375 35.472) scale(0.12 -0.12)">
     <defs>
      <path id="DejaVuSans-5b" d="M 550 4863 
L 1875 4863 
L 1875 4416 
L 1125 4416 
L 1125 -397 
L 1875 -397 
L 1875 -844 
L 550 -844 
L 550 4863 
z
" transform="scale(0.015625)"/>
      <path id="DejaVuSans-5d" d="M 1947 4863 
L 1947 -844 
L 622 -844 
L 622 -397 
L 1369 -397 
L 1369 4416 
L 622 4416 
L 622 4863 
L 1947 4863 
z
" transform="scale(0.015625)"/>
      <path id="DejaVuSans-3d" d="M 678 2906 
L 4684 2906 
L 4684 2381 
L 678 2381 
L 678 2906 
z
M 678 1631 
L 4684 1631 
L 4684 1100 
L 678 1100 
L 678 1631 
z
" transform="scale(0.015625)"/>
      <path id="DejaVuSans-2e" d="M 684 794 
L 1344 794 
L 1344 0 
L 684 0 
L 684 794 
z
" transform="scale(0.015625)"/>
      <path id="DejaVuSans-39" d="M 703 97 
L 703 672 
Q 941 559 1184 500 
Q 1428 441 1663 441 
Q 2288 441 2617 861 
Q 2947 1281 2994 2138 
Q 2813 1869 2534 1725 
Q 2256 1581 1919 1581 
Q 1219 1581 811 2004 
Q 403 2428 403 3163 
Q 403 3881 828 4315 
Q 1253 4750 1959 4750 
Q 2769 4750 3195 4129 
Q 3622 3509 3622 2328 
Q 3622 1225 3098 567 
Q 2575 -91 1691 -91 
Q 1453 -91 1209 -44 
Q 966 3 703 97 
z
M 1959 2075 
Q 2384 2075 2632 2365 
Q 2881 2656 2881 3163 
Q 2881 3666 2632 3958 
Q 2384 4250 1959 4250 
Q 1534 4250 1286 3958 
Q 1038 3666 1038 3163 
Q 1038 2656 1286 2365 
Q 1534 2075 1959 2075 
z
" transform="scale(0.015625)"/>
      <path id="DejaVuSans-36" d="M 2113 2584 
Q 1688 2584 1439 2293 
Q 1191 2003 1191 1497 
Q 1191 994 1439 701 
Q 1688 409 2113 409 
Q 2538 409 2786 701 
Q 3034 994 3034 1497 
Q 3034 2003 2786 2293 
Q 2538 2584 2113 2584 
z
M 3366 4563 
L 3366 3988 
Q 3128 4100 2886 4159 
Q 2644 4219 2406 4219 
Q 1781 4219 1451 3797 
Q 1122 3375 1075 2522 
Q 1259 2794 1537 2939 
Q 1816 3084 2150 3084 
Q 2853 3084 3261 2657 
Q 3669 2231 3669 1497 
Q 3669 778 3244 343 
Q 2819 -91 2113 -91 
Q 1303 -91 875 529 
Q 447 1150 447 2328 
Q 447 3434 972 4092 
Q 1497 4750 2381 4750 
Q 2619 4750 2861 4703 
Q 3103 4656 3366 4563 
z
" transform="scale(0.015625)"/>
      <path id="DejaVuSans-38" d="M 2034 2216 
Q 1584 2216 1326 1975 
Q 1069 1734 1069 1313 
Q 1069 891 1326 650 
Q 1584 409 2034 409 
Q 2484 409 2743 651 
Q 3003 894 3003 1313 
Q 3003 1734 2745 1975 
Q 2488 2216 2034 2216 
z
M 1403 2484 
Q 997 2584 770 2862 
Q 544 3141 544 3541 
Q 544 4100 942 4425 
Q 1341 4750 2034 4750 
Q 2731 4750 3128 4425 
Q 3525 4100 3525 3541 
Q 3525 3141 3298 2862 
Q 3072 2584 2669 2484 
Q 3125 2378 3379 2068 
Q 3634 1759 3634 1313 
Q 3634 634 3220 271 
Q 2806 -91 2034 -91 
Q 1263 -91 848 271 
Q 434 634 434 1313 
Q 434 1759 690 2068 
Q 947 2378 1403 2484 
z
M 1172 3481 
Q 1172 3119 1398 2916 
Q 1625 2713 2034 2713 
Q 2441 2713 2670 2916 
Q 2900 3119 2900 3481 
Q 2900 3844 2670 4047 
Q 2441 4250 2034 4250 
Q 1625 4250 1398 4047 
Q 1172 3844 1172 3481 
z
" transform="scale(0.015625)"/>
      <path id="DejaVuSans-2b" d="M 2944 4013 
L 2944 2272 
L 4684 2272 
L 4684 1741 
L 2944 1741 
L 2944 0 
L 2419 0 
L 2419 1741 
L 678 1741 
L 678 2272 
L 2419 2272 
L 2419 4013 
L 2944 4013 
z
" transform="scale(0.015625)"/>
     </defs>
     <use xlink:href="#DejaVuSans-75"/>
     <use xlink:href="#DejaVuSans-5b" x="63.378906"/>
     <use xlink:href="#DejaVuSans-30" x="102.392578"/>
     <use xlink:href="#DejaVuSans-5d" x="166.015625"/>
     <use xlink:href="#DejaVuSans-20" x="205.029297"/>
     <use xlink:href="#DejaVuSans-3d" x="236.816406"/>
     <use xlink:href="#DejaVuSans-20" x="320.605469"/>
     <use xlink:href="#DejaVuSans-31" x="352.392578"/>
     <use xlink:href="#DejaVuSans-2e" x="416.015625"/>
     <use xlink:href="#DejaVuSans-32" x="447.802734"/>
     <use xlink:href="#DejaVuSans-39" x="511.425781"/>
     <use xlink:href="#DejaVuSans-36" x="575.048828"/>
     <use xlink:href="#DejaVuSans-65" x="638.671875"/>
     <use xlink:href="#DejaVuSans-2d" x="700.195312"/>
     <use xlink:href="#DejaVuSans-30" x="736.279297"/>
     <use xlink:href="#DejaVuSans-34" x="799.902344"/>
     <use xlink:href="#DejaVuSans-20" x="863.525391"/>
     <use xlink:href="#DejaVuSans-20" x="895.3125"/>
     <use xlink:href="#DejaVuSans-72" x="927.099609"/>
     <use xlink:href="#DejaVuSans-25" x="968.212891"/>
     <use xlink:href="#DejaVuSans-5b" x="1063.232422"/>
     <use xlink:href="#DejaVuSans-30" x="1102.246094"/>
     <use xlink:href="#DejaVuSans-5d" x="1165.869141"/>
     <use xlink:href="#DejaVuSans-20" x="1204.882812"/>
     <use xlink:href="#DejaVuSans-3d" x="1236.669922"/>
     <use xlink:href="#DejaVuSans-20" x="1320.458984"/>
     <use xlink:href="#DejaVuSans-34" x="1352.246094"/>
     <use xlink:href="#DejaVuSans-2e" x="1415.869141"/>
     <use xlink:href="#DejaVuSans-37" x="1447.65625"/>
     <use xlink:href="#DejaVuSans-32" x="1511.279297"/>
     <use xlink:href="#DejaVuSans-38" x="1574.902344"/>
     <use xlink:href="#DejaVuSans-65" x="1638.525391"/>
     <use xlink:href="#DejaVuSans-2b" x="1700.048828"/>
     <use xlink:href="#DejaVuSans-30" x="1783.837891"/>
     <use xlink:href="#DejaVuSans-37" x="1847.460938"/>
    </g>
   </g>
   <g id="patch_7">
    <path d="M 73.832727 183.038525 
L 77.964244 183.038525 
L 77.964244 179.8868 
L 73.832727 179.8868 
L 73.832727 183.038525 
z
" clip-path="url(#pba03ec3bd0)" style="fill: none; opacity: 0.5; stroke: #808080; stroke-linejoin: miter"/>
   </g>
   <g id="patch_8">
    <path d="M 146.88 267.6672 
Q 110.356364 225.352863 73.832727 183.038525 
" style="fill: none; opacity: 0.5; stroke: #808080; stroke-linecap: round"/>
   </g>
   <g id="patch_9">
    <path d="M 146.88 121.3056 
Q 110.356364 150.5962 73.832727 179.8868 
" style="fill: none; opacity: 0.5; stroke: #808080; stroke-linecap: round"/>
   </g>
   <g id="axes_2">
    <g id="patch_10">
     <path d="M 146.88 267.6672 
L 325.44 267.6672 
L 325.44 121.3056 
L 146.88 121.3056 
z
" style="fill: #ffffff"/>
    </g>
    <g id="matplotlib.axis_3">
     <g id="xtick_10">
      <g id="line2d_21">
       <g>
        <use xlink:href="#m560da5e81a" x="164.736" y="267.6672" style="stroke: #000000; stroke-width: 0.8"/>
       </g>
      </g>
     </g>
     <g id="xtick_11">
      <g id="line2d_22">
       <g>
        <use xlink:href="#m560da5e81a" x="200.448" y="267.6672" style="stroke: #000000; stroke-width: 0.8"/>
       </g>
      </g>
     </g>
     <g id="xtick_12">
      <g id="line2d_23">
       <g>
        <use xlink:href="#m560da5e81a" x="236.16" y="267.6672" style="stroke: #000000; stroke-width: 0.8"/>
       </g>
      </g>
     </g>
     <g id="xtick_13">
      <g id="line2d_24">
       <g>
        <use xlink:href="#m560da5e81a" x="271.872" y="267.6672" style="stroke: #000000; stroke-width: 0.8"/>
       </g>
      </g>
     </g>
     <g id="xtick_14">
      <g id="line2d_25">
       <g>
        <use xlink:href="#m560da5e81a" x="307.584" y="267.6672" style="stroke: #000000; stroke-width: 0.8"/>
       </g>
      </g>
     </g>
    </g>
    <g id="matplotlib.axis_4">
     <g id="ytick_10">
      <g id="line2d_26">
       <g>
        <use xlink:href="#mbb29c17a9c" x="146.88" y="253.03104" style="stroke: #000000; stroke-width: 0.8"/>
       </g>
      </g>
     </g>
     <g id="ytick_11">
      <g id="line2d_27">
       <g>
        <use xlink:href="#mbb29c17a9c" x="146.88" y="223.75872" style="stroke: #000000; stroke-width: 0.8"/>
       </g>
      </g>
     </g>
     <g id="ytick_12">
      <g id="line2d_28">
       <g>
        <use xlink:href="#mbb29c17a9c" x="146.88" y="194.4864" style="stroke: #000000; stroke-width: 0.8"/>
       </g>
      </g>
     </g>
     <g id="ytick_13">
      <g id="line2d_29">
       <g>
        <use xlink:href="#mbb29c17a9c" x="146.88" y="165.21408" style="stroke: #000000; stroke-width: 0.8"/>
       </g>
      </g>
     </g>
     <g id="ytick_14">
      <g id="line2d_30">
       <g>
        <use xlink:href="#mbb29c17a9c" x="146.88" y="135.94176" style="stroke: #000000; stroke-width: 0.8"/>
       </g>
      </g>
     </g>
    </g>
    <g id="line2d_31">
     <path d="M 178.038171 -1 
L 185.085835 203.674247 
L 201.231503 346.6 
" clip-path="url(#pd3b317745e)" style="fill: none; stroke: #1f77b4; stroke-width: 1.5; stroke-linecap: square"/>
    </g>
    <g id="line2d_32">
     <path d="M 178.043752 -1 
L 185.02012 202.780479 
L 201.237943 346.6 
" clip-path="url(#pd3b317745e)" style="fill: none; stroke: #ff7f0e; stroke-width: 1.5; stroke-linecap: square"/>
    </g>
    <g id="patch_11">
     <path d="M 146.88 267.6672 
L 146.88 121.3056 
" style="fill: none; stroke: #000000; stroke-width: 0.8; stroke-linejoin: miter; stroke-linecap: square"/>
    </g>
    <g id="patch_12">
     <path d="M 325.44 267.6672 
L 325.44 121.3056 
" style="fill: none; stroke: #000000; stroke-width: 0.8; stroke-linejoin: miter; stroke-linecap: square"/>
    </g>
    <g id="patch_13">
     <path d="M 146.88 267.6672 
L 325.44 267.6672 
" style="fill: none; stroke: #000000; stroke-width: 0.8; stroke-linejoin: miter; stroke-linecap: square"/>
    </g>
    <g id="patch_14">
     <path d="M 146.88 121.3056 
L 325.44 121.3056 
" style="fill: none; stroke: #000000; stroke-width: 0.8; stroke-linejoin: miter; stroke-linecap: square"/>
    </g>
    <g id="patch_15">
     <path d="M 184.788288 205.478156 
L 185.306112 205.478156 
L 185.306112 194.457128 
L 184.788288 194.457128 
L 184.788288 205.478156 
z
" clip-path="url(#pd3b317745e)" style="fill: none; opacity: 0.5; stroke: #808080; stroke-linejoin: miter"/>
    </g>
    <g id="patch_16">
     <path d="M 236.16 238.39488 
Q 210.474144 221.936518 184.788288 205.478156 
" style="fill: none; opacity: 0.5; stroke: #808080; stroke-linecap: round"/>
    </g>
    <g id="patch_17">
     <path d="M 236.16 135.94176 
Q 210.474144 165.199444 184.788288 194.457128 
" style="fill: none; opacity: 0.5; stroke: #808080; stroke-linecap: round"/>
    </g>
    <g id="axes_3">
     <g id="patch_18">
      <path d="M 236.16 238.39488 
L 307.584 238.39488 
L 307.584 135.94176 
L 236.16 135.94176 
z
" style="fill: #ffffff"/>
     </g>
     <g id="matplotlib.axis_5">
      <g id="xtick_15">
       <g id="line2d_33">
        <g>
         <use xlink:href="#m560da5e81a" x="253.400276" y="238.39488" style="stroke: #000000; stroke-width: 0.8"/>
        </g>
       </g>
      </g>
      <g id="xtick_16">
       <g id="line2d_34">
        <g>
         <use xlink:href="#m560da5e81a" x="278.029241" y="238.39488" style="stroke: #000000; stroke-width: 0.8"/>
        </g>
       </g>
      </g>
      <g id="xtick_17">
       <g id="line2d_35">
        <g>
         <use xlink:href="#m560da5e81a" x="302.658207" y="238.39488" style="stroke: #000000; stroke-width: 0.8"/>
        </g>
       </g>
      </g>
     </g>
     <g id="matplotlib.axis_6">
      <g id="ytick_15">
       <g id="line2d_36">
        <g>
         <use xlink:href="#mbb29c17a9c" x="236.16" y="217.849832" style="stroke: #000000; stroke-width: 0.8"/>
        </g>
       </g>
      </g>
      <g id="ytick_16">
       <g id="line2d_37">
        <g>
         <use xlink:href="#mbb29c17a9c" x="236.16" y="190.637848" style="stroke: #000000; stroke-width: 0.8"/>
        </g>
       </g>
      </g>
      <g id="ytick_17">
       <g id="line2d_38">
        <g>
         <use xlink:href="#mbb29c17a9c" x="236.16" y="163.425864" style="stroke: #000000; stroke-width: 0.8"/>
        </g>
       </g>
      </g>
      <g id="ytick_18">
       <g id="line2d_39">
        <g>
         <use xlink:href="#mbb29c17a9c" x="236.16" y="136.21388" style="stroke: #000000; stroke-width: 0.8"/>
        </g>
       </g>
      </g>
     </g>
     <g id="line2d_40">
      <path d="M 163.460292 -1 
L 277.200966 221.625472 
L 461.8 331.760372 
" clip-path="url(#pff1540a808)" style="fill: none; stroke: #1f77b4; stroke-width: 1.5; stroke-linecap: square"/>
     </g>
     <g id="line2d_41">
      <path d="M 159.273408 -1 
L 268.136861 213.31687 
L 461.8 329.064824 
" clip-path="url(#pff1540a808)" style="fill: none; stroke: #ff7f0e; stroke-width: 1.5; stroke-linecap: square"/>
     </g>
     <g id="patch_19">
      <path d="M 236.16 238.39488 
L 236.16 135.94176 
" style="fill: none; stroke: #000000; stroke-width: 0.8; stroke-linejoin: miter; stroke-linecap: square"/>
     </g>
     <g id="patch_20">
      <path d="M 307.584 238.39488 
L 307.584 135.94176 
" style="fill: none; stroke: #000000; stroke-width: 0.8; stroke-linejoin: miter; stroke-linecap: square"/>
     </g>
     <g id="patch_21">
      <path d="M 236.16 238.39488 
L 307.584 238.39488 
" style="fill: none; stroke: #000000; stroke-width: 0.8; stroke-linejoin: miter; stroke-linecap: square"/>
     </g>
     <g id="patch_22">
      <path d="M 236.16 135.94176 
L 307.584 135.94176 
" style="fill: none; stroke: #000000; stroke-width: 0.8; stroke-linejoin: miter; stroke-linecap: square"/>
     </g>
    </g>
   </g>
   <g id="legend_1">
    <g id="patch_23">
     <path d="M 239.827812 93.7845 
L 407.72 93.7845 
Q 409.72 93.7845 409.72 91.7845 
L 409.72 48.472 
Q 409.72 46.472 407.72 46.472 
L 239.827812 46.472 
Q 237.827812 46.472 237.827812 48.472 
L 237.827812 91.7845 
Q 237.827812 93.7845 239.827812 93.7845 
z
" style="fill: #ffffff; opacity: 0.8; stroke: #cccccc; stroke-linejoin: miter"/>
    </g>
    <g id="text_24">
     <!-- period, r_max / r[0], u_min / u[0] -->
     <g transform="translate(241.827812 58.070438) scale(0.1 -0.1)">
      <defs>
       <path id="DejaVuSans-70" d="M 1159 525 
L 1159 -1331 
L 581 -1331 
L 581 3500 
L 1159 3500 
L 1159 2969 
Q 1341 3281 1617 3432 
Q 1894 3584 2278 3584 
Q 2916 3584 3314 3078 
Q 3713 2572 3713 1747 
Q 3713 922 3314 415 
Q 2916 -91 2278 -91 
Q 1894 -91 1617 61 
Q 1341 213 1159 525 
z
M 3116 1747 
Q 3116 2381 2855 2742 
Q 2594 3103 2138 3103 
Q 1681 3103 1420 2742 
Q 1159 2381 1159 1747 
Q 1159 1113 1420 752 
Q 1681 391 2138 391 
Q 2594 391 2855 752 
Q 3116 1113 3116 1747 
z
" transform="scale(0.015625)"/>
       <path id="DejaVuSans-64" d="M 2906 2969 
L 2906 4863 
L 3481 4863 
L 3481 0 
L 2906 0 
L 2906 525 
Q 2725 213 2448 61 
Q 2172 -91 1784 -91 
Q 1150 -91 751 415 
Q 353 922 353 1747 
Q 353 2572 751 3078 
Q 1150 3584 1784 3584 
Q 2172 3584 2448 3432 
Q 2725 3281 2906 2969 
z
M 947 1747 
Q 947 1113 1208 752 
Q 1469 391 1925 391 
Q 2381 391 2643 752 
Q 2906 1113 2906 1747 
Q 2906 2381 2643 2742 
Q 2381 3103 1925 3103 
Q 1469 3103 1208 2742 
Q 947 2381 947 1747 
z
" transform="scale(0.015625)"/>
       <path id="DejaVuSans-2c" d="M 750 794 
L 1409 794 
L 1409 256 
L 897 -744 
L 494 -744 
L 750 256 
L 750 794 
z
" transform="scale(0.015625)"/>
       <path id="DejaVuSans-2f" d="M 1625 4666 
L 2156 4666 
L 531 -594 
L 0 -594 
L 1625 4666 
z
" transform="scale(0.015625)"/>
      </defs>
      <use xlink:href="#DejaVuSans-70"/>
      <use xlink:href="#DejaVuSans-65" x="63.476562"/>
      <use xlink:href="#DejaVuSans-72" x="125"/>
      <use xlink:href="#DejaVuSans-69" x="166.113281"/>
      <use xlink:href="#DejaVuSans-6f" x="193.896484"/>
      <use xlink:href="#DejaVuSans-64" x="255.078125"/>
      <use xlink:href="#DejaVuSans-2c" x="318.554688"/>
      <use xlink:href="#DejaVuSans-20" x="350.341797"/>
      <use xlink:href="#DejaVuSans-72" x="382.128906"/>
      <use xlink:href="#DejaVuSans-5f" x="423.242188"/>
      <use xlink:href="#DejaVuSans-6d" x="473.242188"/>
      <use xlink:href="#DejaVuSans-61" x="570.654297"/>
      <use xlink:href="#DejaVuSans-78" x="631.933594"/>
      <use xlink:href="#DejaVuSans-20" x="691.113281"/>
      <use xlink:href="#DejaVuSans-2f" x="722.900391"/>
      <use xlink:href="#DejaVuSans-20" x="756.591797"/>
      <use xlink:href="#DejaVuSans-72" x="788.378906"/>
      <use xlink:href="#DejaVuSans-5b" x="829.492188"/>
      <use xlink:href="#DejaVuSans-30" x="868.505859"/>
      <use xlink:href="#DejaVuSans-5d" x="932.128906"/>
      <use xlink:href="#DejaVuSans-2c" x="971.142578"/>
      <use xlink:href="#DejaVuSans-20" x="1002.929688"/>
      <use xlink:href="#DejaVuSans-75" x="1034.716797"/>
      <use xlink:href="#DejaVuSans-5f" x="1098.095703"/>
      <use xlink:href="#DejaVuSans-6d" x="1148.095703"/>
      <use xlink:href="#DejaVuSans-69" x="1245.507812"/>
      <use xlink:href="#DejaVuSans-6e" x="1273.291016"/>
      <use xlink:href="#DejaVuSans-20" x="1336.669922"/>
      <use xlink:href="#DejaVuSans-2f" x="1368.457031"/>
      <use xlink:href="#DejaVuSans-20" x="1402.148438"/>
      <use xlink:href="#DejaVuSans-75" x="1433.935547"/>
      <use xlink:href="#DejaVuSans-5b" x="1497.314453"/>
      <use xlink:href="#DejaVuSans-30" x="1536.328125"/>
      <use xlink:href="#DejaVuSans-5d" x="1599.951172"/>
     </g>
    </g>
    <g id="line2d_42">
     <path d="M 287.511406 69.526688 
L 297.511406 69.526688 
L 307.511406 69.526688 
" style="fill: none; stroke: #1f77b4; stroke-width: 1.5; stroke-linecap: square"/>
    </g>
    <g id="text_25">
     <!-- 1, 1, 1 -->
     <g transform="translate(315.511406 73.026688) scale(0.1 -0.1)">
      <use xlink:href="#DejaVuSans-31"/>
      <use xlink:href="#DejaVuSans-2c" x="63.623047"/>
      <use xlink:href="#DejaVuSans-20" x="95.410156"/>
      <use xlink:href="#DejaVuSans-31" x="127.197266"/>
      <use xlink:href="#DejaVuSans-2c" x="190.820312"/>
      <use xlink:href="#DejaVuSans-20" x="222.607422"/>
      <use xlink:href="#DejaVuSans-31" x="254.394531"/>
     </g>
    </g>
    <g id="line2d_43">
     <path d="M 287.511406 84.204813 
L 297.511406 84.204813 
L 307.511406 84.204813 
" style="fill: none; stroke: #ff7f0e; stroke-width: 1.5; stroke-linecap: square"/>
    </g>
    <g id="text_26">
     <!-- 900, 1, 1 -->
     <g transform="translate(315.511406 87.704813) scale(0.1 -0.1)">
      <use xlink:href="#DejaVuSans-39"/>
      <use xlink:href="#DejaVuSans-30" x="63.623047"/>
      <use xlink:href="#DejaVuSans-30" x="127.246094"/>
      <use xlink:href="#DejaVuSans-2c" x="190.869141"/>
      <use xlink:href="#DejaVuSans-20" x="222.65625"/>
      <use xlink:href="#DejaVuSans-31" x="254.443359"/>
      <use xlink:href="#DejaVuSans-2c" x="318.066406"/>
      <use xlink:href="#DejaVuSans-20" x="349.853516"/>
      <use xlink:href="#DejaVuSans-31" x="381.640625"/>
     </g>
    </g>
   </g>
  </g>
 </g>
 <defs>
  <clipPath id="pba03ec3bd0">
   <rect x="57.6" y="41.472" width="357.12" height="266.112"/>
  </clipPath>
  <clipPath id="pd3b317745e">
   <rect x="146.88" y="121.3056" width="178.56" height="146.3616"/>
  </clipPath>
  <clipPath id="pff1540a808">
   <rect x="236.16" y="135.94176" width="71.424" height="102.45312"/>
  </clipPath>
 </defs>
</svg>
