<?xml version="1.0" encoding="utf-8" standalone="no"?>
<!DOCTYPE svg PUBLIC "-//W3C//DTD SVG 1.1//EN"
  "http://www.w3.org/Graphics/SVG/1.1/DTD/svg11.dtd">
<svg xmlns:xlink="http://www.w3.org/1999/xlink" width="460.8pt" height="345.6pt" viewBox="0 0 460.8 345.6" xmlns="http://www.w3.org/2000/svg" version="1.1">
 <metadata>
  <rdf:RDF xmlns:dc="http://purl.org/dc/elements/1.1/" xmlns:cc="http://creativecommons.org/ns#" xmlns:rdf="http://www.w3.org/1999/02/22-rdf-syntax-ns#">
   <cc:Work>
    <dc:type rdf:resource="http://purl.org/dc/dcmitype/StillImage"/>
    <dc:date>2022-11-06T01:40:26.463171</dc:date>
    <dc:format>image/svg+xml</dc:format>
    <dc:creator>
     <cc:Agent>
      <dc:title>Matplotlib v3.6.2, https://matplotlib.org/</dc:title>
     </cc:Agent>
    </dc:creator>
   </cc:Work>
  </rdf:RDF>
 </metadata>
 <defs>
  <style type="text/css">*{stroke-linejoin: round; stroke-linecap: butt}</style>
 </defs>
 <g id="figure_1">
  <g id="patch_1">
   <path d="M 0 345.6 
L 460.8 345.6 
L 460.8 0 
L 0 0 
z
" style="fill: #ffffff"/>
  </g>
  <g id="axes_1">
   <g id="patch_2">
    <path d="M 57.6 307.584 
L 414.72 307.584 
L 414.72 41.472 
L 57.6 41.472 
z
" style="fill: #ffffff"/>
   </g>
   <g id="matplotlib.axis_1">
    <g id="xtick_1">
     <g id="line2d_1">
      <defs>
       <path id="m9bc4d1df68" d="M 0 0 
L 0 3.5 
" style="stroke: #000000; stroke-width: 0.8"/>
      </defs>
      <g>
       <use xlink:href="#m9bc4d1df68" x="63.057485" y="307.584" style="stroke: #000000; stroke-width: 0.8"/>
      </g>
     </g>
     <g id="text_1">
      <!-- −4 -->
      <g transform="translate(55.686391 322.182437) scale(0.1 -0.1)">
       <defs>
        <path id="DejaVuSans-2212" d="M 678 2272 
L 4684 2272 
L 4684 1741 
L 678 1741 
L 678 2272 
z
" transform="scale(0.015625)"/>
        <path id="DejaVuSans-34" d="M 2419 4116 
L 825 1625 
L 2419 1625 
L 2419 4116 
z
M 2253 4666 
L 3047 4666 
L 3047 1625 
L 3713 1625 
L 3713 1100 
L 3047 1100 
L 3047 0 
L 2419 0 
L 2419 1100 
L 313 1100 
L 313 1709 
L 2253 4666 
z
" transform="scale(0.015625)"/>
       </defs>
       <use xlink:href="#DejaVuSans-2212"/>
       <use xlink:href="#DejaVuSans-34" x="83.789062"/>
      </g>
     </g>
    </g>
    <g id="xtick_2">
     <g id="line2d_2">
      <g>
       <use xlink:href="#m9bc4d1df68" x="132.165504" y="307.584" style="stroke: #000000; stroke-width: 0.8"/>
      </g>
     </g>
     <g id="text_2">
      <!-- −2 -->
      <g transform="translate(124.79441 322.182437) scale(0.1 -0.1)">
       <defs>
        <path id="DejaVuSans-32" d="M 1228 531 
L 3431 531 
L 3431 0 
L 469 0 
L 469 531 
Q 828 903 1448 1529 
Q 2069 2156 2228 2338 
Q 2531 2678 2651 2914 
Q 2772 3150 2772 3378 
Q 2772 3750 2511 3984 
Q 2250 4219 1831 4219 
Q 1534 4219 1204 4116 
Q 875 4013 500 3803 
L 500 4441 
Q 881 4594 1212 4672 
Q 1544 4750 1819 4750 
Q 2544 4750 2975 4387 
Q 3406 4025 3406 3419 
Q 3406 3131 3298 2873 
Q 3191 2616 2906 2266 
Q 2828 2175 2409 1742 
Q 1991 1309 1228 531 
z
" transform="scale(0.015625)"/>
       </defs>
       <use xlink:href="#DejaVuSans-2212"/>
       <use xlink:href="#DejaVuSans-32" x="83.789062"/>
      </g>
     </g>
    </g>
    <g id="xtick_3">
     <g id="line2d_3">
      <g>
       <use xlink:href="#m9bc4d1df68" x="201.273523" y="307.584" style="stroke: #000000; stroke-width: 0.8"/>
      </g>
     </g>
     <g id="text_3">
      <!-- 0 -->
      <g transform="translate(198.092273 322.182437) scale(0.1 -0.1)">
       <defs>
        <path id="DejaVuSans-30" d="M 2034 4250 
Q 1547 4250 1301 3770 
Q 1056 3291 1056 2328 
Q 1056 1369 1301 889 
Q 1547 409 2034 409 
Q 2525 409 2770 889 
Q 3016 1369 3016 2328 
Q 3016 3291 2770 3770 
Q 2525 4250 2034 4250 
z
M 2034 4750 
Q 2819 4750 3233 4129 
Q 3647 3509 3647 2328 
Q 3647 1150 3233 529 
Q 2819 -91 2034 -91 
Q 1250 -91 836 529 
Q 422 1150 422 2328 
Q 422 3509 836 4129 
Q 1250 4750 2034 4750 
z
" transform="scale(0.015625)"/>
       </defs>
       <use xlink:href="#DejaVuSans-30"/>
      </g>
     </g>
    </g>
    <g id="xtick_4">
     <g id="line2d_4">
      <g>
       <use xlink:href="#m9bc4d1df68" x="270.381542" y="307.584" style="stroke: #000000; stroke-width: 0.8"/>
      </g>
     </g>
     <g id="text_4">
      <!-- 2 -->
      <g transform="translate(267.200292 322.182437) scale(0.1 -0.1)">
       <use xlink:href="#DejaVuSans-32"/>
      </g>
     </g>
    </g>
    <g id="xtick_5">
     <g id="line2d_5">
      <g>
       <use xlink:href="#m9bc4d1df68" x="339.489561" y="307.584" style="stroke: #000000; stroke-width: 0.8"/>
      </g>
     </g>
     <g id="text_5">
      <!-- 4 -->
      <g transform="translate(336.308311 322.182437) scale(0.1 -0.1)">
       <use xlink:href="#DejaVuSans-34"/>
      </g>
     </g>
    </g>
    <g id="xtick_6">
     <g id="line2d_6">
      <g>
       <use xlink:href="#m9bc4d1df68" x="408.59758" y="307.584" style="stroke: #000000; stroke-width: 0.8"/>
      </g>
     </g>
     <g id="text_6">
      <!-- 6 -->
      <g transform="translate(405.41633 322.182437) scale(0.1 -0.1)">
       <defs>
        <path id="DejaVuSans-36" d="M 2113 2584 
Q 1688 2584 1439 2293 
Q 1191 2003 1191 1497 
Q 1191 994 1439 701 
Q 1688 409 2113 409 
Q 2538 409 2786 701 
Q 3034 994 3034 1497 
Q 3034 2003 2786 2293 
Q 2538 2584 2113 2584 
z
M 3366 4563 
L 3366 3988 
Q 3128 4100 2886 4159 
Q 2644 4219 2406 4219 
Q 1781 4219 1451 3797 
Q 1122 3375 1075 2522 
Q 1259 2794 1537 2939 
Q 1816 3084 2150 3084 
Q 2853 3084 3261 2657 
Q 3669 2231 3669 1497 
Q 3669 778 3244 343 
Q 2819 -91 2113 -91 
Q 1303 -91 875 529 
Q 447 1150 447 2328 
Q 447 3434 972 4092 
Q 1497 4750 2381 4750 
Q 2619 4750 2861 4703 
Q 3103 4656 3366 4563 
z
" transform="scale(0.015625)"/>
       </defs>
       <use xlink:href="#DejaVuSans-36"/>
      </g>
     </g>
    </g>
    <g id="text_7">
     <!-- r_x% -->
     <g transform="translate(223.894375 335.684) scale(0.1 -0.1)">
      <defs>
       <path id="DejaVuSans-72" d="M 2631 2963 
Q 2534 3019 2420 3045 
Q 2306 3072 2169 3072 
Q 1681 3072 1420 2755 
Q 1159 2438 1159 1844 
L 1159 0 
L 581 0 
L 581 3500 
L 1159 3500 
L 1159 2956 
Q 1341 3275 1631 3429 
Q 1922 3584 2338 3584 
Q 2397 3584 2469 3576 
Q 2541 3569 2628 3553 
L 2631 2963 
z
" transform="scale(0.015625)"/>
       <path id="DejaVuSans-5f" d="M 3263 -1063 
L 3263 -1509 
L -63 -1509 
L -63 -1063 
L 3263 -1063 
z
" transform="scale(0.015625)"/>
       <path id="DejaVuSans-78" d="M 3513 3500 
L 2247 1797 
L 3578 0 
L 2900 0 
L 1881 1375 
L 863 0 
L 184 0 
L 1544 1831 
L 300 3500 
L 978 3500 
L 1906 2253 
L 2834 3500 
L 3513 3500 
z
" transform="scale(0.015625)"/>
       <path id="DejaVuSans-25" d="M 4653 2053 
Q 4381 2053 4226 1822 
Q 4072 1591 4072 1178 
Q 4072 772 4226 539 
Q 4381 306 4653 306 
Q 4919 306 5073 539 
Q 5228 772 5228 1178 
Q 5228 1588 5073 1820 
Q 4919 2053 4653 2053 
z
M 4653 2450 
Q 5147 2450 5437 2106 
Q 5728 1763 5728 1178 
Q 5728 594 5436 251 
Q 5144 -91 4653 -91 
Q 4153 -91 3862 251 
Q 3572 594 3572 1178 
Q 3572 1766 3864 2108 
Q 4156 2450 4653 2450 
z
M 1428 4353 
Q 1159 4353 1004 4120 
Q 850 3888 850 3481 
Q 850 3069 1003 2837 
Q 1156 2606 1428 2606 
Q 1700 2606 1854 2837 
Q 2009 3069 2009 3481 
Q 2009 3884 1853 4118 
Q 1697 4353 1428 4353 
z
M 4250 4750 
L 4750 4750 
L 1831 -91 
L 1331 -91 
L 4250 4750 
z
M 1428 4750 
Q 1922 4750 2215 4408 
Q 2509 4066 2509 3481 
Q 2509 2891 2217 2550 
Q 1925 2209 1428 2209 
Q 931 2209 642 2551 
Q 353 2894 353 3481 
Q 353 4063 643 4406 
Q 934 4750 1428 4750 
z
" transform="scale(0.015625)"/>
      </defs>
      <use xlink:href="#DejaVuSans-72"/>
      <use xlink:href="#DejaVuSans-5f" x="41.113281"/>
      <use xlink:href="#DejaVuSans-78" x="91.113281"/>
      <use xlink:href="#DejaVuSans-25" x="150.292969"/>
     </g>
    </g>
    <g id="text_8">
     <!-- 1e9 -->
     <g transform="translate(395.841875 334.860562) scale(0.1 -0.1)">
      <defs>
       <path id="DejaVuSans-31" d="M 794 531 
L 1825 531 
L 1825 4091 
L 703 3866 
L 703 4441 
L 1819 4666 
L 2450 4666 
L 2450 531 
L 3481 531 
L 3481 0 
L 794 0 
L 794 531 
z
" transform="scale(0.015625)"/>
       <path id="DejaVuSans-65" d="M 3597 1894 
L 3597 1613 
L 953 1613 
Q 991 1019 1311 708 
Q 1631 397 2203 397 
Q 2534 397 2845 478 
Q 3156 559 3463 722 
L 3463 178 
Q 3153 47 2828 -22 
Q 2503 -91 2169 -91 
Q 1331 -91 842 396 
Q 353 884 353 1716 
Q 353 2575 817 3079 
Q 1281 3584 2069 3584 
Q 2775 3584 3186 3129 
Q 3597 2675 3597 1894 
z
M 3022 2063 
Q 3016 2534 2758 2815 
Q 2500 3097 2075 3097 
Q 1594 3097 1305 2825 
Q 1016 2553 972 2059 
L 3022 2063 
z
" transform="scale(0.015625)"/>
       <path id="DejaVuSans-39" d="M 703 97 
L 703 672 
Q 941 559 1184 500 
Q 1428 441 1663 441 
Q 2288 441 2617 861 
Q 2947 1281 2994 2138 
Q 2813 1869 2534 1725 
Q 2256 1581 1919 1581 
Q 1219 1581 811 2004 
Q 403 2428 403 3163 
Q 403 3881 828 4315 
Q 1253 4750 1959 4750 
Q 2769 4750 3195 4129 
Q 3622 3509 3622 2328 
Q 3622 1225 3098 567 
Q 2575 -91 1691 -91 
Q 1453 -91 1209 -44 
Q 966 3 703 97 
z
M 1959 2075 
Q 2384 2075 2632 2365 
Q 2881 2656 2881 3163 
Q 2881 3666 2632 3958 
Q 2384 4250 1959 4250 
Q 1534 4250 1286 3958 
Q 1038 3666 1038 3163 
Q 1038 2656 1286 2365 
Q 1534 2075 1959 2075 
z
" transform="scale(0.015625)"/>
      </defs>
      <use xlink:href="#DejaVuSans-31"/>
      <use xlink:href="#DejaVuSans-65" x="63.623047"/>
      <use xlink:href="#DejaVuSans-39" x="125.146484"/>
     </g>
    </g>
   </g>
   <g id="matplotlib.axis_2">
    <g id="ytick_1">
     <g id="line2d_7">
      <defs>
       <path id="mb4addb11b2" d="M 0 0 
L -3.5 0 
" style="stroke: #000000; stroke-width: 0.8"/>
      </defs>
      <g>
       <use xlink:href="#mb4addb11b2" x="57.6" y="279.980664" style="stroke: #000000; stroke-width: 0.8"/>
      </g>
     </g>
     <g id="text_9">
      <!-- −4 -->
      <g transform="translate(35.857813 283.779883) scale(0.1 -0.1)">
       <use xlink:href="#DejaVuSans-2212"/>
       <use xlink:href="#DejaVuSans-34" x="83.789062"/>
      </g>
     </g>
    </g>
    <g id="ytick_2">
     <g id="line2d_8">
      <g>
       <use xlink:href="#mb4addb11b2" x="57.6" y="227.249283" style="stroke: #000000; stroke-width: 0.8"/>
      </g>
     </g>
     <g id="text_10">
      <!-- −2 -->
      <g transform="translate(35.857813 231.048502) scale(0.1 -0.1)">
       <use xlink:href="#DejaVuSans-2212"/>
       <use xlink:href="#DejaVuSans-32" x="83.789062"/>
      </g>
     </g>
    </g>
    <g id="ytick_3">
     <g id="line2d_9">
      <g>
       <use xlink:href="#mb4addb11b2" x="57.6" y="174.517902" style="stroke: #000000; stroke-width: 0.8"/>
      </g>
     </g>
     <g id="text_11">
      <!-- 0 -->
      <g transform="translate(44.2375 178.317121) scale(0.1 -0.1)">
       <use xlink:href="#DejaVuSans-30"/>
      </g>
     </g>
    </g>
    <g id="ytick_4">
     <g id="line2d_10">
      <g>
       <use xlink:href="#mb4addb11b2" x="57.6" y="121.786521" style="stroke: #000000; stroke-width: 0.8"/>
      </g>
     </g>
     <g id="text_12">
      <!-- 2 -->
      <g transform="translate(44.2375 125.58574) scale(0.1 -0.1)">
       <use xlink:href="#DejaVuSans-32"/>
      </g>
     </g>
    </g>
    <g id="ytick_5">
     <g id="line2d_11">
      <g>
       <use xlink:href="#mb4addb11b2" x="57.6" y="69.05514" style="stroke: #000000; stroke-width: 0.8"/>
      </g>
     </g>
     <g id="text_13">
      <!-- 4 -->
      <g transform="translate(44.2375 72.854359) scale(0.1 -0.1)">
       <use xlink:href="#DejaVuSans-34"/>
      </g>
     </g>
    </g>
    <g id="text_14">
     <!-- r_y% -->
     <g transform="translate(29.5 186.793625) rotate(-90) scale(0.1 -0.1)">
      <defs>
       <path id="DejaVuSans-79" d="M 2059 -325 
Q 1816 -950 1584 -1140 
Q 1353 -1331 966 -1331 
L 506 -1331 
L 506 -850 
L 844 -850 
Q 1081 -850 1212 -737 
Q 1344 -625 1503 -206 
L 1606 56 
L 191 3500 
L 800 3500 
L 1894 763 
L 2988 3500 
L 3597 3500 
L 2059 -325 
z
" transform="scale(0.015625)"/>
      </defs>
      <use xlink:href="#DejaVuSans-72"/>
      <use xlink:href="#DejaVuSans-5f" x="41.113281"/>
      <use xlink:href="#DejaVuSans-79" x="91.113281"/>
      <use xlink:href="#DejaVuSans-25" x="150.292969"/>
     </g>
    </g>
    <g id="text_15">
     <!-- 1e9 -->
     <g transform="translate(57.6 38.472) scale(0.1 -0.1)">
      <use xlink:href="#DejaVuSans-31"/>
      <use xlink:href="#DejaVuSans-65" x="63.623047"/>
      <use xlink:href="#DejaVuSans-39" x="125.146484"/>
     </g>
    </g>
   </g>
   <g id="line2d_12">
    <path d="M 364.644861 174.517902 
L 364.377564 168.16536 
L 363.576727 161.837873 
L 362.245508 155.560404 
L 360.38916 149.357716 
L 358.015005 143.25428 
L 355.132409 137.274174 
L 351.752744 131.440989 
L 347.889341 125.777738 
L 343.557443 120.306761 
L 338.774137 115.049642 
L 333.558293 110.02712 
L 327.930488 105.259009 
L 321.912923 100.76412 
L 315.529336 96.560183 
L 308.80491 92.663785 
L 301.766173 89.090296 
L 294.44089 85.853814 
L 286.857961 82.967106 
L 279.047299 80.441561 
L 271.039715 78.287141 
L 262.8668 76.512347 
L 254.560793 75.12418 
L 246.154462 74.128117 
L 237.680968 73.528086 
L 229.173737 73.326456 
L 220.666331 73.524022 
L 212.192308 74.120005 
L 203.785099 75.112055 
L 195.477868 76.496259 
L 187.303385 78.267156 
L 179.293899 80.417761 
L 171.481004 82.939591 
L 163.895522 85.822698 
L 156.567375 89.05571 
L 149.525473 92.625872 
L 142.797594 96.519103 
L 136.410278 100.720044 
L 130.388723 105.212125 
L 124.756682 109.977625 
L 119.536373 114.997747 
L 114.748389 120.252688 
L 110.411617 125.721719 
L 106.543167 131.383266 
L 103.158298 137.214997 
L 100.270363 143.193908 
L 97.890756 149.296415 
L 96.028863 155.498444 
L 94.69203 161.775532 
L 93.885532 168.102917 
L 93.61255 174.455641 
L 93.874163 180.808644 
L 94.669338 187.136866 
L 95.994941 193.415346 
L 97.845743 199.619316 
L 100.214445 205.724305 
L 103.091703 211.70623 
L 106.46617 217.541496 
L 110.324534 223.207085 
L 114.651578 228.680648 
L 119.430234 233.940595 
L 124.641653 238.966177 
L 130.265279 243.73757 
L 136.27893 248.235953 
L 142.658886 252.443582 
L 149.379982 256.343859 
L 156.415708 259.921401 
L 163.738311 263.162094 
L 171.318907 266.053155 
L 179.127598 268.583182 
L 187.13358 270.742192 
L 195.305277 272.521671 
L 203.610454 273.914599 
L 212.016355 274.91548 
L 220.489821 275.520367 
L 228.997432 275.726874 
L 237.505629 275.534185 
L 245.980854 274.94306 
L 254.389676 273.955831 
L 262.698928 272.576391 
L 270.875837 270.810181 
L 278.888148 268.664166 
L 286.704259 266.146812 
L 294.29334 263.268047 
L 301.625458 260.039225 
L 308.671692 256.473083 
L 315.404249 252.583685 
L 321.796575 248.386372 
L 327.823455 243.8977 
L 333.461117 239.135373 
L 338.687326 234.118174 
L 343.481467 228.865893 
L 347.82463 223.399246 
L 351.699685 217.739795 
L 355.091347 211.909861 
L 357.986238 205.93244 
L 360.372941 199.831107 
L 362.24204 193.629927 
L 363.586164 187.353361 
L 364.400011 181.026162 
L 364.68037 174.673288 
" clip-path="url(#p8cdeb790fe)" style="fill: none; stroke: #1f77b4; stroke-width: 1.5; stroke-linecap: square"/>
   </g>
   <g id="line2d_13">
    <path d="M 375.500357 174.518279 
L 375.215961 167.764635 
L 374.363861 161.037636 
L 372.947418 154.363829 
L 370.972223 147.76955 
L 368.44607 141.280823 
L 365.378927 134.923255 
L 361.782898 128.721933 
L 357.672174 122.701331 
L 353.062976 116.885206 
L 347.973493 111.296512 
L 342.42381 105.957303 
L 336.435825 100.888649 
L 330.03317 96.110552 
L 323.24111 91.641868 
L 316.086449 87.500232 
L 308.597419 83.701987 
L 300.803574 80.262123 
L 292.735669 77.194214 
L 284.425543 74.510367 
L 275.905989 72.221174 
L 267.210626 70.335668 
L 258.373767 68.86129 
L 249.430284 67.803859 
L 240.41547 67.167548 
L 231.364898 66.954867 
L 222.314284 67.166658 
L 213.299341 67.802084 
L 204.355646 68.858638 
L 195.51849 70.332152 
L 186.822746 72.216812 
L 178.302729 74.505179 
L 169.992059 77.188226 
L 161.923532 80.255365 
L 154.128988 83.694493 
L 146.639183 87.492039 
L 139.483674 91.633019 
L 132.690697 96.101092 
L 126.287058 100.878628 
L 120.298027 105.946775 
L 114.747237 111.285534 
L 109.656592 116.873839 
L 105.04618 122.689639 
L 100.934196 128.709984 
L 97.336864 134.911119 
L 94.268383 141.268575 
L 91.740859 147.757266 
L 89.764268 154.351587 
L 88.346409 161.025519 
L 87.49288 167.752726 
L 87.207048 174.506663 
L 87.490042 181.26068 
L 88.340747 187.988126 
L 89.755806 194.662455 
L 91.729638 201.257331 
L 94.254454 207.746732 
L 97.320292 214.10505 
L 100.915056 220.307197 
L 105.024563 226.328699 
L 109.632597 232.145797 
L 114.720978 237.735536 
L 120.269627 243.075861 
L 126.256652 248.145699 
L 132.658429 252.925045 
L 139.449699 257.39504 
L 146.603666 261.538046 
L 154.092102 265.337717 
L 161.885461 268.779057 
L 169.95299 271.848489 
L 178.26286 274.533901 
L 186.782281 276.824697 
L 195.477638 278.711836 
L 204.314622 280.187873 
L 213.258365 281.246983 
L 222.273578 281.884988 
L 231.324689 282.099368 
L 240.375986 281.889278 
L 249.391756 281.255546 
L 258.336425 280.200673 
L 267.174701 278.72882 
L 275.87171 276.845795 
L 284.393138 274.559026 
L 292.705361 271.877536 
L 300.775583 268.811906 
L 308.571962 265.37423 
L 316.063735 261.578073 
L 323.221343 257.438411 
L 330.016545 252.971579 
L 336.42253 248.1952 
L 342.414021 243.128119 
L 347.967379 237.79033 
L 353.060692 232.202892 
L 357.673864 226.387852 
L 361.788693 220.368151 
L 365.388944 214.167543 
L 368.460411 207.81049 
L 370.990975 201.322075 
L 372.970651 194.727899 
L 374.391629 188.053978 
L 375.248302 181.326646 
L 375.537289 174.572443 
" clip-path="url(#p8cdeb790fe)" style="fill: none; stroke: #ff7f0e; stroke-width: 1.5; stroke-linecap: square"/>
   </g>
   <g id="line2d_14">
    <path d="M 386.778837 174.51833 
L 386.476783 167.350615 
L 385.5718 160.21118 
L 384.067459 153.1282 
L 381.969697 146.129628 
L 379.286792 139.243082 
L 376.029331 132.495741 
L 372.21017 125.914231 
L 367.84438 119.524527 
L 362.949189 113.351843 
L 357.543916 107.420541 
L 351.649892 101.754027 
L 345.290375 96.374664 
L 338.490464 91.30368 
L 331.276992 86.561088 
L 323.678426 82.165605 
L 315.724753 78.134575 
L 307.447359 74.483907 
L 298.87891 71.228009 
L 290.05322 68.379729 
L 281.005117 65.950308 
L 271.770307 63.949333 
L 262.385235 62.384701 
L 252.886935 61.262587 
L 243.312892 60.587419 
L 233.700885 60.361863 
L 224.088848 60.586808 
L 214.514712 61.261368 
L 205.016258 62.382881 
L 195.63097 63.946921 
L 186.395885 65.947317 
L 177.347446 68.376175 
L 168.521361 71.223911 
L 159.952459 74.479289 
L 151.674556 78.12946 
L 143.720318 82.160023 
L 136.121134 86.555072 
L 128.906992 91.297264 
L 122.106361 96.367886 
L 115.746078 101.746929 
L 109.851242 107.413166 
L 104.445115 113.344239 
L 99.549032 119.516744 
L 95.182313 125.906322 
L 91.362191 132.487761 
L 88.103742 139.23509 
L 85.419824 146.121684 
L 83.321029 153.120367 
L 81.81564 160.203523 
L 80.909598 167.343201 
L 80.60648 174.511227 
L 80.907482 181.679318 
L 81.811418 188.819186 
L 83.314722 195.902658 
L 85.411463 202.901783 
L 88.093367 209.788941 
L 91.349854 216.536956 
L 95.168073 223.1192 
L 99.532959 229.509699 
L 104.427289 235.683237 
L 109.831752 241.615453 
L 115.725022 247.282938 
L 122.083845 252.663328 
L 128.883131 257.735392 
L 136.09605 262.479116 
L 143.694142 266.875782 
L 151.647426 270.908039 
L 159.92452 274.559977 
L 168.492763 277.817185 
L 177.318347 280.66681 
L 186.366448 283.097608 
L 195.601362 285.099986 
L 204.986652 286.666043 
L 214.485284 287.789599 
L 224.059779 288.466221 
L 233.672356 288.693237 
L 243.285088 288.469753 
L 252.860044 287.796649 
L 262.359444 286.676581 
L 271.745804 285.113968 
L 280.982088 283.114976 
L 290.031852 280.687491 
L 298.859387 277.841092 
L 307.429862 274.587009 
L 315.70946 270.938083 
L 323.665511 266.90871 
L 331.266624 262.514789 
L 338.482805 257.773657 
L 345.285581 252.704021 
L 351.648111 247.325885 
L 357.545289 241.660468 
L 362.953846 235.730124 
L 367.852443 229.558253 
L 372.221749 223.169207 
L 376.044526 216.588195 
L 379.305688 209.841183 
L 381.992369 202.954792 
L 384.093968 195.956195 
L 385.602191 188.873005 
L 386.511088 181.733169 
L 386.817072 174.56486 
" clip-path="url(#p8cdeb790fe)" style="fill: none; stroke: #2ca02c; stroke-width: 1.5; stroke-linecap: square"/>
   </g>
   <g id="line2d_15">
    <path d="M 398.447747 174.519479 
L 398.127595 166.925373 
L 397.168228 159.361224 
L 395.573432 151.856882 
L 393.349501 144.44196 
L 390.505211 137.14572 
L 387.051784 129.996954 
L 383.002849 123.023871 
L 378.374383 116.25399 
L 373.18465 109.714025 
L 367.45413 103.429784 
L 361.205436 97.426067 
L 354.463226 91.726564 
L 347.254106 86.353768 
L 339.606523 81.328879 
L 331.550655 76.671728 
L 323.118292 72.400692 
L 314.342709 68.532626 
L 305.258535 65.082793 
L 295.901616 62.064807 
L 286.308877 59.490579 
L 276.51817 57.370265 
L 266.568131 55.712234 
L 256.498024 54.523029 
L 246.347585 53.807343 
L 236.156868 53.568 
L 225.966088 53.805945 
L 215.815457 54.52024 
L 205.74503 55.708066 
L 195.794546 57.364737 
L 186.003269 59.483716 
L 176.409837 62.056641 
L 167.052105 65.073361 
L 157.966999 68.521972 
L 149.190369 72.388866 
L 140.756849 76.658785 
L 132.699716 81.314881 
L 125.050765 86.33878 
L 117.840179 91.71066 
L 111.09641 97.409324 
L 104.846071 103.412286 
L 99.113824 109.695858 
L 93.92229 116.235247 
L 89.291954 123.004649 
L 85.241089 129.977353 
L 81.78568 137.125846 
L 78.939361 144.421921 
L 76.713366 151.836789 
L 75.116479 159.341191 
L 74.155001 166.905518 
L 73.832727 174.49992 
L 74.150931 182.094433 
L 75.108357 189.659088 
L 76.701229 197.164038 
L 78.923263 204.57967 
L 81.765691 211.876721 
L 85.217299 219.026401 
L 89.264469 226.000496 
L 93.891233 232.771489 
L 99.079334 239.312664 
L 104.808303 245.598208 
L 111.055536 251.603322 
L 117.796382 257.30431 
L 125.004247 262.678676 
L 132.650689 267.705216 
L 140.705538 272.364095 
L 149.137014 276.63693 
L 157.911848 280.506862 
L 166.995419 283.95862 
L 176.351885 286.978584 
L 185.94433 289.554839 
L 195.734905 291.677219 
L 205.68498 293.337349 
L 215.755297 294.528678 
L 225.906121 295.246506 
L 236.097402 295.488 
L 246.288928 295.252206 
L 256.440487 294.540055 
L 266.512027 293.354356 
L 276.463807 291.699786 
L 286.256564 289.582875 
L 295.851658 287.011973 
L 305.211232 283.997224 
L 314.298356 280.550524 
L 323.077176 276.68547 
L 331.513055 272.417311 
L 339.572709 267.762889 
L 347.224338 262.740568 
L 354.437752 257.370161 
L 361.18449 251.672859 
L 367.437931 245.67114 
L 373.173404 239.388683 
L 378.368278 232.850277 
L 383.002057 226.081717 
L 387.056457 219.10971 
L 390.515482 211.961763 
L 393.365485 204.666079 
L 395.595219 197.251441 
L 397.195888 189.747105 
L 398.161175 182.182678 
L 398.487273 174.588005 
" clip-path="url(#p8cdeb790fe)" style="fill: none; stroke: #d62728; stroke-width: 1.5; stroke-linecap: square"/>
   </g>
   <g id="patch_3">
    <path d="M 57.6 307.584 
L 57.6 41.472 
" style="fill: none; stroke: #000000; stroke-width: 0.8; stroke-linejoin: miter; stroke-linecap: square"/>
   </g>
   <g id="patch_4">
    <path d="M 414.72 307.584 
L 414.72 41.472 
" style="fill: none; stroke: #000000; stroke-width: 0.8; stroke-linejoin: miter; stroke-linecap: square"/>
   </g>
   <g id="patch_5">
    <path d="M 57.6 307.584 
L 414.72 307.584 
" style="fill: none; stroke: #000000; stroke-width: 0.8; stroke-linejoin: miter; stroke-linecap: square"/>
   </g>
   <g id="patch_6">
    <path d="M 57.6 41.472 
L 414.72 41.472 
" style="fill: none; stroke: #000000; stroke-width: 0.8; stroke-linejoin: miter; stroke-linecap: square"/>
   </g>
   <g id="text_16">
    <!-- Retarded interaction - Sun-Mercury - 10c -->
    <g transform="translate(113.723438 8.59725) scale(0.12 -0.12)">
     <defs>
      <path id="DejaVuSans-52" d="M 2841 2188 
Q 3044 2119 3236 1894 
Q 3428 1669 3622 1275 
L 4263 0 
L 3584 0 
L 2988 1197 
Q 2756 1666 2539 1819 
Q 2322 1972 1947 1972 
L 1259 1972 
L 1259 0 
L 628 0 
L 628 4666 
L 2053 4666 
Q 2853 4666 3247 4331 
Q 3641 3997 3641 3322 
Q 3641 2881 3436 2590 
Q 3231 2300 2841 2188 
z
M 1259 4147 
L 1259 2491 
L 2053 2491 
Q 2509 2491 2742 2702 
Q 2975 2913 2975 3322 
Q 2975 3731 2742 3939 
Q 2509 4147 2053 4147 
L 1259 4147 
z
" transform="scale(0.015625)"/>
      <path id="DejaVuSans-74" d="M 1172 4494 
L 1172 3500 
L 2356 3500 
L 2356 3053 
L 1172 3053 
L 1172 1153 
Q 1172 725 1289 603 
Q 1406 481 1766 481 
L 2356 481 
L 2356 0 
L 1766 0 
Q 1100 0 847 248 
Q 594 497 594 1153 
L 594 3053 
L 172 3053 
L 172 3500 
L 594 3500 
L 594 4494 
L 1172 4494 
z
" transform="scale(0.015625)"/>
      <path id="DejaVuSans-61" d="M 2194 1759 
Q 1497 1759 1228 1600 
Q 959 1441 959 1056 
Q 959 750 1161 570 
Q 1363 391 1709 391 
Q 2188 391 2477 730 
Q 2766 1069 2766 1631 
L 2766 1759 
L 2194 1759 
z
M 3341 1997 
L 3341 0 
L 2766 0 
L 2766 531 
Q 2569 213 2275 61 
Q 1981 -91 1556 -91 
Q 1019 -91 701 211 
Q 384 513 384 1019 
Q 384 1609 779 1909 
Q 1175 2209 1959 2209 
L 2766 2209 
L 2766 2266 
Q 2766 2663 2505 2880 
Q 2244 3097 1772 3097 
Q 1472 3097 1187 3025 
Q 903 2953 641 2809 
L 641 3341 
Q 956 3463 1253 3523 
Q 1550 3584 1831 3584 
Q 2591 3584 2966 3190 
Q 3341 2797 3341 1997 
z
" transform="scale(0.015625)"/>
      <path id="DejaVuSans-64" d="M 2906 2969 
L 2906 4863 
L 3481 4863 
L 3481 0 
L 2906 0 
L 2906 525 
Q 2725 213 2448 61 
Q 2172 -91 1784 -91 
Q 1150 -91 751 415 
Q 353 922 353 1747 
Q 353 2572 751 3078 
Q 1150 3584 1784 3584 
Q 2172 3584 2448 3432 
Q 2725 3281 2906 2969 
z
M 947 1747 
Q 947 1113 1208 752 
Q 1469 391 1925 391 
Q 2381 391 2643 752 
Q 2906 1113 2906 1747 
Q 2906 2381 2643 2742 
Q 2381 3103 1925 3103 
Q 1469 3103 1208 2742 
Q 947 2381 947 1747 
z
" transform="scale(0.015625)"/>
      <path id="DejaVuSans-20" transform="scale(0.015625)"/>
      <path id="DejaVuSans-69" d="M 603 3500 
L 1178 3500 
L 1178 0 
L 603 0 
L 603 3500 
z
M 603 4863 
L 1178 4863 
L 1178 4134 
L 603 4134 
L 603 4863 
z
" transform="scale(0.015625)"/>
      <path id="DejaVuSans-6e" d="M 3513 2113 
L 3513 0 
L 2938 0 
L 2938 2094 
Q 2938 2591 2744 2837 
Q 2550 3084 2163 3084 
Q 1697 3084 1428 2787 
Q 1159 2491 1159 1978 
L 1159 0 
L 581 0 
L 581 3500 
L 1159 3500 
L 1159 2956 
Q 1366 3272 1645 3428 
Q 1925 3584 2291 3584 
Q 2894 3584 3203 3211 
Q 3513 2838 3513 2113 
z
" transform="scale(0.015625)"/>
      <path id="DejaVuSans-63" d="M 3122 3366 
L 3122 2828 
Q 2878 2963 2633 3030 
Q 2388 3097 2138 3097 
Q 1578 3097 1268 2742 
Q 959 2388 959 1747 
Q 959 1106 1268 751 
Q 1578 397 2138 397 
Q 2388 397 2633 464 
Q 2878 531 3122 666 
L 3122 134 
Q 2881 22 2623 -34 
Q 2366 -91 2075 -91 
Q 1284 -91 818 406 
Q 353 903 353 1747 
Q 353 2603 823 3093 
Q 1294 3584 2113 3584 
Q 2378 3584 2631 3529 
Q 2884 3475 3122 3366 
z
" transform="scale(0.015625)"/>
      <path id="DejaVuSans-6f" d="M 1959 3097 
Q 1497 3097 1228 2736 
Q 959 2375 959 1747 
Q 959 1119 1226 758 
Q 1494 397 1959 397 
Q 2419 397 2687 759 
Q 2956 1122 2956 1747 
Q 2956 2369 2687 2733 
Q 2419 3097 1959 3097 
z
M 1959 3584 
Q 2709 3584 3137 3096 
Q 3566 2609 3566 1747 
Q 3566 888 3137 398 
Q 2709 -91 1959 -91 
Q 1206 -91 779 398 
Q 353 888 353 1747 
Q 353 2609 779 3096 
Q 1206 3584 1959 3584 
z
" transform="scale(0.015625)"/>
      <path id="DejaVuSans-2d" d="M 313 2009 
L 1997 2009 
L 1997 1497 
L 313 1497 
L 313 2009 
z
" transform="scale(0.015625)"/>
      <path id="DejaVuSans-53" d="M 3425 4513 
L 3425 3897 
Q 3066 4069 2747 4153 
Q 2428 4238 2131 4238 
Q 1616 4238 1336 4038 
Q 1056 3838 1056 3469 
Q 1056 3159 1242 3001 
Q 1428 2844 1947 2747 
L 2328 2669 
Q 3034 2534 3370 2195 
Q 3706 1856 3706 1288 
Q 3706 609 3251 259 
Q 2797 -91 1919 -91 
Q 1588 -91 1214 -16 
Q 841 59 441 206 
L 441 856 
Q 825 641 1194 531 
Q 1563 422 1919 422 
Q 2459 422 2753 634 
Q 3047 847 3047 1241 
Q 3047 1584 2836 1778 
Q 2625 1972 2144 2069 
L 1759 2144 
Q 1053 2284 737 2584 
Q 422 2884 422 3419 
Q 422 4038 858 4394 
Q 1294 4750 2059 4750 
Q 2388 4750 2728 4690 
Q 3069 4631 3425 4513 
z
" transform="scale(0.015625)"/>
      <path id="DejaVuSans-75" d="M 544 1381 
L 544 3500 
L 1119 3500 
L 1119 1403 
Q 1119 906 1312 657 
Q 1506 409 1894 409 
Q 2359 409 2629 706 
Q 2900 1003 2900 1516 
L 2900 3500 
L 3475 3500 
L 3475 0 
L 2900 0 
L 2900 538 
Q 2691 219 2414 64 
Q 2138 -91 1772 -91 
Q 1169 -91 856 284 
Q 544 659 544 1381 
z
M 1991 3584 
L 1991 3584 
z
" transform="scale(0.015625)"/>
      <path id="DejaVuSans-4d" d="M 628 4666 
L 1569 4666 
L 2759 1491 
L 3956 4666 
L 4897 4666 
L 4897 0 
L 4281 0 
L 4281 4097 
L 3078 897 
L 2444 897 
L 1241 4097 
L 1241 0 
L 628 0 
L 628 4666 
z
" transform="scale(0.015625)"/>
     </defs>
     <use xlink:href="#DejaVuSans-52"/>
     <use xlink:href="#DejaVuSans-65" x="64.982422"/>
     <use xlink:href="#DejaVuSans-74" x="126.505859"/>
     <use xlink:href="#DejaVuSans-61" x="165.714844"/>
     <use xlink:href="#DejaVuSans-72" x="226.994141"/>
     <use xlink:href="#DejaVuSans-64" x="266.357422"/>
     <use xlink:href="#DejaVuSans-65" x="329.833984"/>
     <use xlink:href="#DejaVuSans-64" x="391.357422"/>
     <use xlink:href="#DejaVuSans-20" x="454.833984"/>
     <use xlink:href="#DejaVuSans-69" x="486.621094"/>
     <use xlink:href="#DejaVuSans-6e" x="514.404297"/>
     <use xlink:href="#DejaVuSans-74" x="577.783203"/>
     <use xlink:href="#DejaVuSans-65" x="616.992188"/>
     <use xlink:href="#DejaVuSans-72" x="678.515625"/>
     <use xlink:href="#DejaVuSans-61" x="719.628906"/>
     <use xlink:href="#DejaVuSans-63" x="780.908203"/>
     <use xlink:href="#DejaVuSans-74" x="835.888672"/>
     <use xlink:href="#DejaVuSans-69" x="875.097656"/>
     <use xlink:href="#DejaVuSans-6f" x="902.880859"/>
     <use xlink:href="#DejaVuSans-6e" x="964.0625"/>
     <use xlink:href="#DejaVuSans-20" x="1027.441406"/>
     <use xlink:href="#DejaVuSans-2d" x="1059.228516"/>
     <use xlink:href="#DejaVuSans-20" x="1095.3125"/>
     <use xlink:href="#DejaVuSans-53" x="1127.099609"/>
     <use xlink:href="#DejaVuSans-75" x="1190.576172"/>
     <use xlink:href="#DejaVuSans-6e" x="1253.955078"/>
     <use xlink:href="#DejaVuSans-2d" x="1317.333984"/>
     <use xlink:href="#DejaVuSans-4d" x="1353.417969"/>
     <use xlink:href="#DejaVuSans-65" x="1439.697266"/>
     <use xlink:href="#DejaVuSans-72" x="1501.220703"/>
     <use xlink:href="#DejaVuSans-63" x="1540.083984"/>
     <use xlink:href="#DejaVuSans-75" x="1595.064453"/>
     <use xlink:href="#DejaVuSans-72" x="1658.443359"/>
     <use xlink:href="#DejaVuSans-79" x="1699.556641"/>
     <use xlink:href="#DejaVuSans-20" x="1758.736328"/>
     <use xlink:href="#DejaVuSans-2d" x="1790.523438"/>
     <use xlink:href="#DejaVuSans-20" x="1826.607422"/>
     <use xlink:href="#DejaVuSans-31" x="1858.394531"/>
     <use xlink:href="#DejaVuSans-30" x="1922.017578"/>
     <use xlink:href="#DejaVuSans-63" x="1985.640625"/>
    </g>
    <!-- Changes of orbit after many orbital period -->
    <g transform="translate(109.377188 22.034625) scale(0.12 -0.12)">
     <defs>
      <path id="DejaVuSans-43" d="M 4122 4306 
L 4122 3641 
Q 3803 3938 3442 4084 
Q 3081 4231 2675 4231 
Q 1875 4231 1450 3742 
Q 1025 3253 1025 2328 
Q 1025 1406 1450 917 
Q 1875 428 2675 428 
Q 3081 428 3442 575 
Q 3803 722 4122 1019 
L 4122 359 
Q 3791 134 3420 21 
Q 3050 -91 2638 -91 
Q 1578 -91 968 557 
Q 359 1206 359 2328 
Q 359 3453 968 4101 
Q 1578 4750 2638 4750 
Q 3056 4750 3426 4639 
Q 3797 4528 4122 4306 
z
" transform="scale(0.015625)"/>
      <path id="DejaVuSans-68" d="M 3513 2113 
L 3513 0 
L 2938 0 
L 2938 2094 
Q 2938 2591 2744 2837 
Q 2550 3084 2163 3084 
Q 1697 3084 1428 2787 
Q 1159 2491 1159 1978 
L 1159 0 
L 581 0 
L 581 4863 
L 1159 4863 
L 1159 2956 
Q 1366 3272 1645 3428 
Q 1925 3584 2291 3584 
Q 2894 3584 3203 3211 
Q 3513 2838 3513 2113 
z
" transform="scale(0.015625)"/>
      <path id="DejaVuSans-67" d="M 2906 1791 
Q 2906 2416 2648 2759 
Q 2391 3103 1925 3103 
Q 1463 3103 1205 2759 
Q 947 2416 947 1791 
Q 947 1169 1205 825 
Q 1463 481 1925 481 
Q 2391 481 2648 825 
Q 2906 1169 2906 1791 
z
M 3481 434 
Q 3481 -459 3084 -895 
Q 2688 -1331 1869 -1331 
Q 1566 -1331 1297 -1286 
Q 1028 -1241 775 -1147 
L 775 -588 
Q 1028 -725 1275 -790 
Q 1522 -856 1778 -856 
Q 2344 -856 2625 -561 
Q 2906 -266 2906 331 
L 2906 616 
Q 2728 306 2450 153 
Q 2172 0 1784 0 
Q 1141 0 747 490 
Q 353 981 353 1791 
Q 353 2603 747 3093 
Q 1141 3584 1784 3584 
Q 2172 3584 2450 3431 
Q 2728 3278 2906 2969 
L 2906 3500 
L 3481 3500 
L 3481 434 
z
" transform="scale(0.015625)"/>
      <path id="DejaVuSans-73" d="M 2834 3397 
L 2834 2853 
Q 2591 2978 2328 3040 
Q 2066 3103 1784 3103 
Q 1356 3103 1142 2972 
Q 928 2841 928 2578 
Q 928 2378 1081 2264 
Q 1234 2150 1697 2047 
L 1894 2003 
Q 2506 1872 2764 1633 
Q 3022 1394 3022 966 
Q 3022 478 2636 193 
Q 2250 -91 1575 -91 
Q 1294 -91 989 -36 
Q 684 19 347 128 
L 347 722 
Q 666 556 975 473 
Q 1284 391 1588 391 
Q 1994 391 2212 530 
Q 2431 669 2431 922 
Q 2431 1156 2273 1281 
Q 2116 1406 1581 1522 
L 1381 1569 
Q 847 1681 609 1914 
Q 372 2147 372 2553 
Q 372 3047 722 3315 
Q 1072 3584 1716 3584 
Q 2034 3584 2315 3537 
Q 2597 3491 2834 3397 
z
" transform="scale(0.015625)"/>
      <path id="DejaVuSans-66" d="M 2375 4863 
L 2375 4384 
L 1825 4384 
Q 1516 4384 1395 4259 
Q 1275 4134 1275 3809 
L 1275 3500 
L 2222 3500 
L 2222 3053 
L 1275 3053 
L 1275 0 
L 697 0 
L 697 3053 
L 147 3053 
L 147 3500 
L 697 3500 
L 697 3744 
Q 697 4328 969 4595 
Q 1241 4863 1831 4863 
L 2375 4863 
z
" transform="scale(0.015625)"/>
      <path id="DejaVuSans-62" d="M 3116 1747 
Q 3116 2381 2855 2742 
Q 2594 3103 2138 3103 
Q 1681 3103 1420 2742 
Q 1159 2381 1159 1747 
Q 1159 1113 1420 752 
Q 1681 391 2138 391 
Q 2594 391 2855 752 
Q 3116 1113 3116 1747 
z
M 1159 2969 
Q 1341 3281 1617 3432 
Q 1894 3584 2278 3584 
Q 2916 3584 3314 3078 
Q 3713 2572 3713 1747 
Q 3713 922 3314 415 
Q 2916 -91 2278 -91 
Q 1894 -91 1617 61 
Q 1341 213 1159 525 
L 1159 0 
L 581 0 
L 581 4863 
L 1159 4863 
L 1159 2969 
z
" transform="scale(0.015625)"/>
      <path id="DejaVuSans-6d" d="M 3328 2828 
Q 3544 3216 3844 3400 
Q 4144 3584 4550 3584 
Q 5097 3584 5394 3201 
Q 5691 2819 5691 2113 
L 5691 0 
L 5113 0 
L 5113 2094 
Q 5113 2597 4934 2840 
Q 4756 3084 4391 3084 
Q 3944 3084 3684 2787 
Q 3425 2491 3425 1978 
L 3425 0 
L 2847 0 
L 2847 2094 
Q 2847 2600 2669 2842 
Q 2491 3084 2119 3084 
Q 1678 3084 1418 2786 
Q 1159 2488 1159 1978 
L 1159 0 
L 581 0 
L 581 3500 
L 1159 3500 
L 1159 2956 
Q 1356 3278 1631 3431 
Q 1906 3584 2284 3584 
Q 2666 3584 2933 3390 
Q 3200 3197 3328 2828 
z
" transform="scale(0.015625)"/>
      <path id="DejaVuSans-6c" d="M 603 4863 
L 1178 4863 
L 1178 0 
L 603 0 
L 603 4863 
z
" transform="scale(0.015625)"/>
      <path id="DejaVuSans-70" d="M 1159 525 
L 1159 -1331 
L 581 -1331 
L 581 3500 
L 1159 3500 
L 1159 2969 
Q 1341 3281 1617 3432 
Q 1894 3584 2278 3584 
Q 2916 3584 3314 3078 
Q 3713 2572 3713 1747 
Q 3713 922 3314 415 
Q 2916 -91 2278 -91 
Q 1894 -91 1617 61 
Q 1341 213 1159 525 
z
M 3116 1747 
Q 3116 2381 2855 2742 
Q 2594 3103 2138 3103 
Q 1681 3103 1420 2742 
Q 1159 2381 1159 1747 
Q 1159 1113 1420 752 
Q 1681 391 2138 391 
Q 2594 391 2855 752 
Q 3116 1113 3116 1747 
z
" transform="scale(0.015625)"/>
     </defs>
     <use xlink:href="#DejaVuSans-43"/>
     <use xlink:href="#DejaVuSans-68" x="69.824219"/>
     <use xlink:href="#DejaVuSans-61" x="133.203125"/>
     <use xlink:href="#DejaVuSans-6e" x="194.482422"/>
     <use xlink:href="#DejaVuSans-67" x="257.861328"/>
     <use xlink:href="#DejaVuSans-65" x="321.337891"/>
     <use xlink:href="#DejaVuSans-73" x="382.861328"/>
     <use xlink:href="#DejaVuSans-20" x="434.960938"/>
     <use xlink:href="#DejaVuSans-6f" x="466.748047"/>
     <use xlink:href="#DejaVuSans-66" x="527.929688"/>
     <use xlink:href="#DejaVuSans-20" x="563.134766"/>
     <use xlink:href="#DejaVuSans-6f" x="594.921875"/>
     <use xlink:href="#DejaVuSans-72" x="656.103516"/>
     <use xlink:href="#DejaVuSans-62" x="697.216797"/>
     <use xlink:href="#DejaVuSans-69" x="760.693359"/>
     <use xlink:href="#DejaVuSans-74" x="788.476562"/>
     <use xlink:href="#DejaVuSans-20" x="827.685547"/>
     <use xlink:href="#DejaVuSans-61" x="859.472656"/>
     <use xlink:href="#DejaVuSans-66" x="920.751953"/>
     <use xlink:href="#DejaVuSans-74" x="954.207031"/>
     <use xlink:href="#DejaVuSans-65" x="993.416016"/>
     <use xlink:href="#DejaVuSans-72" x="1054.939453"/>
     <use xlink:href="#DejaVuSans-20" x="1096.052734"/>
     <use xlink:href="#DejaVuSans-6d" x="1127.839844"/>
     <use xlink:href="#DejaVuSans-61" x="1225.251953"/>
     <use xlink:href="#DejaVuSans-6e" x="1286.53125"/>
     <use xlink:href="#DejaVuSans-79" x="1349.910156"/>
     <use xlink:href="#DejaVuSans-20" x="1409.089844"/>
     <use xlink:href="#DejaVuSans-6f" x="1440.876953"/>
     <use xlink:href="#DejaVuSans-72" x="1502.058594"/>
     <use xlink:href="#DejaVuSans-62" x="1543.171875"/>
     <use xlink:href="#DejaVuSans-69" x="1606.648438"/>
     <use xlink:href="#DejaVuSans-74" x="1634.431641"/>
     <use xlink:href="#DejaVuSans-61" x="1673.640625"/>
     <use xlink:href="#DejaVuSans-6c" x="1734.919922"/>
     <use xlink:href="#DejaVuSans-20" x="1762.703125"/>
     <use xlink:href="#DejaVuSans-70" x="1794.490234"/>
     <use xlink:href="#DejaVuSans-65" x="1857.966797"/>
     <use xlink:href="#DejaVuSans-72" x="1919.490234"/>
     <use xlink:href="#DejaVuSans-69" x="1960.603516"/>
     <use xlink:href="#DejaVuSans-6f" x="1988.386719"/>
     <use xlink:href="#DejaVuSans-64" x="2049.568359"/>
    </g>
    <!-- u[0] = 1.296e-05  r%[0] = 4.728e+09 -->
    <g transform="translate(121.494375 35.472) scale(0.12 -0.12)">
     <defs>
      <path id="DejaVuSans-5b" d="M 550 4863 
L 1875 4863 
L 1875 4416 
L 1125 4416 
L 1125 -397 
L 1875 -397 
L 1875 -844 
L 550 -844 
L 550 4863 
z
" transform="scale(0.015625)"/>
      <path id="DejaVuSans-5d" d="M 1947 4863 
L 1947 -844 
L 622 -844 
L 622 -397 
L 1369 -397 
L 1369 4416 
L 622 4416 
L 622 4863 
L 1947 4863 
z
" transform="scale(0.015625)"/>
      <path id="DejaVuSans-3d" d="M 678 2906 
L 4684 2906 
L 4684 2381 
L 678 2381 
L 678 2906 
z
M 678 1631 
L 4684 1631 
L 4684 1100 
L 678 1100 
L 678 1631 
z
" transform="scale(0.015625)"/>
      <path id="DejaVuSans-2e" d="M 684 794 
L 1344 794 
L 1344 0 
L 684 0 
L 684 794 
z
" transform="scale(0.015625)"/>
      <path id="DejaVuSans-35" d="M 691 4666 
L 3169 4666 
L 3169 4134 
L 1269 4134 
L 1269 2991 
Q 1406 3038 1543 3061 
Q 1681 3084 1819 3084 
Q 2600 3084 3056 2656 
Q 3513 2228 3513 1497 
Q 3513 744 3044 326 
Q 2575 -91 1722 -91 
Q 1428 -91 1123 -41 
Q 819 9 494 109 
L 494 744 
Q 775 591 1075 516 
Q 1375 441 1709 441 
Q 2250 441 2565 725 
Q 2881 1009 2881 1497 
Q 2881 1984 2565 2268 
Q 2250 2553 1709 2553 
Q 1456 2553 1204 2497 
Q 953 2441 691 2322 
L 691 4666 
z
" transform="scale(0.015625)"/>
      <path id="DejaVuSans-37" d="M 525 4666 
L 3525 4666 
L 3525 4397 
L 1831 0 
L 1172 0 
L 2766 4134 
L 525 4134 
L 525 4666 
z
" transform="scale(0.015625)"/>
      <path id="DejaVuSans-38" d="M 2034 2216 
Q 1584 2216 1326 1975 
Q 1069 1734 1069 1313 
Q 1069 891 1326 650 
Q 1584 409 2034 409 
Q 2484 409 2743 651 
Q 3003 894 3003 1313 
Q 3003 1734 2745 1975 
Q 2488 2216 2034 2216 
z
M 1403 2484 
Q 997 2584 770 2862 
Q 544 3141 544 3541 
Q 544 4100 942 4425 
Q 1341 4750 2034 4750 
Q 2731 4750 3128 4425 
Q 3525 4100 3525 3541 
Q 3525 3141 3298 2862 
Q 3072 2584 2669 2484 
Q 3125 2378 3379 2068 
Q 3634 1759 3634 1313 
Q 3634 634 3220 271 
Q 2806 -91 2034 -91 
Q 1263 -91 848 271 
Q 434 634 434 1313 
Q 434 1759 690 2068 
Q 947 2378 1403 2484 
z
M 1172 3481 
Q 1172 3119 1398 2916 
Q 1625 2713 2034 2713 
Q 2441 2713 2670 2916 
Q 2900 3119 2900 3481 
Q 2900 3844 2670 4047 
Q 2441 4250 2034 4250 
Q 1625 4250 1398 4047 
Q 1172 3844 1172 3481 
z
" transform="scale(0.015625)"/>
      <path id="DejaVuSans-2b" d="M 2944 4013 
L 2944 2272 
L 4684 2272 
L 4684 1741 
L 2944 1741 
L 2944 0 
L 2419 0 
L 2419 1741 
L 678 1741 
L 678 2272 
L 2419 2272 
L 2419 4013 
L 2944 4013 
z
" transform="scale(0.015625)"/>
     </defs>
     <use xlink:href="#DejaVuSans-75"/>
     <use xlink:href="#DejaVuSans-5b" x="63.378906"/>
     <use xlink:href="#DejaVuSans-30" x="102.392578"/>
     <use xlink:href="#DejaVuSans-5d" x="166.015625"/>
     <use xlink:href="#DejaVuSans-20" x="205.029297"/>
     <use xlink:href="#DejaVuSans-3d" x="236.816406"/>
     <use xlink:href="#DejaVuSans-20" x="320.605469"/>
     <use xlink:href="#DejaVuSans-31" x="352.392578"/>
     <use xlink:href="#DejaVuSans-2e" x="416.015625"/>
     <use xlink:href="#DejaVuSans-32" x="447.802734"/>
     <use xlink:href="#DejaVuSans-39" x="511.425781"/>
     <use xlink:href="#DejaVuSans-36" x="575.048828"/>
     <use xlink:href="#DejaVuSans-65" x="638.671875"/>
     <use xlink:href="#DejaVuSans-2d" x="700.195312"/>
     <use xlink:href="#DejaVuSans-30" x="736.279297"/>
     <use xlink:href="#DejaVuSans-35" x="799.902344"/>
     <use xlink:href="#DejaVuSans-20" x="863.525391"/>
     <use xlink:href="#DejaVuSans-20" x="895.3125"/>
     <use xlink:href="#DejaVuSans-72" x="927.099609"/>
     <use xlink:href="#DejaVuSans-25" x="968.212891"/>
     <use xlink:href="#DejaVuSans-5b" x="1063.232422"/>
     <use xlink:href="#DejaVuSans-30" x="1102.246094"/>
     <use xlink:href="#DejaVuSans-5d" x="1165.869141"/>
     <use xlink:href="#DejaVuSans-20" x="1204.882812"/>
     <use xlink:href="#DejaVuSans-3d" x="1236.669922"/>
     <use xlink:href="#DejaVuSans-20" x="1320.458984"/>
     <use xlink:href="#DejaVuSans-34" x="1352.246094"/>
     <use xlink:href="#DejaVuSans-2e" x="1415.869141"/>
     <use xlink:href="#DejaVuSans-37" x="1447.65625"/>
     <use xlink:href="#DejaVuSans-32" x="1511.279297"/>
     <use xlink:href="#DejaVuSans-38" x="1574.902344"/>
     <use xlink:href="#DejaVuSans-65" x="1638.525391"/>
     <use xlink:href="#DejaVuSans-2b" x="1700.048828"/>
     <use xlink:href="#DejaVuSans-30" x="1783.837891"/>
     <use xlink:href="#DejaVuSans-39" x="1847.460938"/>
    </g>
   </g>
   <g id="legend_1">
    <g id="patch_7">
     <path d="M 152.213906 212.862375 
L 320.106094 212.862375 
Q 322.106094 212.862375 322.106094 210.862375 
L 322.106094 138.193625 
Q 322.106094 136.193625 320.106094 136.193625 
L 152.213906 136.193625 
Q 150.213906 136.193625 150.213906 138.193625 
L 150.213906 210.862375 
Q 150.213906 212.862375 152.213906 212.862375 
z
" style="fill: #ffffff; opacity: 0.8; stroke: #cccccc; stroke-linejoin: miter"/>
    </g>
    <g id="text_17">
     <!-- period, r_max / r[0], u_min / u[0] -->
     <g transform="translate(154.213906 147.792062) scale(0.1 -0.1)">
      <defs>
       <path id="DejaVuSans-2c" d="M 750 794 
L 1409 794 
L 1409 256 
L 897 -744 
L 494 -744 
L 750 256 
L 750 794 
z
" transform="scale(0.015625)"/>
       <path id="DejaVuSans-2f" d="M 1625 4666 
L 2156 4666 
L 531 -594 
L 0 -594 
L 1625 4666 
z
" transform="scale(0.015625)"/>
      </defs>
      <use xlink:href="#DejaVuSans-70"/>
      <use xlink:href="#DejaVuSans-65" x="63.476562"/>
      <use xlink:href="#DejaVuSans-72" x="125"/>
      <use xlink:href="#DejaVuSans-69" x="166.113281"/>
      <use xlink:href="#DejaVuSans-6f" x="193.896484"/>
      <use xlink:href="#DejaVuSans-64" x="255.078125"/>
      <use xlink:href="#DejaVuSans-2c" x="318.554688"/>
      <use xlink:href="#DejaVuSans-20" x="350.341797"/>
      <use xlink:href="#DejaVuSans-72" x="382.128906"/>
      <use xlink:href="#DejaVuSans-5f" x="423.242188"/>
      <use xlink:href="#DejaVuSans-6d" x="473.242188"/>
      <use xlink:href="#DejaVuSans-61" x="570.654297"/>
      <use xlink:href="#DejaVuSans-78" x="631.933594"/>
      <use xlink:href="#DejaVuSans-20" x="691.113281"/>
      <use xlink:href="#DejaVuSans-2f" x="722.900391"/>
      <use xlink:href="#DejaVuSans-20" x="756.591797"/>
      <use xlink:href="#DejaVuSans-72" x="788.378906"/>
      <use xlink:href="#DejaVuSans-5b" x="829.492188"/>
      <use xlink:href="#DejaVuSans-30" x="868.505859"/>
      <use xlink:href="#DejaVuSans-5d" x="932.128906"/>
      <use xlink:href="#DejaVuSans-2c" x="971.142578"/>
      <use xlink:href="#DejaVuSans-20" x="1002.929688"/>
      <use xlink:href="#DejaVuSans-75" x="1034.716797"/>
      <use xlink:href="#DejaVuSans-5f" x="1098.095703"/>
      <use xlink:href="#DejaVuSans-6d" x="1148.095703"/>
      <use xlink:href="#DejaVuSans-69" x="1245.507812"/>
      <use xlink:href="#DejaVuSans-6e" x="1273.291016"/>
      <use xlink:href="#DejaVuSans-20" x="1336.669922"/>
      <use xlink:href="#DejaVuSans-2f" x="1368.457031"/>
      <use xlink:href="#DejaVuSans-20" x="1402.148438"/>
      <use xlink:href="#DejaVuSans-75" x="1433.935547"/>
      <use xlink:href="#DejaVuSans-5b" x="1497.314453"/>
      <use xlink:href="#DejaVuSans-30" x="1536.328125"/>
      <use xlink:href="#DejaVuSans-5d" x="1599.951172"/>
     </g>
    </g>
    <g id="line2d_16">
     <path d="M 177.631875 159.248312 
L 187.631875 159.248312 
L 197.631875 159.248312 
" style="fill: none; stroke: #1f77b4; stroke-width: 1.5; stroke-linecap: square"/>
    </g>
    <g id="text_18">
     <!-- 1, 1, 1 -->
     <g transform="translate(205.631875 162.748312) scale(0.1 -0.1)">
      <use xlink:href="#DejaVuSans-31"/>
      <use xlink:href="#DejaVuSans-2c" x="63.623047"/>
      <use xlink:href="#DejaVuSans-20" x="95.410156"/>
      <use xlink:href="#DejaVuSans-31" x="127.197266"/>
      <use xlink:href="#DejaVuSans-2c" x="190.820312"/>
      <use xlink:href="#DejaVuSans-20" x="222.607422"/>
      <use xlink:href="#DejaVuSans-31" x="254.394531"/>
     </g>
    </g>
    <g id="line2d_17">
     <path d="M 177.631875 173.926437 
L 187.631875 173.926437 
L 197.631875 173.926437 
" style="fill: none; stroke: #ff7f0e; stroke-width: 1.5; stroke-linecap: square"/>
    </g>
    <g id="text_19">
     <!-- 300, 1.067, 0.966 -->
     <g transform="translate(205.631875 177.426437) scale(0.1 -0.1)">
      <defs>
       <path id="DejaVuSans-33" d="M 2597 2516 
Q 3050 2419 3304 2112 
Q 3559 1806 3559 1356 
Q 3559 666 3084 287 
Q 2609 -91 1734 -91 
Q 1441 -91 1130 -33 
Q 819 25 488 141 
L 488 750 
Q 750 597 1062 519 
Q 1375 441 1716 441 
Q 2309 441 2620 675 
Q 2931 909 2931 1356 
Q 2931 1769 2642 2001 
Q 2353 2234 1838 2234 
L 1294 2234 
L 1294 2753 
L 1863 2753 
Q 2328 2753 2575 2939 
Q 2822 3125 2822 3475 
Q 2822 3834 2567 4026 
Q 2313 4219 1838 4219 
Q 1578 4219 1281 4162 
Q 984 4106 628 3988 
L 628 4550 
Q 988 4650 1302 4700 
Q 1616 4750 1894 4750 
Q 2613 4750 3031 4423 
Q 3450 4097 3450 3541 
Q 3450 3153 3228 2886 
Q 3006 2619 2597 2516 
z
" transform="scale(0.015625)"/>
      </defs>
      <use xlink:href="#DejaVuSans-33"/>
      <use xlink:href="#DejaVuSans-30" x="63.623047"/>
      <use xlink:href="#DejaVuSans-30" x="127.246094"/>
      <use xlink:href="#DejaVuSans-2c" x="190.869141"/>
      <use xlink:href="#DejaVuSans-20" x="222.65625"/>
      <use xlink:href="#DejaVuSans-31" x="254.443359"/>
      <use xlink:href="#DejaVuSans-2e" x="318.066406"/>
      <use xlink:href="#DejaVuSans-30" x="349.853516"/>
      <use xlink:href="#DejaVuSans-36" x="413.476562"/>
      <use xlink:href="#DejaVuSans-37" x="477.099609"/>
      <use xlink:href="#DejaVuSans-2c" x="540.722656"/>
      <use xlink:href="#DejaVuSans-20" x="572.509766"/>
      <use xlink:href="#DejaVuSans-30" x="604.296875"/>
      <use xlink:href="#DejaVuSans-2e" x="667.919922"/>
      <use xlink:href="#DejaVuSans-39" x="699.707031"/>
      <use xlink:href="#DejaVuSans-36" x="763.330078"/>
      <use xlink:href="#DejaVuSans-36" x="826.953125"/>
     </g>
    </g>
    <g id="line2d_18">
     <path d="M 177.631875 188.604562 
L 187.631875 188.604562 
L 197.631875 188.604562 
" style="fill: none; stroke: #2ca02c; stroke-width: 1.5; stroke-linecap: square"/>
    </g>
    <g id="text_20">
     <!-- 600, 1.136, 0.935 -->
     <g transform="translate(205.631875 192.104562) scale(0.1 -0.1)">
      <use xlink:href="#DejaVuSans-36"/>
      <use xlink:href="#DejaVuSans-30" x="63.623047"/>
      <use xlink:href="#DejaVuSans-30" x="127.246094"/>
      <use xlink:href="#DejaVuSans-2c" x="190.869141"/>
      <use xlink:href="#DejaVuSans-20" x="222.65625"/>
      <use xlink:href="#DejaVuSans-31" x="254.443359"/>
      <use xlink:href="#DejaVuSans-2e" x="318.066406"/>
      <use xlink:href="#DejaVuSans-31" x="349.853516"/>
      <use xlink:href="#DejaVuSans-33" x="413.476562"/>
      <use xlink:href="#DejaVuSans-36" x="477.099609"/>
      <use xlink:href="#DejaVuSans-2c" x="540.722656"/>
      <use xlink:href="#DejaVuSans-20" x="572.509766"/>
      <use xlink:href="#DejaVuSans-30" x="604.296875"/>
      <use xlink:href="#DejaVuSans-2e" x="667.919922"/>
      <use xlink:href="#DejaVuSans-39" x="699.707031"/>
      <use xlink:href="#DejaVuSans-33" x="763.330078"/>
      <use xlink:href="#DejaVuSans-35" x="826.953125"/>
     </g>
    </g>
    <g id="line2d_19">
     <path d="M 177.631875 203.282688 
L 187.631875 203.282688 
L 197.631875 203.282688 
" style="fill: none; stroke: #d62728; stroke-width: 1.5; stroke-linecap: square"/>
    </g>
    <g id="text_21">
     <!-- 900, 1.207, 0.905 -->
     <g transform="translate(205.631875 206.782688) scale(0.1 -0.1)">
      <use xlink:href="#DejaVuSans-39"/>
      <use xlink:href="#DejaVuSans-30" x="63.623047"/>
      <use xlink:href="#DejaVuSans-30" x="127.246094"/>
      <use xlink:href="#DejaVuSans-2c" x="190.869141"/>
      <use xlink:href="#DejaVuSans-20" x="222.65625"/>
      <use xlink:href="#DejaVuSans-31" x="254.443359"/>
      <use xlink:href="#DejaVuSans-2e" x="318.066406"/>
      <use xlink:href="#DejaVuSans-32" x="349.853516"/>
      <use xlink:href="#DejaVuSans-30" x="413.476562"/>
      <use xlink:href="#DejaVuSans-37" x="477.099609"/>
      <use xlink:href="#DejaVuSans-2c" x="540.722656"/>
      <use xlink:href="#DejaVuSans-20" x="572.509766"/>
      <use xlink:href="#DejaVuSans-30" x="604.296875"/>
      <use xlink:href="#DejaVuSans-2e" x="667.919922"/>
      <use xlink:href="#DejaVuSans-39" x="699.707031"/>
      <use xlink:href="#DejaVuSans-30" x="763.330078"/>
      <use xlink:href="#DejaVuSans-35" x="826.953125"/>
     </g>
    </g>
   </g>
  </g>
 </g>
 <defs>
  <clipPath id="p8cdeb790fe">
   <rect x="57.6" y="41.472" width="357.12" height="266.112"/>
  </clipPath>
 </defs>
</svg>
